<?xml version="1.0" standalone="no"?>
<!DOCTYPE svg PUBLIC "-//W3C//DTD SVG 20010904//EN"
 "http://www.w3.org/TR/2001/REC-SVG-20010904/DTD/svg10.dtd">
<svg version="1.0" xmlns="http://www.w3.org/2000/svg"
 width="1024.000000pt" height="1024.000000pt" viewBox="0 0 1024.000000 1024.000000"
 preserveAspectRatio="xMidYMid meet">
<metadata>
Created by potrace 1.14, written by Peter Selinger 2001-2017
</metadata>
<g transform="translate(0.000000,1024.000000) scale(0.100000,-0.100000)"
fill="#000000" stroke="none">
<path d="M3251 7739 c-13 -5 -35 -21 -48 -35 -21 -23 -96 -128 -118 -166 -29
-50 -250 -373 -257 -376 -4 -2 -8 -7 -8 -11 0 -6 -100 -158 -310 -471 -5 -8
-32 -48 -60 -88 -27 -41 -50 -77 -50 -82 0 -5 -3 -10 -7 -12 -11 -5 -193 -277
-193 -288 0 -6 -5 -10 -10 -10 -6 0 -14 -8 -18 -17 -7 -17 -62 -103 -72 -113
-5 -5 -74 -108 -95 -141 -42 -69 -109 -165 -116 -167 -5 -2 -9 -8 -9 -13 0
-11 -202 -313 -212 -317 -5 -2 -8 -8 -8 -12 0 -5 -18 -35 -40 -67 -22 -32 -46
-66 -53 -77 -6 -10 -24 -36 -39 -57 -16 -21 -28 -43 -28 -49 0 -5 -4 -10 -10
-10 -5 0 -10 -7 -10 -15 0 -8 -4 -15 -9 -15 -5 0 -13 -9 -16 -20 -3 -11 -12
-26 -18 -32 -20 -20 -97 -139 -97 -149 0 -5 -3 -9 -7 -9 -5 0 -26 -28 -48 -63
-22 -34 -43 -63 -47 -65 -5 -2 -8 -7 -8 -11 0 -11 -171 -266 -181 -269 -5 -2
-9 -8 -9 -14 0 -6 -20 -39 -45 -75 -25 -35 -45 -68 -45 -73 0 -4 -3 -10 -8
-12 -4 -1 -52 -70 -106 -153 -55 -82 -102 -152 -105 -155 -3 -3 -15 -20 -25
-39 -18 -32 -19 -63 -19 -607 0 -316 -3 -574 -6 -575 -3 0 -134 -2 -291 -3
-305 -2 -312 -3 -357 -55 -55 -63 -37 -179 36 -224 l36 -22 5002 0 c2752 0
5015 3 5030 7 95 25 136 164 70 239 -39 46 -64 53 -197 54 l-125 2 -2 419 c0
230 -2 431 -2 445 -1 27 2 26 -256 129 -11 4 -49 18 -85 30 -36 12 -74 26 -85
30 -19 8 -206 57 -249 66 -225 44 -262 48 -466 48 -146 1 -228 -4 -295 -17
-32 -7 -99 -20 -111 -23 -92 -19 -311 -100 -316 -117 -2 -7 -3 -236 -3 -509 1
-441 -1 -498 -15 -499 -43 -3 -266 -4 -275 -2 -7 2 -10 177 -9 501 0 273 -1
503 -4 510 -2 6 -10 12 -18 12 -8 0 -22 4 -32 10 -55 31 -393 129 -502 145
-49 8 -75 13 -75 15 0 0 -20 3 -45 5 -25 2 -72 7 -105 10 -85 8 -269 7 -340
-1 -33 -4 -70 -7 -82 -7 -13 -1 -23 -4 -23 -9 0 -4 -6 -5 -13 -2 -14 5 -118
-15 -227 -45 -25 -7 -52 -15 -60 -18 -8 -4 -18 -7 -22 -8 -5 -2 -10 -4 -13 -5
-3 -1 -8 -3 -12 -5 -5 -1 -15 -4 -23 -8 -8 -3 -37 -13 -65 -23 -41 -15 -104
-46 -124 -60 -2 -2 -3 -231 -3 -509 0 -278 -3 -505 -6 -506 -38 -6 -285 -2
-289 5 -3 4 -5 245 -5 534 l0 525 -161 239 c-89 132 -167 247 -172 256 -18 30
-270 407 -275 412 -3 3 -68 99 -145 215 -77 115 -144 214 -148 220 -4 5 -23
33 -41 60 -119 183 -381 571 -388 573 -4 2 -8 8 -8 12 0 8 -97 157 -110 170
-3 3 -30 43 -60 90 -30 47 -57 87 -60 90 -3 3 -21 30 -40 60 -19 30 -37 57
-40 60 -3 3 -46 66 -95 140 -49 74 -92 137 -96 140 -3 3 -8 10 -10 15 -5 13
-142 218 -150 225 -3 3 -8 10 -10 15 -8 21 -193 290 -201 293 -4 2 -8 8 -8 14
0 9 -78 127 -91 138 -12 10 0 41 33 88 l34 47 102 3 101 3 142 -213 c78 -117
145 -215 149 -218 3 -3 17 -24 30 -47 13 -24 27 -43 32 -43 4 0 8 -5 8 -10 0
-12 161 -253 173 -258 4 -2 7 -9 7 -16 0 -7 9 -21 20 -31 11 -10 20 -23 21
-29 0 -6 16 -31 34 -56 19 -25 42 -58 51 -75 9 -16 20 -32 24 -35 4 -3 16 -19
26 -37 11 -17 60 -91 109 -165 50 -73 92 -137 94 -143 2 -5 7 -12 11 -15 4 -3
125 -183 270 -400 145 -217 268 -396 272 -398 4 -2 8 -7 8 -12 0 -6 122 -194
147 -225 5 -5 28 -41 53 -80 25 -38 48 -74 53 -80 25 -32 127 -188 127 -195 0
-5 3 -10 8 -12 11 -5 112 -155 112 -166 0 -6 4 -12 8 -14 5 -1 64 -85 131
-186 l121 -182 38 19 c66 33 224 89 327 115 55 13 114 28 130 32 17 5 35 8 40
9 27 3 122 18 140 21 18 4 247 17 270 16 139 -7 236 -13 260 -16 63 -9 131
-19 150 -22 11 -3 36 -7 55 -10 19 -3 62 -12 95 -21 33 -8 67 -17 75 -18 8 -2
15 -4 15 -5 0 -1 13 -3 28 -5 l28 -4 -18 29 c-10 16 -58 89 -108 162 -49 73
-92 138 -94 143 -2 6 -7 12 -11 15 -3 3 -24 32 -45 65 -22 33 -43 62 -47 63
-5 2 -8 8 -8 13 0 8 -165 258 -190 286 -5 7 -10 14 -10 17 0 3 -31 50 -70 106
-38 56 -70 105 -70 110 0 4 -3 10 -7 12 -5 2 -53 71 -108 153 -54 83 -102 152
-105 155 -3 3 -9 13 -15 22 -14 24 -588 882 -595 888 -3 3 -9 13 -15 22 -5 10
-59 91 -120 180 -60 90 -112 167 -114 173 -2 5 -7 12 -10 15 -6 4 -376 556
-395 588 -6 9 31 12 172 12 l180 0 208 -310 c115 -171 216 -322 224 -335 8
-13 83 -123 165 -244 83 -122 157 -233 165 -249 8 -15 18 -29 21 -32 3 -3 70
-102 149 -220 79 -118 147 -216 152 -218 4 -2 8 -8 8 -14 0 -8 44 -78 72 -113
4 -5 41 -59 81 -120 205 -308 442 -661 448 -665 3 -3 8 -10 10 -15 8 -21 313
-470 321 -473 4 -2 8 -8 8 -14 0 -9 56 -96 69 -108 3 -3 12 -17 20 -32 8 -16
18 -28 23 -28 4 0 8 -4 8 -9 0 -12 76 -127 89 -135 5 -3 59 12 120 34 61 22
111 38 111 35 0 -2 19 3 42 11 23 8 55 17 72 20 17 3 47 9 66 14 36 9 102 20
155 26 17 1 50 6 75 9 55 7 353 9 395 2 17 -3 59 -9 95 -12 36 -4 74 -9 85
-12 11 -2 36 -6 55 -9 50 -6 234 -51 310 -75 36 -11 72 -22 80 -24 20 -5 130
-44 155 -55 11 -5 37 -16 58 -24 l38 -15 -19 27 c-10 15 -40 61 -68 102 -27
41 -51 77 -54 80 -6 6 -441 654 -455 679 -5 9 -28 43 -50 75 -22 32 -45 65
-50 75 -25 40 -51 77 -62 89 -7 7 -13 17 -13 21 0 4 -11 21 -25 37 -14 16 -25
34 -25 41 0 6 -3 13 -7 15 -5 2 -62 84 -127 183 -66 99 -124 182 -128 183 -4
2 -8 7 -8 12 0 4 -46 75 -101 156 -56 82 -104 156 -107 164 -3 8 -9 17 -12 20
-4 3 -103 149 -221 325 -118 176 -218 324 -222 330 -28 36 -227 338 -227 345
0 5 -3 10 -7 12 -10 4 -73 94 -73 103 0 3 -6 12 -12 19 -7 8 -19 22 -25 32 -7
11 -74 111 -149 224 -200 300 -219 325 -258 344 -31 15 -203 16 -2043 15
-1263 0 -2017 -4 -2032 -10z m79 -2646 c12 -38 23 -72 24 -78 1 -5 10 -37 20
-70 10 -33 19 -64 21 -70 1 -5 5 -17 8 -25 3 -8 38 -112 76 -230 39 -118 75
-224 80 -235 5 -11 19 -47 31 -80 11 -33 24 -69 29 -80 5 -11 28 -69 52 -130
23 -60 46 -115 51 -121 5 -7 10 -20 13 -30 3 -19 84 -204 111 -256 8 -15 15
-31 15 -35 3 -20 204 -395 253 -473 13 -19 47 -73 77 -120 30 -47 62 -94 72
-105 10 -11 25 -32 33 -47 8 -16 19 -28 24 -28 6 0 10 -6 10 -13 0 -8 9 -22
20 -32 11 -10 20 -21 20 -24 0 -5 -2087 -7 -2125 -2 -6 1 -6 4 0 9 21 14 235
313 235 327 0 3 16 29 35 59 19 30 35 59 35 65 0 5 6 16 13 23 35 37 215 404
312 633 55 131 58 138 61 150 2 6 19 49 38 97 20 48 36 94 36 102 0 8 3 16 8
18 12 5 166 461 248 733 20 68 18 60 28 103 4 17 9 32 11 32 2 0 13 -30 25
-67z m-391 -115 c-10 -34 -21 -69 -25 -77 -4 -9 -8 -20 -9 -26 -19 -77 -205
-602 -246 -692 -10 -23 -19 -45 -19 -48 0 -3 -9 -25 -19 -48 -10 -23 -31 -70
-45 -105 -70 -166 -252 -531 -290 -582 -7 -8 -23 -35 -36 -60 -13 -25 -28 -49
-32 -55 -5 -5 -23 -32 -41 -60 -64 -100 -153 -215 -239 -309 -30 -34 -27 -36
-103 64 -27 36 -52 67 -55 70 -3 3 -17 21 -30 40 -13 19 -27 37 -30 40 -3 3
-21 25 -40 50 -19 25 -41 51 -48 59 -7 7 -10 22 -7 32 5 15 237 331 282 384 5
6 43 55 83 110 41 55 78 102 83 103 4 2 7 8 7 13 0 5 8 17 18 27 27 30 52 62
52 68 0 8 73 98 83 102 4 2 7 8 7 13 0 5 7 17 16 27 8 9 59 76 113 147 53 72
180 240 281 373 102 134 190 251 195 260 15 24 23 35 51 65 13 16 32 40 41 53
8 13 17 24 18 24 2 0 -5 -28 -16 -62z"/>
</g>
</svg>
