<svg clip-rule="evenodd" fill-rule="evenodd" stroke-linejoin="round" stroke-miterlimit="2" viewBox="0 0 2713 2425" xmlns="http://www.w3.org/2000/svg"><g transform="matrix(1.03181 0 0 1.03158 -.001117 394.14)"><path d="m2324.59 1095.42c30.68 68.85 52.28 138.2 64.33 206.59 2.59 97.76-.75 171.98-25.32 239.62-35.77 78.08-72.77 158.82-130.15 224.47-.64.73-.99 1.67-.99 2.64 0 1.25.58 2.43 1.58 3.19 30.57 23.12 66.13 41.55 100.52 59.36 7.53 3.91 15.63 7.85 24.21 12.02 27.47 13.36 58.61 28.51 71.77 43.69 13.69 15.77 12.89 29.94 8.06 37.29-12.9 19.58-73.54 10.27-117.82 3.48-21.97-3.37-50.57-5.24-52.39-5.36-2.15-.23-45.08-4.7-71.2-5.16-47.26-.83-96.14-1.69-109.79-23.56-5.66-9.07-3.24-20.91 3.2-39.59 1.82-5.3 3.53-10.38 5.18-15.3 5.51-16.43 10.27-30.62 17.25-46.34 2.35-5.28 4.77-10.74 7.24-16.5.31-.73.4-1.54.25-2.33-6.22-32.51 1.63-65.23 9.24-96.88 3.19-11.63 6.98-24.71 10.98-38.56l.07-.24c19.72-68.2 46.74-161.61 51.07-243.35 2.64-49.86-2.97-90.09-16.66-119.57-14.54-31.27-38.16-50.66-70.24-57.63-41.41-9-76.65 5.45-107.71 44.18-26.24 32.71-44.97 76.97-61.49 116.02l-2.22 5.24c-3.89 9.17-7.56 17.82-11.22 26.08-22.37 47.03-41.97 94.4-60.94 140.23-42.29 102.22-83 183.76-124.44 249.31-11.24 17.78-12.68 50.56-12.6 80.28.08 31.8.18 67.84-10.74 79.13-2.28 2.36-10.47 6.35-39.7 6.64-18.53.18-38.81-1.13-56.26-2.44-14.22-1.07-28.92-2.18-43.95-2.4h-.37l-.01-.01c-18.23 0-36.45.77-54.17 1.52-23.95 1.02-48.71 2.07-73.8 1.14h-.19c-14.82-.56-28.4-1.75-41.48-3.63-6.11-2.37-12.8-8.67-17.85-16.06h-397.543l-956.293-8.9-15.568-18.9-8.895-1114.193 177.775-2.027s1.113 5.919 7.229 5.224c4.698-.534 6.671-5.383 6.671-5.383l174.646-1.991s1.809 5.066 8.203 5.205 7.786-5.026 7.786-5.026l104.166 9.452-10.923-142.485s8.525-.027 9.359-7.667c.834-7.641-5.553-9.862-5.553-9.862l2.123-249.514-80.06-134.118-6.116-139.414 205.256 3.837s-.801 3.947 6.018 4.642 8.947-4.362 8.947-4.362l134.773 2.52s1.112 6.845 8.34 6.845 8.809-6.525 8.809-6.525l200.802 3.755s.68 6.149 9.447 7.774c8.999 1.668 9.452-3.614 9.452-3.614l141.889 1.128s.44 4.154 5.59 5.544c5.14 1.39 5.7-5.463 5.7-5.463l199.04 1.571v108.417l-100.08 166.795 4.02 242.407s-4.99 5.562-4.16 11.261c.84 5.699 4.45 6.337 4.45 6.337l.14 7.98 80.06 3.336v124.541l8.82.173s.07 3.441 6.47 4.275c5.22.681 5.11-4.047 5.11-4.047l104.47 2.052c-22.99-16.883-41.18-41.944-53.5-74.039-28.32-103.553 10.51-205.287 52.29-291.171 5.08-8.484 3.98-50.519-5.5-57.88-1.64-1.278-6.04-3.579-11.29 2.639-.04.047-.07.096-.11.145-4.79 6.24-8.74 11.583-12.22 16.296l-.07.085c-9.43 12.758-14.63 19.786-18.71 20.301-3.61.455-8.78-3.774-18.18-11.444-4.58-3.739-10.27-8.385-17.38-13.751-2.48-2.221-6.43-6.541-5.99-11.215.31-3.292 2.84-6.389 7.53-9.202.24-.143.46-.31.66-.499 12.21-11.333 20.79-18.487 27.05-23.712 10.63-8.871 14.48-17.916 11.42-26.884-.38-1.135-.84-2.365-1.35-3.717-2.29-6.092-5.42-14.434-6.55-27.771-.5-5.839 2.83-7.521 11.15-10.228l.45-.149c5.82-1.897 12.41-4.047 16.54-10.132.23-.351.41-.738.53-1.146 3.67-12.822 10.73-17.29 27.97-17.707 1.72-.041 3.23-1.194 3.73-2.845 2.79-9.279 6.25-14.742 10.88-17.194 4.09-2.169 9.55-2.136 16.67.1 1.45.453 3.03.048 4.08-1.043 3.48-3.625 5.17-7.532 5.01-11.608-.34-8.857-9.03-16.282-18.23-24.143-6.8-5.812-12.97-12.781-16.91-19.119-9.04-14.538-1.42-23.834 11.77-37.799 2.94-3.111 7.16-8.118 9.82-11.324 2.41 2.046 4.38 4.103 4.67 4.957.87 4.656-4.8 11.246-10.29 17.619-2.82 3.266-7.88 9.791-8.09 10.067-1.33 1.717-1.04 4.221.66 5.579.07.057 7.26 5.836 11.28 10.154 8.18 8.782 17.44 18.735 26.34 14.455.51-.243.95-.59 1.32-1.017 97.88-115.469 186.11-240.668 268.07-358.975 27.41-38.691 76.86-91.189 132.29-140.433 49.3-43.8 93.49-76.045 107.46-78.414 1.5-.255 2.01-.042 2.01-.042.06.039.11.077.17.113l.83.53c.52.332 1.12.717 1.55 1.021-.75 1.393-2.97 4.141-4.21 5.687-25.26 30.519-43.03 60.949-63.64 97.559-.03.059-.06.119-.09.18-39.7 79.793-96.2 147.896-150.85 213.768-38.93 46.93-79.2 95.458-113.85 148.515-36.75 48.635-63.12 81.622-82.4 105.746-30.65 38.339-39.91 49.91-38.73 59.469.72 5.939 5.56 9.632 12.26 14.747 3.82 2.916 8.58 6.546 13.82 11.501 1.55 1.462 4.01 1.441 5.53-.047 1.42-1.385 2.86-3.267 4.53-5.464 3.72-4.89 8.31-10.923 13.88-12.47 3.33 1.112 7.02 3.418 7.93 6.22.6 1.85-.06 4.051-1.96 6.544-4.52 3.7-8 9.865-11.38 15.833l-.46.824c-5.33 9.451-9.54 16.108-14.73 15.331-8.02-4.04-14.8-9.903-21.98-16.123-5.48-4.743-11.14-9.649-17.81-14.162-.66-.446-1.44-.684-2.24-.684-2.19 0-3.99 1.808-3.99 4.004 0 .244.02.487.06.727 4.82 25.953 6.2 53.169 7.55 79.528 1.01 19.951 2.06 40.581 4.61 61.028 1.31 10.552 4.14 38.921 3.69 44.238-1.54 18.257-5.78 36.325-9.89 53.805-7.63 32.506-15.53 66.122-6.36 101.102 3.52 15.236 9.52 24.252 18.34 27.561 2.46.923 5.04 1.342 7.71 1.342 14.63-.002 32.01-12.615 47.64-23.958 7.24-5.257 14.08-10.222 20.13-13.625.24-.135.47-.295.68-.477 7.04-6.167 16.04-11.823 24.75-17.301 20.96-13.171 42.63-26.791 35.1-49.759-19.62-59.827-.24-93.099 18.51-125.277 1.11-1.912 2.22-3.821 3.33-5.731 7.91-13.711 16.09-27.886 22.76-44.812 14.72-32.803 11.57-62.304 7.93-96.46-.65-6.066-1.32-12.338-1.88-18.704-2.79-44.689 6.6-83.255 27.92-114.63 20.2-29.726 50.09-51.718 88.86-65.367 50.58-17.89 96.97-18.417 127.27-1.448 20.22 11.331 33.33 30.309 38.96 56.412.51 4.062.96 7.729 1.36 11.095l.05.364c3.15 26.109 16.44 48.871 39.48 67.65.05.038.1.076.15.112.9.671 1.96 1.532 2.16 1.743 5.7 6.911 2.53 12.061-6.06 22.162l-1.02 1.195c-.88 1.044-1.89 2.097-2.97 3.211-3.75 3.896-8.01 8.314-8.95 14.783-1.24 8.466 2.5 16.246 5.81 23.11 1.05 2.188 2.04 4.255 2.87 6.291 8.02 19.792 13.16 38.978-11.61 56.151-1.4.967-5.64 2.628-9.06 3.962-7.63 2.987-10.21 4.118-11.49 6.079-1.33 2.025-1.67 4.611-1.02 7.69.03.126.06.251.1.374 4.83 15.346 8.02 22.632 14.12 25.24 5.9 2.52 12.71.059 26.65-6.824 49.08-15.286 121.86-16.695 189.27-1.975 26.41-18.6 50.74-39.713 71.61-64.29 4.29-5.052 8.68-9.996 11.07-10.13 2.34-.137 6.83 4.097 13.04 9.947l.15.135c9.54 8.989 18.57 17.81 27.29 26.341 40.82 39.903 76.07 74.366 141.92 105.755 7.43 3.547 14.8 6.225 21.92 8.814 7.72 2.808 15.01 5.461 22.52 9.162 1.53.754 3.21 2.575 3.53 3.82 33.13 131.138 43.38 213.083 36.55 292.269-4.07 47.125-12.33 101.597-42.84 148.315-54.72 83.823-119.08 146.079-196.74 190.339-2.87 1.63-5.8 3.58-8.63 5.45-5.58 3.71-11.34 7.54-16.91 9.21-5.69 1.7-13.5.19-17.76-2.25-5.09-2.91-10.2-5.81-15.31-8.72zm-711.21-278.148 116.04 2.269-2.22 368.059-3.43 116.39c.12-.34.25-.68.37-1.02.02-.08.05-.16.07-.23 22.48-77.07 55.11-157.56 83.9-228.59 42.92-105.896 73.98-182.51 58.07-207.955-16.23-38.561-23.89-76.541-32-116.744-1.61-7.978-3.27-16.227-4.99-24.405-1.24-5.884-6.04-10.413-11.94-11.268-30.97-4.487-102.76 41.584-150.27 72.078-19.77 12.685-36.84 23.641-42.26 25.232-.32.092-.62.224-.91.391-3.47 2.044-6.95 3.976-10.43 5.793z" fill="#fff"/><path d="m757.793 1950.51c-252.214-1.83-467.002-3.62-514.467-4.65-66.583-1.45-133.145-3.99-199.7-6.48-12.802-.48-27.581 1.3-33.485-15.11-1.472-4.09-2.971-8.47-3.006-12.73-2.396-290.41-4.754-548.81-6.823-839.22-.483-67.88-.421-167.782.311-235.664.419-38.925 2.869-87.825 4.023-126.748.35-11.805-.619-23.646-.904-35.472-.292-12.11 7.832-16.891 17.774-17.003 43.073-.488 86.156-.137 129.235-.175 4.811-.004 9.71-.06 14.414-.928 9.209-1.699 14.952 2.251 16.049 10.896 2.051 16.163 4.039 32.454 4.208 48.711.448 43.09-.102 96.19-.222 139.286-.048 17.096-.008 66.192-.008 85.242l-153.319 3.179c-1.43 2.183-2.116 2.756-2.171 3.383-1.897 21.6-1.897 14.23 19.27 14.528 101.216 1.426 202.436 2.49 303.654 3.661 15.458.179 15.391.128 15.81 15.984 1.535 58.06 3.125 124.11 4.67 182.17.034 1.32.051 2.64.051 3.96.009 5.07-4.035 9.2-9.098 9.27-108.463 1.43-224.262 2.85-333.272 4.29-2.452.03-4.12 2.48-3.259 4.78l.019.05c.476 1.28 1.689 2.14 3.052 2.17 51.852 1.24 111.06 2.46 161.184 3.66 4.643.11 8.393 3.82 8.576 8.46l8.397 213.9c.19 4.84-3.577 8.93-8.416 9.13-52.341 2.19-100.521 4.23-161.559 5.62-16.771.39-12.748 11.37-8.442 11.67 26.334 1.88 72.219 3.2 98.603 3.45 77.406.73 154.82-6.33 232.231-6.07 4.403.01 14.711.07 14.473 9-.229 8.59-2.728 144.51-4.245 221.29-.094 4.93-4.161 8.95-9.1 8.99-38.699.28-192.551 1.48-271.155 2.27-10.768.11-36.146 1.84-46.919 2.3-8.934.38-17.223-1.56-17.223 5.88 0 7.78 3.166 7.67 13.624 7.97 34.211 1 101.267 1.73 135.476 2.79 1.172.04 2.344.08 3.516.14 5.823.28 10.407 5.08 10.415 10.91.001 1.33.009 2.66.023 3.99.798 71.47 1.759 123.94 2.234 195.41.062 9.55 3.107 13.98 12.729 13.56 9.319-.41 9.783-5.97 9.76-13.76-.177-59.51.159-100.02.313-159.54.032-12.57.018-25.15.01-38.38-.004-6.04 4.877-10.94 10.908-10.95l238.286-.6c-.149-7.44-.125-14.74.058-21.9h-61.408c-5.045 0-9.196-4.16-9.196-9.2v-219.91c0-5.14 4.218-9.28 9.363-9.18 20.424.39 76.889.77 140.165 1.15 3.901-4.98 7.269-8.87 9.869-11.67 1.404-1.51 2.798-3 4.182-4.48h-328.103c-4.797 0-8.745-3.95-8.745-8.75v-213.29c0-4.8 3.948-8.74 8.745-8.74h365.952c5.648 0 10.213 4.6 10.162 10.25-.259 28.41-.938 110.13-.776 171.36 5.605-5.66 10.936-10.97 15.982-15.94-.73-54.38-1.866-127.32-3.015-155.08-.239-5.77 4.381-10.57 10.157-10.57h1.255c37.923.01 138.812-.08 221.562-.03 6.564-5.45 13.26-10.81 20.054-16.05-34.231-.01-62.419-.02-76.161-.03-5.018 0-9.19-4.03-9.363-9.05-2.208-63.65-4.385-132.48-6.588-196.026-.184-5.3 4.063-9.694 9.367-9.694h327.784c5.24 0 9.56 4.318 9.56 9.566v195.644c0 5.25-4.22 9.51-9.46 9.57-2.55.03-25.08.05-57.28.05-.7 4.81-1.39 9.76-2.07 14.79h274.34c5.67 0 10.29 4.54 10.39 10.2l4.01 211.11c.12 6.09-4.79 11.09-10.88 11.09h-279.6c1.09 6.32 2.23 12.1 3.39 17.09 33.62.09 60.06.28 70.56.63 5.26.03 4.88 46.96 3.01 98.82 5.03-4.9 10.26-11.44 15.36-18.47.41-31.59.75-59.42.87-73.14.04-4.24 3.54-7.71 7.78-7.71h375.24c5.08 0 9.19 4.13 9.16 9.21-.19 38.04-1.81 182.48-2.37 220.49-.07 5.01-4.25 9.08-9.27 9.03l-227.16-2.57c1.27 6.41 2.27 12.85 2.98 19.31l30.23-.07c7.72-.02 14.01 6.16 14.12 13.87.58 40.17 3.09 146.23 9.17 197.39.85 7.12 2.7 12.12 11.3 11.87 1.97-.06 3.56-.39 4.83-.93.34-4.61 1.99-8.59 4.91-11.76v-.3c-.77-27.33-4.97-151.56-6.71-195.01-.33-8.1 6.23-14.8 14.34-14.63 38.11.77 140.67 2.89 218.27 4.11.87-6.54 1.82-13.08 2.84-19.61-13.01-.11-25.69-.23-37.44-.35h-.1c-4.84-.05-8.84-3.98-8.98-8.82-2.05-70.76-4.08-150.45-6.13-221.41-.15-5.24 4.12-9.54 9.37-9.42l105.64 2.22c2.36-6.96 4.75-13.91 7.15-20.84-47.48.85-94.98 1.03-142.47 1.2-52.85.18-105.69.04-158.53.04h-.1c-5.53 0-10.2-4.14-10.82-9.64-8.08-71.57.55-141.7 1.76-213.13.09-5.66 4.72-10.19 10.38-10.19h332.04c3.1 0 5.76-2.3 6.21-5.36l.01-.08c.55-3.76-2.36-7.13-6.16-7.13h-140.14c-5.24 0-9.49-4.27-9.45-9.51.48-65.91-5.07-136.82-4.38-203.055.04-3.512 2.91-6.332 6.42-6.332h147.55c9.64 0 11.53-6.953 7.23-9.952-1-.692-2.2-1.012-3.41-1.06-3.9-.156-8.31-.3-10.59-.331-44.66-.607-89.31-1.383-133.97-1.558-8.12-.032-10.88-2.643-11.74-10.546-1.27-11.693-3.52-50.832-5.81-94.913-3.83.476-7.63.808-11.41.996v93.799c0 5.049-4.16 9.204-9.21 9.204h-164.42c-4.87 0-8.9-3.81-9.19-8.679-1.73-29.986-3.44-91.609-5.21-122.338-.31-5.365 4.03-9.855 9.4-9.734 24.22.545 51.9 1.089 79.78 1.632-17.51-16.586-31.65-38.484-41.83-65.074-28.79-104.99 10.43-207.718 52.59-294.37 4.18-5.902 3.1-46.905-4.45-52.767-.6-.47-2.44-1.9-5.78 2.06-4.79 6.25-8.75 11.602-12.24 16.324-10.75 14.53-15.65 21.161-21.44 21.89-5.3.663-10.61-3.672-21.19-12.313-4.6-3.75-10.32-8.416-17.39-13.755-3.07-2.718-8.05-8.186-7.44-14.688.44-4.632 3.62-8.757 9.46-12.262 12.26-11.388 20.9-18.592 27.2-23.853 9.28-7.738 12.68-15.243 10.2-22.516-2.14-6.282-6.68-15.608-8.1-32.441-.84-9.784 6.93-12.103 14.35-14.522 5.46-1.782 11.11-3.624 14.46-8.575 4.16-14.529 12.79-20.15 31.71-20.607 3.12-10.367 7.21-16.594 12.84-19.576 5.09-2.692 11.55-2.752 19.74-.181 2.74-2.849 4.02-5.69 3.9-8.676-.28-7.105-8.32-13.979-16.84-21.255-7.44-6.362-13.71-13.632-17.7-20.047-10.78-17.33-.73-28.911 12.26-42.665 4.45-4.711 12.12-14.132 12.12-14.132s8.53 6.146 9.2 9.78c1.23 6.549-4.81 13.554-11.2 20.969-2.78 3.224-7.96 9.907-7.96 9.907s7.44 5.961 11.72 10.549c7.23 7.776 15.44 16.582 21.68 13.576 97.76-115.314 185.93-240.434 267.87-358.699 62-87.541 211.6-215.264 242.34-220.477 2.22-.377 3.85-.168 4.99.643l.82.524c2.02 1.287 3.36 2.138 3.6 3.58.3 1.846-1.39 4.179-5.32 9.06-25.05 30.267-42.73 60.538-63.24 96.97-39.9 80.207-96.55 148.493-151.34 214.531-38.89 46.88-79.11 95.355-113.66 148.27-36.84 48.766-63.26 81.812-82.55 105.941-28.27 35.365-38.85 48.597-37.89 56.484.53 4.267 4.58 7.363 10.72 12.051 3.91 2.983 8.75 6.674 14.14 11.772 1.22-1.184 2.58-2.981 4.14-5.024 4.3-5.644 9.64-12.668 17.03-14.149l.17-.035.17.049c4.31 1.219 9.89 4.326 11.42 9.077 1.06 3.269.1 6.815-2.84 10.538l-.12.125c-4.06 3.178-7.43 9.145-10.7 14.918-5.31 9.4-10.92 19.875-19.79 18.048-.06-.012-.24-.071-.24-.071-8.67-4.277-15.74-10.403-23.23-16.888-5.4-4.675-10.97-9.495-17.44-13.873 4.87 26.225 6.26 53.575 7.61 80.047 1.02 19.983 2.06 40.44 4.59 60.744 1.09 8.841 4.23 38.886 3.7 45.069-1.55 18.55-5.82 36.69-9.97 54.379-7.53 32.052-15.32 65.195-6.37 99.235 3.19 13.869 8.38 21.964 15.86 24.77 13.94 5.23 33.94-9.292 51.59-22.103 7.34-5.329 14.27-10.363 20.53-13.879 7.28-6.38 16.42-12.124 25.26-17.679 21.17-13.307 39.89-25.406 33.42-45.12-21.34-65.091 2.04-99.344 22.18-134.26 7.85-13.609 15.97-27.679 22.54-44.368 14.32-31.847 11.23-60.869 7.64-94.476-.65-6.102-1.32-12.41-1.89-18.827-2.86-45.626 6.76-85.044 28.6-117.183 20.69-30.448 51.25-52.953 90.83-66.889 51.67-18.273 99.26-18.697 130.55-1.166 21.31 11.939 35.09 31.865 40.95 59.226.55 4.287 1.01 8.134 1.44 11.654 3.04 25.164 15.72 46.84 38.04 65.027 0 0 2.27 1.688 2.87 2.411 8.82 10.705.31 19.716-7.12 28.493-4.03 4.761-10.02 9.149-11.02 15.985-1.41 9.647 4.92 18.639 8.43 27.319 8.34 20.583 13.79 42.352-13.04 60.946-3.8 2.634-18.18 6.956-19.48 8.943-.73 1.114-.88 2.641-.45 4.666 4.35 13.823 7.25 20.784 11.88 22.763 4.45 1.903 10.88-.581 23.6-6.869 49.19-15.414 122.03-17.079 189.88-2.553 25.56-18.15 49.17-38.728 69.43-62.586 13.57-15.982 14.86-14.674 30.05-.372 53.24 50.131 88.64 93.475 168.18 131.397 15.02 7.158 29.57 10.641 44.5 17.999 2.39 1.182 4.98 3.855 5.64 6.433 33.05 130.839 43.6 213.099 36.66 293.595-4.51 52.197-13.88 104.842-43.48 150.163-51.44 78.8-115.76 144.698-198.12 191.628-8.39 4.78-17.23 12.28-26.37 15.02-6.57 1.97-15.46.5-20.89-2.61-1.6-.92-3.21-1.83-4.81-2.75 28.28 65.6 48.36 131.6 59.81 196.74 2.47 92.73-.05 171.23-25.59 241.49-.01.04-.03.07-.04.11-35.98 78.53-73.34 159.77-130.83 225.53 30.29 22.92 65.7 41.26 99.95 59 32.79 16.99 79.4 36.17 97.16 56.63 14.44 16.65 14.45 32.9 8.37 42.12-14.3 21.72-73.88 12.58-121.75 5.24-22.68-3.48-52.13-5.33-52.13-5.33s-44.14-4.67-70.93-5.14c-48.33-.86-98.31-1.74-113.11-25.45-6.62-10.61-3.78-23.91 2.81-43.01 7.83-22.73 13.37-41.26 22.54-61.91 2.34-5.29 4.77-10.75 7.23-16.5-6.38-33.38 1.59-66.55 9.3-98.64 3.22-11.74 7.04-24.94 11.08-38.91 19.67-68.02 46.61-161.17 50.92-242.45 5.12-96.73-20.66-159.37-83.75-173.08-91.65-19.91-134.01 85.47-166.85 162.97-3.92 9.24-7.62 17.97-11.32 26.31-22.34 46.96-41.93 94.31-60.88 140.1-39.15 94.61-80.61 180.09-124.75 249.91-10.25 16.2-12.06 47.12-11.98 78.13.09 36.04-.12 69.78-11.87 81.93-11.12 11.5-69.26 7.65-99.08 5.4-14.18-1.07-28.83-2.17-43.71-2.39-18.3-.01-36.64.77-54.37 1.52-24.17 1.03-48.87 2.07-74.12 1.14-13.97-.52-28.12-1.64-42.44-3.72l-.15-.03c-3.89-1.44-7.95-4.23-11.75-7.84-118.55-.74-256.84-1.63-395.741-2.57-52.936 3.86-93.778 3.66-108.643 4.02-48.875 1.19-91.749-1.17-128.693-5.68zm-184.433-66.11c1.383 22.73 3.515 38.58 6.778 39.66 5.054 1.67 12.227-1.74 13.185-7.49.483-2.89.81-8.39 1.017-15.79-7.402-5.46-14.387-10.93-20.98-16.38zm1160.57-626.21c21.02-63.52 47.02-127.66 70.47-185.53 41.02-101.188 73.42-181.117 58.26-204.543 0 0-.05-.114-.07-.153-19.79-46.936-27.15-93.799-37.31-142.083-.9-4.241-4.32-7.511-8.6-8.132-17.07-2.474-48.65 12.131-80.98 30.501 1.16 58.444 1.82 133.817 1.79 179.256-.05 74.524-1.11 157.044-2.06 247.564-.29 27.71-.89 55.42-1.5 83.12zm522.46-880.391c-56.2-12.193-116.13-15.156-156.16-5.53-3.17 1.044-6.08 1.996-8.71 2.856-16.28 5.314-25.61 10.805-28.01 16.474-1.98 4.701-4.38 12.241-13.22 23.878-.02.032-.1.12-.1.12-22.38 21.307-61.95 45.604-99.98 44.195l-.45-.017c-19.76-.837-36.34-8.551-49.29-22.933-49.74 25.683-87.5 53.889-115.41 86.219-49.92 49.013-100.31 85.547-166.04 131.814-17.68 9.589-36.3 8.191-52.51-3.896-23.5-17.529-36.63-52.787-30.54-82.015 1.95-13.108 4.71-27.79 7.62-43.333 9.86-52.558 21.03-112.13 1.98-122.19-12.41-6.548-37.36 8.842-74.18 45.75-30.69 37.417-52.99 102.725-59.59 174.644-6.33 68.978 3.01 129.738 24.37 158.565 63.94 93.151 159.38 30.954 243.59-23.924 55.67-36.278 108.25-70.542 141.75-51 17.98 8.608 20.73 20.875 24.22 36.405 1.22 5.433 2.61 11.593 4.78 18.145 2.26 7.221 4.5 14.449 6.72 21.682 9.74 31.634 18.93 61.516 32.89 94.379v.003c34.98 34.876 95.24 40.754 146.73 22.614v-.001c25.72-9.062 47.11-20.336 64.94-33.448-6.69-20.205-11.63-41.27-14.8-63.155-3.06-21.023-6.56-42.067-7.92-63.225-1.37-21.159-.3-42.475-.3-63.72 2.36-66.07 20.03-206.43 20.59-209.442 2.4-13.039 15.34-17.614 27.08-22.718 43.88-19.074 88.94-40.397 129.95-67.196zm99.96-55.976c-3.07 4.105-52.87 51.741-88.34 77.641-39.86 29.106-82.71 50.385-130.1 67.207-8.92 3.165-12.26 7.992-13.59 16.736-1.43 9.453-2.17 19.177-3.49 28.762-9.17 66.788-15.03 128.859-15.76 196.579 0 147.475 56.65 228.39 87.7 262.676 43.62 48.156 95.65 83.046 151.47 115.126 5.96 3.43 13.71 3.17 16.7 1.12 10.37-7.12 60.77-41.19 75.24-51.21 31.23-21.63 111.43-106.621 124.12-122.68 16.42-20.765 59.11-94.321 55.63-218.815-2.14-76.598-11.51-141.466-35.96-213.034-2.47-7.219-5.67-10.056-11.48-12.454-12.34-5.095-24.94-9.693-36.91-15.556-66.7-32.661-122.62-79.811-175.23-132.098zm7.79 54.246c18.6 22.359 93.83 93.843 168.44 120.426 7.58 2.535 13.11-.242 16.16 15.914 7.04 37.341 14.54 215.244 9.1 248.284-25.51 154.855-161.05 245.597-206.1 269.447-4.6 2.43-13.19 2.35-17.41-.42-19.86-13.02-39.76-26.3-57.96-41.508-36.41-30.435-71.13-63.325-95.11-104.522-12.48-21.42-19.38-46.77-25.2-71.207-5.56-23.393-7.69-47.825-9.18-71.934-4.66-75.394-1.67-150.594 7.82-225.563 1.1-8.731 4.27-12.09 12.86-14.794 64.32-20.235 159.55-91.31 184.84-123.922 2.95-3.806 8.65-3.902 11.74-.201zm172.58 210.624s-106.54 85.042-146.01 120.249c-62.49 55.741-134.68 114.285-191.42 176.576 0 0 5.88 6.531 13.39 15.461 37.44 44.518 81.2 81.902 127.85 116.231 6.05 4.45 9.3 1.31 13.33-2.22 40.15-21.936 70.63-49.273 97.5-76.554 22.01-22.347 87.64-112.519 87.92-217.239.06-20.805-2.56-132.504-2.56-132.504zm-368.21 196.369c104.18-96.188 210.89-194.76 313.46-289.46-85.98-58.487-123.26-103.277-123.26-103.277s-58.23 53.607-83.74 73.198c-48.97 37.599-103.96 54.17-103.96 54.17s-15.12 121.849-2.5 265.369zm367.58-217.882c0-23.952-4.6-49.298-4.6-49.298-12.52 0-30.05-10.026-30.05-10.026l-330.33 291.607c.91 12.25 4.53 32.024 19.55 66.838 0 0 113.57-104.853 160.99-148.453 57.29-52.686 180.51-144.615 184.44-150.668zm-1019.46-358.467 38.77 33.162c25.03-32.528 50.34-65.88 74.83-98.145 79.03-104.124 160.74-211.795 248.4-312.604 21.62-27.285 39.02-57.686 55.85-87.087 15.15-26.475 30.8-53.811 49.78-79.483-110.93 70.929-188.92 177.867-250.66 273.334-9.21 12.242-18.29 24.376-27.33 36.443-61.24 81.796-119.09 159.066-189.64 234.38zm361.84 47.146v-.001c-11.93 5.099-16.4 7.007-13.47 18.321 1.08 9.405 9.71 10.731 18.05 12.011 4.93.757 10.11 1.336 12.55 3.962 2.44 2.627 9.73 36.458 14.16 59.97 7.3 38.785 14.84 78.889 29.04 88.222 2.75 1.807 5.56 2.236 8.67 1.646 56.3-10.707 70.09-19.766 74.35-22.224 8.96-5.167 17.43-10.05 23-18.734-1.47-5.834-4.45-12.097-7.59-18.722-5.83-12.275-11.86-24.969-7.93-35.251 2.15-5.624 7-9.948 14.82-13.221 28.82-17.989 23.32-33.1 16.96-50.598-5.53-15.181-8.69-29.907 7.18-52.958 1.22-1.763 5.18-9.426-.2-15.259-29.96-32.493-39.35-44.411-41.44-66.498-1.41-14.927-2.87-30.353-15.45-47.675-60.9 126.322-109.37 147.039-132.7 157.009zm459.98 1596.711c-38.77-20.41-72.22-43.07-111.72-75.71-43.49 19.22-66.44 15.73-80.18 13.65-14.12-2.14-29.36 28.91-45.72 93.16l-.64 2.5c-.3 3.23.22 5.58 1.61 7.08 2.54 2.72 7.96 2.58 14.23 2.4 4.08-.11 8.7-.23 13.16.45 8.22.04 16.44.21 24.65.52 39.68 1.47 78.73 5.83 116.7 10.07 50.1 5.59 101.9 11.38 154.08 10.28 4.63-.99 7.19-2.56 7.48-4.67 1.23-9.19-35.54-28.06-62.38-41.84-15.94-8.17-28.56-14.66-31.27-17.89zm-916.8-1554.308s29.75 60.7 54.86 65.338c-4.52-30.445-36.39-63.78-54.43-68.808-2.77-.771-6.48-1.167-8.46 1.33-2.39 3.01-4 12.406 11.74 41.546 3.51-3.957 2.57-10.465-1.55-16.944-5.47-8.613-13.08-14.967-2.16-22.462zm138.08 102.059c-3.11-37.945-6.06-73.813-16.39-110.36-12.93 10.971-11.45 16.826-9.75 23.581 1.65 6.535 1.46 15.325-7.8 29.726-5.21 8.11-11.4 6.697-18.59 7.569-7.98.968-16.24 1.97-21.18 13.171-3.12 5.42-8.76 6.085-14.21 6.727-6.35.748-12.34 1.455-15.39 8.672v.003c.82 16.634 3.53 35.589 8.27 57.898 1.66-1.534 3.31-3.074 4.95-4.62 23.57-22.09 59.01-55.308 90.44-28.156zm-81.67-154.473c-13.44 11.46-8.44 18.524-.21 30.148 1.98 2.794 4.22 5.962 6.32 9.422 7.13 8.02 9.46 18.198 11.71 28.038 2.81 12.268 5.46 23.865 17.56 29.354 9.63-20.105-22.68-88.033-35.38-96.962zm240.81 1640.472c.19-17.85.44-40.01 2.63-68.46-60.08 19.98-77.48 16.44-94.21 11.98-17.99-4.81-23.23-11.89-23.23-11.89-14.18 6.78-40.32 16.66-53.52 22.93-98.22 46.71-169.18 80.46-164.89 97.26 3.68 14.38 62.68 17.46 191.33 9.99 18.34.11 34.18.39 48.15.63 50.92.9 74.16 1.31 84.6-8.86 8.64-8.4 8.82-24.45 9.14-53.58zm-282.1-1606.905c-1.31 7.103 8.41 15.335 17.81 23.295 1.74 1.473 3.48 2.941 5.14 4.403 6.35 5.131 10.11 12.784 13.75 20.186 4.39 8.941 8.56 17.406 16.89 21.699-.19-23.287-19.41-72.623-38.49-81.068-9.35 3.316-14.29 7.074-15.1 11.485zm-159.81 1501.375c14.36-38.19 22.73-77.04 10.19-116.89-18.46-58.7-50.08-110.33-89.4-157.38-5.13-6.14-16.55-19.13-16.55-19.13s-24.66 56.55-42.68 73.38c-19.19 17.92-41.51 8.72-52.01-9.23-38.99-66.65-60.86-153.6-57.44-230.72 3.53-79.75 10.25-143.85 30.31-221.75 2.15-8.33-3.05-10.29-9.52-8.52-5.67 1.56-11 4.55-16.28 7.29-28.76 14.92-66.766 42.74-104.956 66.24-78.809 48.51-131.214 90.82-180.004 170.17-17.038 27.71-23.816 39.67-34.417 73.1-1.679 5.3-7.835 27.71-17.85 26.54-8.138-.94-6.125-19.51-6.472-29.24-.358-10.06-4.158-52.12-13.7-69.78-18.783 15.49-27.213 21.23-43.328 36.04-61.969 56.95-115.249 119.89-136.516 204.23-11.669 46.28-18.25 92.84-10.023 140.55 6.009 34.86 17.758 61.52 36.422 90.18 45.988 70.63 178.285 140.89 314.182 126.68-5.334-3.21-99.812-24.29-130.328-141.04-9.879-37.8-6.796-91.69 4.077-126.69 22.273-71.72 67.105-129.05 122.033-178.91 15.999-14.52 31.409-28.59 47.95-42.5 6.448-5.41 20.05-16.92 27.558-11.75 8.069 5.56-1.231 22.32-3.442 28.99-5.375 16.2-11.877 32.21-15.374 48.83-10.901 51.81-.47 101.67 17.113 150.31 4.887 13.52 11.929 26.46 19.455 38.76 5.356 8.75 11.113 8.05 15.651-1.27 4.684-9.62 9.795-19.55 11.592-29.98 5.687-33 1.012-54.86-7.532-81.48-2.302-7.17-4.304-14.44-6.444-21.66l2.765-2.76c9.192 2.96 18.41 5.85 27.571 8.9 73.247 24.42 127.367 102.12 116.287 182.25-18.91 136.79-122.557 175.9-125.846 177.77 140.356 1.67 196.196-31.72 234.346-53.23 39.26-22.14 66.69-53.94 82.61-96.3zm-538.424-817.552c11.792-.124 17.976 5.882 18.551 18.018 2.252 47.554 4.362 103.124 6.881 150.664.626 11.79 1.93 23.56 3.181 35.78.566 5.52-3.769 10.33-9.325 10.33h-353.819c-5.068 0-9.238-4.17-9.239-9.24v-191.972c0-4.994 3.967-9.147 8.96-9.237l.164-.002c111.548-1.472 223.097-2.92 334.646-4.341zm216.521-275.953c1.468 7.647 2.646 15.457 2.832 23.223 1.477 61.854 2.718 164.866 4.031 228.229.097 4.692-3.681 8.544-8.375 8.544h-169.382c-5.24 0-9.563-4.112-9.818-9.346-1.155-23.667-2.19-78.95-3.609-102.21-1.178-19.297-2.917-38.562-4.557-57.828-2.316-27.204-5.001-64.378-7.049-91.601-.806-10.722 3.411-15.022 14.118-14.842 55.767.938 111.527 2.168 167.292 3.189 8.598.158 13.048 4.992 14.517 12.642zm-180.656-458.097c-.368-48.002 2.163-181.206.367-205.437-.84-11.322 4.832-16.552 16.524-16.444 52.826.487 105.651 1.017 158.475 1.68 12.902.162 19.999 6.567 21.487 19.436 1.237 10.695 2.203 21.459 2.549 32.216 1.795 55.765 3.399 111.536 5.07 168.021.228 7.713-5.961 14.095-13.676 14.095h-177.113c-7.515 0-13.625-6.052-13.683-13.567zm-571.605 701.059c-2.402-32.461-1.109-96.866-3.414-129.571-.501-7.114 5.119-13.163 12.249-13.163h150.016c6.787 0 12.288 5.502 12.288 12.288v129.575c0 6.787-5.501 12.288-12.288 12.288h-146.589c-6.448 0-11.786-4.986-12.262-11.417zm1156.904-709.476c-.15 22.41-4.15 44.856-18.78 65.842-29.49 42.328-74 120.854-81.61 131.767s-5.08 34.613-4.58 46.211c1.23 28.293.28 62.663.72 89.478.49 29.012 1.32 58.019 2.14 87.024.45 16.081-7.85 24.749-24.27 24.726-35.73-.052-71.45-.172-107.17-.262l-2.8-.004c-5.88-.006-10.52 5.024-10.03 10.885 2.56 30.877 5.68 60.383 6.55 89.956 1.4 47.173.89 126.408.64 173.613-.02 2.573-5.09 7.307-7.85 7.347-38.32.55-76.66.282-114.981.659-7.76.077-8.079-4.052-8.309-9.785-1.86-46.49-3.747-124.98-5.889-171.458-1.489-32.304-3.224-64.601-5.416-96.861-.191-2.809-4.359-7.305-7.124-7.672-22.055-2.928-187.648-5.273-219.797-2.51-3.381.291-8.219 6.524-8.896 10.583-1.383 8.295-1.364 17.117-.23 25.493 8.404 62.05 11.046 209.976 11.629 241.776.083 4.516-3.593 8.193-8.109 8.123-22.436-.35-84.49-1.324-108.33-1.771-5.261-.096-9.558-4.405-9.639-9.667-.456-29.799-1.981-154.304-4.011-200.974-1.125-25.873-6.066-41.593-9.589-67.339-.813-5.948-4.2-9.521-11.161-9.858-35.294-1.704-70.557-4.101-105.858-5.623-9.935-.428-14.906-2.514-16.528-14.007-8.59-60.863-3.556-203.496-2.712-225.55.074-1.902-.342-3.792-1.21-5.486-1.824-3.568-5.109-9.936-7.088-13.422-19.98-35.207-39.798-70.511-60.222-105.461-10.586-18.118-10.396-38.062-11.805-57.903-.908-12.794-1.694-25.596-2.141-38.415-1.073-30.764-1.869-61.538-2.866-92.305-.901-27.809-1.95-55.612-2.874-83.42-.264-7.932 3.058-12.625 11.642-12.5 62.874.914 125.749 1.724 188.621 2.748 9.529.155 18.984 8.317 20.085 18.45 2.571 23.657-2.607 47.393-2.164 71.14.827 44.324.369 88.671.284 133.666-.013 6.984-5.757 12.599-12.738 12.438-55.713-1.28-105.892-2.557-162.246-3.847-5.272-.121-9.952 3.797-10.334 9.056-.418 5.74 4.115 10.533 9.767 10.532 1.886 0 3.757.003 5.628.015 289.526 1.74 593.241 3.466 882.761 5.723 7.71.06 11.6-1.802 14.36-5.482 4.04-5.386.07-13.087-6.66-13.097-49.86-.071-117.05-.512-166.7-.58-6.88-.01-12.48-5.501-12.63-12.379-.88-39.933-2.33-157.33-3.11-201.488-.17-9.256 7.28-16.849 16.53-16.875 37.41-.103 127.18.008 175.25.261 13.8.073 17.09 2.99 17.48 16.666 1.84 63.938 4.8 127.894 4.37 191.823zm-119.88 215.232c-.06-5.087-4.19-9.271-9.28-9.392-197.25-4.71-394.515-9.202-591.786-13.232-45.927-.938-91.884-.43-137.831-.403-2.986.023-5.43 2.486-5.43 5.472 0 2.965 2.411 5.419 5.376 5.471 1.719.02 3.436.053 5.151.105 104.5 3.183 208.993 6.537 313.494 9.672 133.125 3.995 266.256 7.848 399.386 11.7 3.79.11 7.6.209 11.41.228 5.29.026 9.58-4.323 9.51-9.621zm-848.551 421.513c-1.532-53.929-2.887-117.863-4.17-171.799-.398-16.755 4.111-21.288 20.555-21.063 54.305.742 118.621 1.326 172.914 2.555 14.735.333 19.428 6.24 20.263 19.794 2.877 46.725 8.171 103.297 11.368 150.007 1.213 17.708-.831 67.633-1.266 85.462-.103 4.229-.097 8.46-.074 12.824.029 5.408-4.402 9.778-9.809 9.662-63.879-1.368-134.673-2.723-198.399-4.089-5-.108-9.122-4.103-9.386-9.097-.755-14.144-1.597-60.193-1.996-74.256zm1151.631 312.164c.21 5.36-4.09 9.81-9.45 9.81h-381.02c-5.25 0-9.57-4.32-9.57-9.57v-196.587c0-5.248 4.32-9.566 9.57-9.566h376.71c3.43-.002 6.29 2.744 6.42 6.169 2.44 64.104 4.88 134.904 7.34 199.744zm-908.67-927.246c-7.105 0-12.904-5.668-13.074-12.771-.768-32.039.71-76.496 1.554-97.937.276-7.017 6.044-12.556 13.066-12.556h109.004c7.05 0 12.832 5.597 13.069 12.644l3.265 97.104c.248 7.391-5.675 13.516-13.069 13.516zm691.45 438.08c10.03.279 14.25 3.526 14.23 14.442-.13 60.972.46 163.945.79 224.917.04 5.529.03 11.059.02 16.756-.01 5.766-4.68 10.436-10.45 10.436h-175.56c-5.37 0-9.85-4.072-10.4-9.414-7.07-69.257-7.76-179.896-14.77-249.668-.62-6.092 4.16-11.386 10.28-11.412 21.96-.093 49.33-.383 72.18.145 37.9.877 75.78 2.745 113.68 3.798zm-316.73-437.106v.002c-4.74.004-9.934 1.075-10.264-6.516-1.39-31.979-2.931-63.951-4.433-95.672-.362-7.647 5.742-14.039 13.397-14.039h116.02c7.41 0 13.41 6.007 13.41 13.413.01 23.879.01 46.648-.01 69.417-.01 3.342-.31 6.683-.37 10.026-.27 15.469-8.3 23.214-24.09 23.233-34.55.042-69.11.109-103.66.136z"/></g></svg>