<svg clip-rule="evenodd" fill-rule="evenodd" stroke-linejoin="round" stroke-miterlimit="2" viewBox="0 0 2811 2161" xmlns="http://www.w3.org/2000/svg"><g transform="matrix(1.34235 -.19094 .191759 1.34811 -22.1646 328.439)"><path d="m131.596 23.35c5.875-.533 27.058-.601 27.06-.601 24.813.021 49.626.087 74.437.155 50.89.138 103.509.282 155.298-.008 20.606-.115 41.458-.842 61.623-1.544 19.143-.668 38.937-1.358 58.322-1.513 250.26-2.005 472.681-3.559 679.974-4.75 30.97-.181 62.5.134 92.99.438 28.52.283 58.02.577 87.05.468 16.54-.062 33.22-.789 49.35-1.495 16.19-.707 32.94-1.44 49.28-1.473 72.17-.152 148.89-.169 223.88 1.389 3.94.082 7.91.133 11.87.185 26.89.344 52.28.67 75.85 10.365 40.16 16.526 63.8 44.998 70.26 84.625 1.82 11.151 1.59 24.584-.69 39.926-4.31 28.993-29.36 63.776-55.37 78.11-28.59 15.753-49.89 11.212-83.64 13.562-54.56 3.798-99.69 5.626-142 5.746-135.64.394-551.05-.797-884.84-1.751-186.268-.532-347.134-.991-427.762-1.092-41.46-.053-85.677-1.648-128.126-12.861-36.247-9.574-71.351-25.068-94.629-48.667-16.891-17.125-24.227-37.761-23.42-60.927.786-22.571 15.428-45.618 32.789-60.926 24.448-21.555 54.878-34.125 90.444-37.361zm1631.864 1149.23c-34.52 398.65-555.43 277.58-531.46-74.44 46.29-388.823 536.01-258.399 531.46 74.44zm-16.49 359.53c-16.49-19.47-81-108.98-2.71-96.68 33.44 19.94 160.73 158.61 111.3 171.1-35.74 3.36-83.87-57.2-108.59-74.42zm-58.84-157.86c29.26 7.25 52.28 55.13 5.92 62.61-34.33-7.52-51.36-55.37-5.92-62.61zm-1727.561-236.3c2.108-12 8.9-26.35 5.056-42.3l2.744 1.17c2.957-13.6 10.843-32.7 10.049-51.26 25.592-91.157 57.359-192.634 91.19-288.665 29.719-75.967 77.477-260.028 159.203-109.701 91.851 96.62 216.144 311.295 266.226 407.036 42.111 51.47-41.423 27.61-213.209 61.1-43.84-.14-346.532 95.67-321.259 22.62z" fill="#fff"/><path d="m504.294 257.643c-107.585-.298-196.481-.523-249.773-.59-44.165-.056-88.314-1.904-131.42-13.291-35.983-9.505-67.949-25.935-94.376-52.729-39.526-40.073-38.279-102.893 3.855-140.043 27.83-24.538 61.066-37.202 97.842-40.548 9.358-.851 18.826-.662 28.244-.654 76.551.061 153.103.574 229.651.148 39.976-.223 79.937-2.737 119.914-3.057 226.666-1.815 453.334-3.446 679.999-4.75 60.02-.345 120.05 1.127 180.07.906 32.89-.121 65.77-2.899 98.65-2.968 74.73-.157 149.47-.16 224.17 1.393 30.99.644 62.8-.654 92.39 11.521 42.66 17.553 70.59 48.273 78.12 94.526 2.33 14.257 1.48 29.519-.66 43.915-4.87 32.789-22.2 57.622-51.62 73.836-30.99 17.076-64.47 26.435-99.31 28.861-47.53 3.31-95.23 5.642-142.86 5.778-35.34.101-89.46.095-156.13.015 65.83 99.014 34.88 221.253 14.87 361.302-12.17 83.275-19.02 166.888-47.55 246.766 109.26-51.538 214.66-25.567 290.28 39.249 25.78-56.314 70.78-102.59 45.68-138.044-29.41-41.546-174-10.939-197.82-91.566-23.83-80.626-3.78-132.611 69.98-189.448 73.76-56.836 201.14-170.873 233.97-188.65 32.84-17.778 73.1-34.504 146.32.787v-.002c73.22 35.293 60.03 163.008 35.41 229.298s-46.09 133.337-50.34 322.129c-4.25 188.787-54.25 268.617-167.35 265.057-1.65-.05-3.29-.12-4.91-.2 9.72 84.83-15.32 175.21-89.98 248.98 25.47-4.57 57.73 20.65 44.71 50.55 44.16.16 147.92 120.04 149.63 166.17-40.63 122.64-219.86-93.15-186.09-135.31-33.18 6.04-48-12.24-53.88-41.87-267.09 143.97-500.25-149.49-416.75-376.39-100.3 27.61-219.93-15.42-270.496-76.6-68.919-83.389-73.889-163.466-54.38-259.506 20.319-100.033 96.8-314.329 194.866-433.333-73.71-.184-150.421-.391-226.571-.603-2.147 34.643-26.277 111.328-41.519 143.212-47.342 99.032-60.156 201.795-42.689 309.201 6.675 41.035 2.492 81.578-8.757 121.01-17.75 62.218-57.049 103.365-122.889 118.094-64.205 14.36-118.701-.173-155.586-55.168-32.794-48.894-24.296-103.281-6.246-154.895 10.085-28.842 27.075-55.417 41.896-82.508 20.446-37.369-1.391-74.682-47.689-74.597-43.601.082-83.802-8.423-124.051-24.696-87.864-35.528-73.239-147.2-2.699-194.2 10.028-6.683 21.44-13.069 35.331-22.324 42.12-28.064 77.55-56.81 108.543-84.164zm886.336-24.136c15.98-.019 29.94-.028 41.5-.026 106.59.02 213.18-.017 319.77.31 14.65.045 28.14-2.45 40.05-11.05 17-12.271 30.65-27.576 39.49-46.691 24.5-52.971-2.43-116.198-57.25-135.37-26.92-9.416-54.84-14.76-83.03-15.002-67.1-.577-134.22.288-201.31 1.535-37.07.689-74.09 4.615-111.14 4.833-99.52.586-199.04.294-298.56-.26-153.107-.852-306.211-2.371-459.319-3.272-50.635-.298-101.282.07-151.914.8-64.742.934-129.473 2.631-194.212 3.827-39.986.739-80.062-.231-119.941 2.166-30.775 1.85-60.071 11.697-86.377 28.454-22.529 14.35-39.595 33.315-46.32 59.988-4.686 18.586-.631 35.212 12.969 48.752 6.192 6.165 13.283 11.766 20.808 16.194 24.485 14.408 50.351 26.433 78.594 30.328 34.918 4.815 70.121 9.505 105.286 10.255 96.985 2.068 193.988 3.526 290.994 4.484 91.221-84.15 143.974-147.838 231.6-123.504 80.945 22.48 108.214 48.766 108.898 124.323 78.828-.128 165.854-.323 248.554-.513 14.22-14.548 28.82-26.898 43.69-36.467 59.98-38.572 166.17-26.113 217.44 25.552 3.39 3.419 6.64 6.871 9.73 10.354zm267.85 700.299c-81.23-71.778-194.56-93.045-284.26-54.635-6.38 16.577-13.77 32.984-22.39 49.183-25.34 47.611-62.34 77.426-104.02 93.576-6.98 20.85-12.08 43.81-14.98 68.93-23.62 388.26 509.94 457.42 530.63 81.72-.45-20.3-2.41-39.7-5.71-58.18-21.71-3.31-40.13-9.82-55.28-19.01 1.93 11.37 3.1 23.34 3.45 35.9-8.88 291.6-422.74 305.67-422.11.86 17.63-205.152 254.6-255.011 365.59-143.323.41-16.295 3.12-33.63 8.12-51.69.31-1.114.62-2.224.96-3.331zm22.24-783.962c-12.99 5.572-25.48 8.091-38.52 7.524-36.83-1.603-57.93-41.213-41.06-73.997 13.23-25.709 45.12-38.389 72.43-28.75 17.15 6.054 30.08 16.053 32.44 47.049 1.05 13.812-4.81 27.473-4.81 27.473s33.57 33.774 40.72 42.354c4.37 5.238 7.67 11.497 2.05 17.377-5.44 5.691-12.1 3.439-17.57-.694-7.03-5.301-13.64-11.146-20.38-16.825-8.53-7.197-17.01-14.464-25.3-21.511zm-32.76-10.792c11.13-.275 24.01-5.658 33.81-18.974 12.27-16.694 8.64-38.125-8.19-47.459-15.8-8.757-31.07-5.723-45.08 6.01-12.23 10.246-17.71 25.965-14.29 38.941 3.45 13.116 15.01 21.281 33.75 21.482zm-1234.615 16.95c-.138 13.469-15.414 27.684-29.26 27.228-16.947-.559-32.546-16.828-31.977-33.351.495-14.372 14.786-26.766 29.849-25.885 16.556.968 31.55 16.258 31.388 32.008zm-163.493-16.673c5.856-10.272 15.206-14.012 26.609-13.853 15.46.196 26.87 7.241 33.546 21.175 7.891 16.47-.598 32.208-18.715 35.46-13.945 2.503-31.947-5.603-39.4-17.909-4.786-7.901-7.007-16.162-2.04-24.873zm-50.516 10.084c3.499 14.564-7.825 28.357-23.834 27.822-11.182-1.576-23.685-2.179-32.228-13.039-12.015-15.273-6.898-32.836 11.482-39.139 17.048-5.846 40.387 6.905 44.58 24.356zm381.463 253.522c-3.85 15.931-10.814 38.769 12.651 45.909 21.977 6.687 50.418-23.227 57.998-56.866 3.596-15.959 13.222-50.162-10.27-50.8-30.94-.838-52.354 28.563-60.379 61.757zm791.051 888.235c239.94 171.56 422.14-145.97 221.99-309.26-214.9-148.972-388.34 151.22-221.99 309.26zm194.67-201.82c-14.43 40.51-3.79 84.77-26.87 99.83-12.64-9.57-12.05-114.68 26.87-99.83zm-114.86-8.15c-12.04 38.41-12.34 77.67-23.75 120.78-19.45 39.08-9.48-136.64 23.75-120.78zm17.94 194.5c9.32-80.42 5.54-167.46 24.84-249.5 37.44-25.74 6.86 63.46 8.75 85.01-9.21 34.86-6.92 153.57-33.59 164.49zm-216.65-825.856c-4.69-37.147-33.77-32.531-46.5-3.029-30.26 70.099-35.36 121.618-71.67 258.911-11.69 44.171-3.57 88.818 29.57 95.649 8.25 1.701 17.85-4.928 27.59-17.856 37.7-50.055 63.55-313.511 61.01-333.675zm494.02 1082.266c16.13 13.75 129.36 125.07 118.2 49.37-109.08-206.71-219.86-172.83-118.2-49.37zm-58.84-157.86c-43.11 4.61-30.51 58.29 9.85 62.78 36.38-8.94 25.37-52.08-9.85-62.78zm139.95-826.942v-.001c9.66-32.274-25.02-54.63-60.3-19.753-35.27 34.876-41.22 66.055-24.5 82.504 31.07 30.567 78.75-42.545 84.8-62.75zm-1781.013 216.523c62.291-162.248 95.604-277.244 234.118-83.938 85.432 121.409 166.97 242.522 236.911 375.587 59.113 88.83-105.101 38.86-294.875 94.54-58.504 10.32-246.065 72.68-289.129 4.69 14.574-134.35 64.07-263.132 112.975-390.879zm-86.498 374.119c-26.597 73.87 287.789-25.52 339.434-25.67 232.104-36.36 221.185-10.14 189.747-67.6-77.875-140.814-154.52-278.481-263.564-400.296-88.099-163.036-141.984 56.366-247.768 401.176.676 15.87-5.045 31.55-10.049 51.26l-2.744-1.17c3.227 12-1.179 25.95-5.056 42.3zm189.529-463.915c-.925-23.916 32.852-32.573 44.674-8.795 16.444 32.163 8.984 66.978 16.897 103.776 4.774 147.932 24.313 209.359 3.052 225.279-28.776 3.347-76.146-320.183-64.623-320.26zm101.291 371.975c-7.196 33.08-58.707 32.62-57.013-3.66 3.869-37.65 62.609-33.3 57.013 3.66z"/></g></svg>