<svg clip-rule="evenodd" fill-rule="evenodd" stroke-linejoin="round" stroke-miterlimit="2" viewBox="0 0 1614 2908" xmlns="http://www.w3.org/2000/svg"><g transform="matrix(1.17111 0 0 1.17212 55.4996 1200)"><path d="m130.442 509.22c-6.666-2.714-13.518-5.387-20.207-7.946-58.92-16.816-107.882-64.26-105.432-128.835l8.881-1.559c-4.918-8.059-6.344-18.611-3.728-32.002.918-28.491 12-63.953-2.306-99.625l6.804 1.811c2.371-32.459 14.421-79.291 6.37-122.007 29.374-219.495 69.731-464.92 116.732-698.412 44.087-185.676 94.244-627.595 335.404-306.271 246.89 193.631 609 650.018 757.99 855.31 46.57 42.46 41.4 63.29-6.9 81.784 12.85 17.697-8.73 31.566-13.23 52.445 21.69-6.621 38.76-24.436 50-43.234 11.77-19.993 14.46-39.833 30.97-56.515 5.23 15.482 4.53 27.775-3.51 43.4 8.87-15.434 14.35-24.898 23.02-40.385 10.16 13.999 6.94 23.304 1.34 38.378 5.04-7.514 12.67-9.288 13.32-6.139 5.62 44.244-46.89 95.777-75.72 125.195-1.65 1.696-4.48 3.147-7.22 3.193 21.97 6.393 40.55 24.509 40.47 48.737v-.001c3.74 86.29-8.55 174-40.08 255.14-22.94 72.781-71.35 117.163-139.39 142.695-60.02 15.796-120.718 26.655-183.223 29.719-17.878.162-35.458-1.079-53.085-1.934-11.741-1.001-13.997 14.596-19.431 22.376-19.637 42.514-53.663 84.113-82.784 118.219-21.444 26.527-45.36 50.946-82.375 54.305-37.757 5.83-77.391 8.271-115.378 5.294-23.909-1.707-47.328-5.157-70.843-8.064-14.258-4.55-60.548-.508-61.9-16.702-1.337-57.855 17.797-117.072 44.298-168.138-27.168 32.92-46.382 65.322-91.036 82.47-94.343 25.842-168.568-21.643-215.354-102.004-15.01-23.36-30.532-47.515-40.752-74.617-5.245-16.353-5.429-32.215-1.715-46.081zm-114.367-134.949c1.651 5.018 3.226 10.075 4.875 15.083-.764-3.758-1.266-7.594-1.494-11.495-1.227-1.124-2.355-2.32-3.381-3.588zm30.871 15.734c10.01 19.675 22.91 35.014 54.124 47.436.12-.071.239-.144.359-.219-20.811-9.048-40.49-26.197-52.367-46.838-.714-.12-1.419-.247-2.116-.379zm38.167 1.905c15.711 17.078 36.415 39.885 51.536 25.407-.026-13.03-6.127-21.264-13.356-29.504-13.704 2.12-26.49 3.523-38.18 4.097zm65.383-8.981c19.946 16.088 29.508 50.618 37.549 74.001-6.693 2.307-12.945 5.156-18.728 8.53 17.492-6.216 39.037-4.45 61.637 9.177 45.066 18.661 46.073 96.253 102.048 93.266 37.668-10.54 52.514-42.73 76.87-68.662 40.679-42.858 100.392-119.956 160.097-128.538 28.205-6.72 69.915.566 101.67 8.85 16.928 2.368 24.361 5.616 27.894 9.946-.006-3.496 1.253-6.629 5.045-8.344 33.955-16.496 58.589-46.502 79.961-74.591 6.431-7.892 1.806-16.894-6.077-22.041-25.058-13.404 7.169-52.111 25.14-34.994 18.653 12.293 10.533 33.29 16.198 50.086 13.491 24.287 73.871-32.017 131.988-11.092 9.901 2.484 20.683 4.992 30.927 7.477-7.169 15.501-17.678 35.991-24.426 51.474-9.826 13.773 5.304 48.78-14.919 50.076-15.356.482-20.431 5.402-29.866 15.535l-.001.001c-19.79 24.025-38.884 14.098-60.43-.745-4.348-3.346-8.485-2.007-14.78.59-15.321 7.078-24.507 25.34-37.128 37.172 4.651-1.531 9.433-3.015 14.491-4.064 39.104 8.11 81.086 13.241 119.149 11.454 128.165-7.341 181.185-22.217 203.945-158.107 8.99-35.013 15.21-86.425 42.63-114.439-18.35-29.111-18.57-58.595.15-83.834 12.6-18.91 23.27-32.421 39.16-48.386-73.34 26.85-238.118 49.66-467.566 128.398-69.963 9.594-406.855 162.291-602.628 201.804zm555.232 29.078c.93 2.505 2.234 5.162 4.125 7.979-1.554-2.556-2.936-5.217-4.125-7.979zm-672.323 6.891c6.313 10.777 14.898 20.166 27.918 26.875-11.501-7.38-20.929-16.502-27.918-26.875zm189.627 778.252h-.001c1.24.63 5.79 3.25 7.07 3.97-17.774 16.76-39.996 36.07-34.328 62.87 2.345 17.56 1.357 34.87 7.302 51.82-83.669 12.34-87.691 50.93-125.537 112.36-2.796 6.39-18.076 22.38-29.835 14.53-5.774-7.47-1.543-16.95-2.532-25.53-1.392-56.85 6.125-113.58 21.053-167.97 2.485-9.6 5.837-24.83 18.66-19.85 8.825 2.39 26.997-3.18 30.773-13.36 4.116-22.81-22.339-19.6-36.855-22.06 3.766-10.47-.609-33.46 13.561-35.13 47.012.94 90.929 9.14 130.669 38.35zm965.308 236.33c.26 1.79 1.38 6.08 1.81 7.93-62.13 8.84-124.63 9.29-187.26 10.4-18.288-.45-12.442-29.81-27.918-40.09-9.052-8.65-20.041-10.65-31.784-5.78-12.401 6.36-6.042 31.6-7.437 44.02h-44.933c-.177-42.63 1.586-88 16.499-131.79 48.585 24.62 93.333-5.83 102.133 9.23 9.05 19.54 22.69 34.72 40.54 45.14 43.54 17.36 118.52 8.07 138.35 60.94z" fill="#fff"/><path d="m7.511 422.933c-21.294-8.025-39.538-19.945-53.83-36.555-10.794-315.922 61.879-630.391 133.515-942.276 91.401-396.175 130.859-673.412 519.066-271.179 240.166 253.141 471.138 506.877 678.988 792.091 13.04 14.482 22.65 27.465 29.08 39.184 6.33-.474 8.32 8.431 7.68 17.904 1.37 4.646 2.14 9.065 2.33 13.28 4.31-.316 5.87.014 6.44 7.687-.31 25.957-19.83 46.958-31.08 69.222-13.29 19.635-31.5 35.845-47.62 53.086 17.83 10.441 37.92 23.196 36.59 46.265 3.56 74.697-3.21 149.699-27.7 220.675-40.37 157.495-151.97 208.457-303.961 218.83-30.471.503-61.153-2.374-91.691-3.12-3.043-.164-4.368.731-5.78 3.398-26.494 58.091-65.939 104.154-107.854 152.542 73.879-15.748 147.045-2.027 219.799 10.392 45.857 10.08 97.927 18.698 127.987 58.642 24.67 29.724 41.28 65.621 40.08 104.927-.06 24.992-8.2 48.412-12.58 72.562-4.62 25.91-9.92 51.68-19.55 76.25-14.53 43.93-29.18 87.94-50.44 129.16-13.12 23.41-23.19 48.91-44.29 66.63 10.98 19.25 28.29 42.14 50.92 48.9 24.88 3.73 49.35 9.72 73.7 16.1 26.13 5.66 53.35 17.93 59.17 46.99 9.22 22.16-179.84 20.86-200.248 21.82-19.651.02-9.775-39.9-41.229-48.61-18.225-7.01-12.26 22.72-13.683 32.88.195 8.06-3.105 13.38-11.284 13.61-14.662.41-29.343.12-45.429.12-.254-45.24 2.879-90.45 17.408-133.44.511-2.22.175-5.53-1.189-7.15-6.29-7.48-8.519-15.98-8.56-25.56-1.949-40.76-1.572-81.62 11.525-120.82 11.954-41.48 64.325-138.58-2.831-155.82-23.116-5.92-46.408-5.36-69.774-4.25-31.951 1.75-64.117 3-95.236 11.09-16.36 5.12-39.152 6.73-45.336 25.58-25.799 57.5-1.949 117.95 7.159 176.38 6.28 42.66 1.364 86.38-6.436 128.51-8.464 30.92-29.853 58.25-56.136 76.57-64.47 50.64-150.03 23.85-222.262 7.34-52.54-15.72-111.112-20.06-156.503-53.08-23.399-17.19-44.658-34.71-57.396-62.05-31.54 8.34-71.549 20.77-84.364 54.36-15.004 30.51-29.828 68.89-65.556 79.37-5.413 1.81-7.052-2.52-7.682-6.47-6.35-51.75-.105-104.77 10.697-155.6 6.471-18.79 6.806-71.79 35.697-65.16 7.269.68 19.761 3.36 21.152-6.32.229-25.39-35.354-10.18-34.044-25.63 3.482-13.79 1.411-39.67 21.691-38.35 42.919.09 85.156 7.01 121.625 31.1 25.097 15.12 55.002.54 81.491 12.68 17.164 5.89 35.295 9.03 52.303 15.28 14.352 2.33 130.003 61.17 123.701 35.7-7.636-64.51-32.81-125.43-41.453-189.86-3.664-30.07-8.784-59.96-12.364-90.034-5.714-50.693-3.759-101.883 6.678-151.66.352-44.792 10.478-89.244 27.53-130.397-32.119 28.359-66.54 57.267-112.179 55.806-80.354 2.087-127.309-33.193-169.851-98.587-22.205-40.655-63.921-84.084-48.067-133.758-38.169-10.854-76.545-23.307-100.696-56.386-5.772-7.016-12.689-18.366-17.838-30.791zm1160.979-299.483c-46.39 10.847-101.19 21.951-161.71 35.799 36.33 28.877 66.3 70.455 37.66 105.768-13.59 16.941-28.24 36.972-52.817 34.15-9.555-.707-9.33-.264-13.315 8.714-4.833 10.89-10.346 21.478-15.189 32.364-12.91 20.08 6.217 58.416-20.578 59.983-10.723 1.325-13.693-1.71-20.607 8.14-9.132 9.071-18.449 22.886-32.95 20.847-12.882-2.119-25.55-5.453-36.463-13.42-16.912-11.324-26.391 16.14-37.568 26.207 76.327 18.17 158.519 16.625 234.487-3.629 25.25-7.357 42.33-23.918 55-46.317 26.13-48.755 30.17-104.789 45.28-157.253 3.78-15.285 11.28-28.784 21.51-40.701 3.75-4.371 4.92-7.767 1.45-13.581-12.61-19.215-11.4-38.619-4.19-57.071zm-223.812.917c375.762-105.122 353.602-65.251 270.732-175.071-228.985-300.554-454.045-594.229-749.523-840.567-260.295-348.669-312.97 177.107-445.063 1010.33 6.879 36.54-1.259 74.712-6.37 122.006l-6.804-1.811c11.548 26.739 5.907 60.483 2.306 99.625-2.309 11.071-1.816 20.197 1.172 27.57.073-.08.143-.16.212-.242 2.587 6.416 7.007 11.527 13.059 15.461.013.07.027.14.04.209 100.52 63.147 646.406-190.567 764.942-212.915 55.071-18.054 106.09-32.876 152.652-45.378.884.249 1.766.509 2.645.783zm-922.219 303.435c2.427 4.795 5.034 9.48 7.67 14.047 21.295 35.168 61.956 47.241 98.235 61.438 11.679-24.178 30.105-39.912 53.659-49.083-2.86-8.286-5.683-16.65-8.934-24.748-22.695 3.604-44.729 5.946-65.716 6.683.632.436 1.261.878 1.885 1.325-2.332 1.623-4.545 3.484-7.058 4.744-4.649-.768-9.222-3.203-13.658-5.851-12.245-.163-24.067-.945-35.382-2.424 11.74 10.886 26.572 14.784 40.095 22.859-9.864 10.191-22.528-3.379-32.907-6.233-9.94-4.767-17.809-11.5-24.166-19.455-4.681-.96-9.258-2.059-13.723-3.302zm162.219-.285c3.11 8.447 5.747 17.147 8.327 25.809 18.702 3.103 35.39 10.817 51.728 20.527 38.828 20.473 58.775 121.391 113.652 80.094 52.331-56.487 98.339-120.386 161.375-166.106 42.331-31.037 96.788-25.773 145.241-15.477 12.366.805 24.988 9.598 37.135 6.586 18.691-10.045 34.381-23.795 47.816-38.745-43.843-24.102-55.095-58.461-46.671-91.091-25.013 9.698-50.229 20.187-75.531 31.574-83.519 26.997-278.662 117.958-443.072 146.829zm991.052-305.777c-7.08 19.203-3.17 38.277 7.75 57.337 18.26-11.169 36.29-21.49 58.87-16.048 1.33.302 3.47-.649 4.51-1.718 27.68-26.265 52.69-54.828 68.81-89.746 3.71-6.766 6.73-13.711 6.84-21.783-3.38 10.704-11.27 19.943-23.15 28.201-10.08 17.085-21.28 32.567-30.75 29.867 2.96-8.487 11.08-14.124 16.47-21.343-8.44 4.382-18.13 8.497-28.98 12.437-3.94 2.764-7.81 4.312-11.52 4.227.03-.091.06-.184.09-.278-19.87 6.548-43.01 12.677-68.94 18.847zm-199.788 177.486c-31.936-8.357-62.576-16.058-94.281-3.742-25.945 9.053-73.33 34.397-69.001-13.667 2.375-17.064-15.272-45.698-32.815-23.977-15.303 14.461 1.357 21.21 9.739 30.936 10.747 17.735-15.312 35.803-24.438 49.309-17.022 18.789-35.153 36.341-58.557 47.344-7.144 2.204 5.855 30.623 8.603 34.768 11.84 17.378 30.629 26.53 49.75 33.769 27.45 11.469 41.999-20.788 58.774-36.341 8.312-7.644 20.849-16.676 32.24-9.03 10.855 7.07 26.714 18.223 39.827 13.397 16.856-12.325 23.876-28.405 47.241-27.578 5.251-.388 6.358-2.443 6.355-7.321-4.261-32.375 13.213-59.799 26.563-87.867zm-65.593 1024.944c-12.66 39.36-14.804 80.17-14.806 121.07h35.485c1.247-14.64-5.3-35.51 10.354-43.67 13.389-5.54 26.364-3.28 36.854 6.73 9.659 9.23 13.841 21.13 17.212 33.44 1.137 4.15 3.041 5.46 7.322 5.34 60.77-1.23 121.11-1.21 181.53-9.77-11.22-49.59-98.48-44.67-136.69-60.69-18.95-11.06-33.13-27.11-42.45-47.24-4.74-5.95-23.235 2.5-31.034 2.24-21.596 3.59-43.681 1.13-63.775-7.45zm-400.008-725.464 2.626 1.59c.024 8.623-5.317 15.565-9.908 22.388-12.743 17.116-24.433 34.496-32.051 54.917-7.279 19.51-16.455 38.335-21.101 58.767-1.942 14.566-19.256 81.249-5.822 85.922 73.947 9.824 229.969 37.917 289.837-12.457 32.735-33.012 62.356-70.119 88.723-108.375 44.582-71.836 10.518-64.952 98.106-62.082 61.218-2.956 122.599-13.904 181.769-29.478 66.8-24.383 115.4-71.064 136.44-139.803 11.77-34.997 23.01-70.573 31.94-106.4 1.12-24.118 5.48-48.041 7.14-72.059-.58-30.854 5.35-63.265-3.31-93.208-11.7-24.521-44.82-37.458-69.93-26.434-83.55 40.101-36.85 225.237-139.99 267.111-79.065 29.389-168.1 28.42-249.979 11.589-31.431 19.28-54.387 18.028-90.328-6.887-20.033-13.887-26.115-28.542-27.441-49.641-.184-2.936-1.124-4.223-4.37-4.92-53.538-12.73-115.297-30.335-165.26 2.444-43.617 34.207-82.688 73.674-118.563 115.857-21.706 25.021-40.169 56.176-74.44 64.857-8.576 2.728-17.829 1.644-25.377-3.588-37.653-20.296-42.059-70.791-80.003-89.859-27.567-14.127-60.97-21.519-82.022 8.359-13.473 20.566-19.817 41.467-10.45 66.317 25.176 56.623 58.617 111.598 107.32 150.701 29.319 25.004 68.464 29.029 105.463 29.235 79.584.524 117.659-80.97 160.978-134.862zm-426.076 591.104c6.831.8 12.052 1.59 17.304 1.97 11.131.8 16.619 7.95 19.498 17.58 2.813 18.08-24.644 28.18-37.42 24.55-4.387-1.19-7.905-.93-9.35 4.68-2.671 10.37-6.808 20.45-8.635 30.94-12.689 54.33-17.245 109.53-16.058 165.35-.06 4.28 1.469 5.63 6.149 4.97 8.972-1.25 13.846-7.94 17.791-14.2 10.414-16.53 20.842-33.27 28.851-51.02 16.818-37.35 56.203-56.3 94.8-62.81-5.38-15.48-3.541-31.29-6.092-47.12-5.136-26.64 13.028-46.33 31.262-62.54-38.602-28.37-83.22-38.18-130.386-38.65-7.195 2.34-5.207 18.86-7.714 26.3zm213.717-1987.456c-10.143-55.083 65.897-86.21 101.459-35.022 49.163 69.09 43.352 152.165 74.128 234.786 60.538 341.025 126.702 476.871 82.334 520.713-66.127 17.19-284.821-716.52-257.921-720.477zm360.869 828.208c-5.771 78.98-126.295 94.817-134.447 10.234-3.529-88.457 135.185-97.665 134.447-10.234z"/></g></svg>