<svg clip-rule="evenodd" fill-rule="evenodd" stroke-linejoin="round" stroke-miterlimit="2" viewBox="0 0 54 74" xmlns="http://www.w3.org/2000/svg"><path d="m44.029 48.42c.31-.4.779-.691 1.397-.762 0-4.563 0-23.456 0-23.456-1.271-.909-2.803-1.048-3.876-.351-.757.491-1.229 1.401-1.229 2.672v16.16c0 1.057-.689 1.725-1.536 1.944-1.212.313-2.695-.352-2.695-2.01v-16.094c0-2.952 1.426-5.226 3.478-6.43 1.668-.978 3.767-1.257 5.892-.578.163-2.008.972-3.51 2.106-4.552 1.894-1.741 4.753-2.197 7.244-1.455 2.796.834 5.112 3.134 5.112 6.671v15.603c.737-.288 1.535-.442 2.379-.442 1.834 0 3.485.748 4.69 1.947l.004.005c.295.297.563.62.799.967.884-.498 1.903-.783 2.983-.783 1.678 0 3.202.682 4.309 1.789 1.107 1.108 1.789 2.631 1.789 4.309l.001 8.387c0 .423-.043.838-.125 1.235v23.91c0 4.447-1.935 6.931-4.879 8.299-2.509 1.199-5.779 1.431-9.157 1.431h-14.598c-3.2 0-5.407-.432-7.347-1.45-.005-.003-.009-.005-.014-.008-1.927-1.05-3.46-2.618-5.345-5.044-2.821-3.618-5.317-7.235-7.812-10.852-.01-.015-.02-.03-.029-.045-.247-.402-.528-.774-.775-1.146-1.032-1.531-2.178-3.252-2.902-5.026-1.202-2.944-1.298-6.02 1.682-8.756 2.582-2.391 5.195-4.75 7.777-7.141l.005-.004c2.976-2.721 7.22-3.21 9.943.026.273.314.516.658.729 1.03zm.994 3.363c.125 1.971-.383 4.292-1.87 6.698 2.931-.122 6.591-.21 9.572 1.698 2.041 1.305 3.799 3.526 4.775 7.339.067.263.025.542-.118.773-.142.231-.373.394-.638.452-.721.157-1.439.346-2.16.534-.258.067-.532.028-.761-.107-.23-.136-.396-.358-.461-.616-.469-1.858-1.219-3.153-2.157-4.038-2.243-2.116-5.457-1.908-7.922-1.806l-.005.001c-1.089.039-2.116.085-2.953-.01-.716-.081-1.315-.272-1.764-.58-.003-.002-.005-.004-.008-.006-1.14-.803-1.594-2.57-.035-4.42 1.966-2.387 2.548-4.583 2.185-6.251-.125-.501-.33-.954-.616-1.29-1.098-1.28-2.72-.728-3.887.344l-.002.002c-2.577 2.358-5.158 4.744-7.77 7.134-1.122 1.038-1.124 2.326-.702 3.631.518 1.598 1.634 3.223 2.601 4.629.004.005.007.011.011.016 2.662 4.026 5.483 8.021 8.432 11.825l.003.004c1.456 1.895 2.622 3.16 3.987 3.905 1.345.699 2.96.966 5.357.966h14.598c2.769 0 5.451-.148 7.347-1.051.005-.003.01-.005.015-.007 1.494-.683 2.442-2.027 2.442-4.446v-19.302c-.552.165-1.137.255-1.742.255-1.677 0-3.201-.686-4.308-1.793-.357-.357-.67-.758-.93-1.193-.957.538-2.058.849-3.238.849-1.802 0-3.497-.756-4.665-1.957-.59-.589-1.068-1.288-1.403-2.063h-10.412c-.298 0-.563-.043-.798-.119zm17.278.877c.342 0 .675-.052.989-.148-.014-.092-.04-.18-.077-.262-.157-.348-.506-.59-.912-.59zm0-1c.651 0 1.255-.268 1.678-.69.427-.43.697-1.035.697-1.685v-7.332c0-.656-.277-1.239-.713-1.701-.425-.416-1.023-.678-1.666-.678-.651 0-1.232.274-1.691.704-.417.45-.688 1.028-.688 1.675v7.332c0 .017.001.034.002.052.023.12.036.246.041.372.089.479.32.916.656 1.255.452.422 1.032.696 1.684.696zm9.798 1.577c.346-.326.545-.796.545-1.284v-8.379c0-.497-.236-.971-.566-1.301l-.003-.002c-.328-.331-.783-.533-1.298-.533s-.971.208-1.303.538c-.331.328-.533.783-.533 1.298v8.383c0 .496.207.972.536 1.301.331.331.784.535 1.3.535s.972-.207 1.301-.535c.007-.007.014-.014.021-.021zm-16.408-9.797c-.02-.079-.031-.163-.031-.249v-23.012c0-1.367-.977-2.27-2.113-2.624-1.047-.326-2.258-.216-3.054.506-.522.473-.833 1.209-.833 2.212v5.676 21.692h6.031z" transform="translate(-23.1075 -13.166)"/></svg>