<svg height="3000" viewBox="0 0 3000 3000" width="3000" xmlns="http://www.w3.org/2000/svg"><svg height="1179.31" transform="matrix(1.50024145 0 0 1.50087763 1876.5 1117.5)" viewBox="0 0 552.911 1179.31" width="552.911"><g fill="#fff"><path d="m336.771 605.79c-31.561 3.136-64.06-1.062-94.205-12.276-15.575-5.336-33.328-14.664-37.677-24.657-11.424-33.522 2.937-72.309-18.353-103.512-14.147-17.975-29.037-33.083-38.585-54.04-7.947-15.407-18.11-27.853-23.061-44.626-28.096-86.123-12.75-187.784 21.988-256.883 10.267-17.016 32.957-8.945 47.685-3.39 10.187 5.371 13.693 4.138 9.884 14.72-29.475 72.768-63.707 169.319-17.101 232.559 13.227 22.78 40.27 42.499 62.866 36.992 27.885-5.358 20.361-24.31 29.221-20.812 15.539 3.456 29.693 3.547 44.986 6.402 1.214 17.47 4.018 28.866 21.228 31.48 111.515 4.409 102.599-208.186 69.847-271.861-10.51-24.896 9.258-27.677 27.432-28.381 35.095-5.654 44.882 108.621 47.065 122.06 1.976 23.454-.575 45.667-1.603 69.302-4.098 71.747-35.656 107.73-67.957 154.523-31.006 38.962-35.492 37.865-37.587 77.339-1.433 69.189 12.884 64.527-45.985 75.697-.028-.212-.058-.424-.088-.636z"/><path d="m334.756 609.37-.124-.868c-31.226 2.736-63.308-1.622-92.938-12.644-15.751-5.396-34.342-15.077-39.097-26.003l-.074-.191c-4.921-14.44-5.182-29.875-5.434-44.801-.352-20.86-.685-40.567-12.572-58.039-3.279-4.165-6.643-8.229-9.897-12.16-11.042-13.341-21.473-25.945-28.92-42.265-2.644-5.121-5.588-9.996-8.434-14.711-5.609-9.29-11.409-18.896-14.775-30.3-13.282-40.71-17.667-87.69-12.658-135.792 4.546-43.659 16.909-87.313 34.81-122.921l.093-.168c11.583-19.195 37.034-9.595 50.708-4.438l.283.128c1.856.978 3.479 1.729 4.912 2.392 7.428 3.435 9.711 5.518 6.158 15.387-34.485 85.142-60.437 171.887-17.44 230.229l.149.228c12.619 21.732 38.553 41.073 60.113 35.818l.12-.026c15.72-3.021 19.167-10.45 21.449-15.367 1.461-3.149 3.458-7.449 8.966-5.391 8.334 1.84 16.456 2.724 24.311 3.579 6.599.718 13.422 1.461 20.412 2.766l1.901.355.134 1.929c1.272 18.309 4.321 26.885 18.973 29.16 26.489 1.008 47.654-10.604 62.891-34.501 17.617-27.628 26.804-71.177 25.871-122.624-.794-43.788-9.185-87.396-21.377-111.1l-.08-.171c-3.911-9.265-4.172-16.349-.797-21.658 5.144-8.091 17.584-9.687 30.289-10.188 4.969-.763 9.723.53 14.124 3.835 22.857 17.164 31.44 86.658 34.671 112.819.42 3.405.752 6.094.98 7.497l.023.191c1.479 17.561.47 34.065-.598 51.539-.36 5.89-.732 11.981-.998 18.081-3.667 64.194-28.507 99.312-57.271 139.975-3.637 5.141-7.397 10.457-11.126 15.86l-.102.136c-4.692 5.896-8.753 10.846-12.335 15.212-19.915 24.275-22.976 28.006-24.711 60.702-.277 13.435.046 24.102.306 32.673 1.072 35.343.257 36.174-43.609 44.456zm-127.535-41.42c4.186 9.414 22.072 18.375 36.155 23.199 29.735 11.061 61.923 15.255 93.148 12.153l2.388-.237.059.417 2.141-.405c20.765-3.92 31.187-5.888 35.836-10.577 4.44-4.478 4.194-12.611 3.703-28.814-.262-8.628-.587-19.366-.305-33.009 1.825-34.415 5.492-38.884 25.842-63.689 3.558-4.336 7.589-9.25 12.236-15.088 3.73-5.403 7.482-10.707 11.111-15.837 28.319-40.035 52.776-74.61 56.359-137.339.266-6.109.64-12.223 1.001-18.135 1.055-17.256 2.051-33.557.614-50.72-.241-1.511-.558-4.072-.992-7.589-2.857-23.137-11.554-93.546-32.711-109.434-3.366-2.527-6.791-3.467-10.481-2.874l-.301.03c-11.396.441-22.482 1.702-26.41 7.88-2.386 3.752-2 9.453 1.148 16.945 12.491 24.35 21.08 68.769 21.886 113.21.551 30.358-2.18 87.019-26.654 125.403-16.289 25.546-38.984 37.92-67.445 36.804l-.277-.026c-18.86-2.864-21.959-15.979-23.203-31.833-6.157-1.065-12.242-1.728-18.144-2.37-8.047-.875-16.368-1.781-25.035-3.709l-.375-.115c-.794-.314-1.066-.25-1.067-.247-.41.186-1.2 1.889-1.723 3.016-2.542 5.48-6.797 14.648-24.981 18.161a35.528 35.528 0 0 1 -8.364.975c-21.708.002-45.13-18.462-57.126-39.037-21.21-28.853-27.87-66.298-20.357-114.466 6.349-40.708 21.647-81.926 37.234-120.405.415-1.157 1.783-4.958 1.149-6.217-.431-.855-2.331-1.734-4.736-2.846-1.453-.672-3.094-1.431-5.006-2.434-16.977-6.396-35.769-11.967-44.469 2.316-17.612 35.064-29.779 78.07-34.26 121.104-4.937 47.411-.629 93.675 12.459 133.792 3.205 10.854 8.585 19.765 14.281 29.199 2.899 4.802 5.897 9.767 8.625 15.057l.053.109c7.173 15.744 17.41 28.112 28.247 41.207 3.291 3.976 6.693 8.087 10.027 12.324l.1.137c12.778 18.727 13.139 40.137 13.488 60.842.244 14.506.497 29.503 5.132 43.172zm-16.964 567.506c-6.314 45.426-23.594 28.053-56.139 32.243-110.877 2.557-125.962 7.079-128.877 3.937-5.412-33.202 69.874-49.953 88.09-65.939 2.393-1.721 3.375.123 5.213 2.533 22.259 26.463 59.143 31.061 91.713 27.226z"/><path d="m10.577 1175.209c-4.457 0-5.918-.525-7.168-1.873l-.513-.553-.122-.745c-3.99-24.482 30.961-40.036 59.045-52.533 12.508-5.566 24.321-10.823 29.863-15.687l.19-.151c4.158-2.991 6.766.509 8.167 2.39l.462.615c24.571 29.152 66.593 28.994 89.464 26.302l3.214-.378-.446 3.206c-4.739 34.097-15.62 35.123-36.048 34.035-6.499-.345-13.865-.736-22.248.343l-.262.02c-57.928 1.336-89.993 3.227-107.219 4.242-7.956.468-13.019.767-16.379.767zm-3.023-5.167c2.13.407 8.791.015 19.109-.593 17.245-1.017 49.33-2.909 107.268-4.247 8.777-1.117 16.342-.714 23.02-.36 17.022.903 25.867 1.372 30.356-26.553-24.449 2.408-65.74 1.195-90.675-28.451l-.601-.794c-.352-.472-.805-1.081-1.116-1.403l-.039.026c-6.141 5.332-17.677 10.466-31.023 16.405-26.005 11.572-58.244 25.917-56.299 45.97zm357.753-36.283a.976.976 0 0 1 1.311-.856c30.813 11.265 66.913 5.286 94.399-12.294 3.239-1.899 4.693-4.95 8.207-6.842a.989.989 0 0 1 .8-.058c5.801 2.073 12.249 5.63 18.315 8.415l.049.024c25.282 13.675 55.013 28.129 60.639 44.474.204.592-.167 1.23-.787 1.317-30.165 4.242-61.209.103-92.01 1.159a.683.683 0 0 1 -.064 0c-53.842-2.124-74.281 5.121-83.543.625-7.241-3.518-8.634-15.559-7.316-35.964z"/><path d="m381.754 1173.727c-4.328 0-7.547-.458-10.223-1.757-9.011-4.375-10.003-18.504-8.72-38.373v-.001c.071-1.089.659-2.094 1.572-2.689s2.069-.726 3.093-.352c28.788 10.523 64.115 5.906 92.192-12.052 1.337-.786 2.289-1.762 3.391-2.892 1.314-1.347 2.803-2.875 4.979-4.046a3.488 3.488 0 0 1 2.827-.211c3.997 1.429 8.274 3.53 12.41 5.561 2.021.993 4.111 2.02 6.106 2.936l.203.102c2.459 1.331 4.969 2.672 7.495 4.023 24.048 12.859 48.915 26.156 54.311 41.832a3.504 3.504 0 0 1 -.325 2.981 3.463 3.463 0 0 1 -2.478 1.625c-18.821 2.647-38.228 2.06-56.996 1.493-11.582-.35-23.558-.714-35.276-.311l-.1.003-.164-.004c-27.97-1.104-47.184.359-59.9 1.328-5.913.448-10.585.804-14.397.804zm-14.074-37.798c-1.105 19.491.723 28.964 6.036 31.543 3.816 1.853 10.683 1.331 22.058.463 12.821-.976 32.194-2.45 60.432-1.34 11.878-.404 23.905-.041 35.538.312 17.913.541 36.415 1.101 54.227-1.188-6.133-13.212-30.046-26-51.248-37.336-2.517-1.346-5.018-2.683-7.477-4.013-2.04-.938-4.142-1.97-6.175-2.969-3.777-1.855-7.676-3.771-11.233-5.101-1.22.772-2.185 1.761-3.197 2.8-1.241 1.272-2.524 2.588-4.359 3.664-18.849 12.058-40.91 18.344-62.295 18.346-11.136.002-22.082-1.701-32.307-5.181zm-8.799-857.22c-3.152 22.321 21.034 22.713 10.912 35.482-24.203 10.672 6.16 46.023-31.531 47.359-5.053.807-7.673 4.181-10.752 8.125-6.926-7.578-40.822-4.896-45.643-7.594-6.246.648-2.759-5.233-3.328-9.527-.921-9.501-.072-19.532-3.431-26.456-2.866-3.642-8.103-3.646-9.32-8.533-.749-4.389.231-9.236 4.103-12.228 1.63-1.822 3.981-2.679 6.126-.62 26.267 21.534 68.222 1.444 82.497-26.12.102-.196.398-.107.367.112z"/><path d="m327.689 373.508-2.025-2.146c-3.676-4.021-19.237-4.736-29.534-5.209-7.753-.356-12.272-.606-14.708-1.532-1.983.081-3.452-.399-4.492-1.475-1.774-1.835-1.408-4.483-1.085-6.82.168-1.218.342-2.478.214-3.443-.286-2.932-.406-5.813-.522-8.6-.267-6.385-.52-12.423-2.558-16.834-.863-.995-2.087-1.68-3.379-2.403-2.344-1.312-5.261-2.945-6.239-6.875l-.039-.183c-1-5.854.816-11.25 4.862-14.489 1.436-1.53 3.181-2.406 4.938-2.473 1.145-.044 2.861.238 4.546 1.815 11.727 9.57 25.265 9.302 34.564 7.386 18.134-3.734 35.84-16.907 44.061-32.778a2.692 2.692 0 0 1 3.215-1.331 2.687 2.687 0 0 1 1.848 2.941v.001c-1.444 10.221 3.418 15.182 7.708 19.559 4.214 4.3 8.991 9.174 2.688 17.126l-.384.485-.566.25c-9.274 4.089-9.244 12.131-9.209 21.442.042 11.246.096 25.235-23.08 26.121-3.974.69-6.089 3.4-9.004 7.134zm-45.293-13.994.691.387c1.288.707 7.933 1.012 13.273 1.258 13.735.631 24.948 1.441 30.741 5.006 2.754-3.384 5.718-6.276 10.766-7.083l.306-.03c18.497-.655 18.464-9.236 18.42-21.112-.036-9.51-.076-20.268 11.6-25.766 2.963-3.958 1.715-5.552-2.699-10.056-3.441-3.512-7.836-7.997-9.067-15.357-9.928 13.908-26.393 24.904-43.185 28.362-14.889 3.068-28.309.137-38.81-8.472l-.146-.13c-.538-.517-.864-.502-.972-.5-.441.017-1.024.384-1.56.982l-.334.312c-3.801 2.938-3.513 7.711-3.184 9.732.453 1.689 1.627 2.415 3.807 3.635 1.661.93 3.544 1.984 5.029 3.871l.167.212.118.243c2.604 5.368 2.883 12.021 3.177 19.066.114 2.719.231 5.531.494 8.24.207 1.549-.024 3.221-.228 4.696-.115.829-.28 2.027-.215 2.598.182.025.504.042 1.025-.013zm74.009-81.153-.001.007zm-211.408-266.416c10.278 13.138 15.126 29.177 23.818 44.237 11.314 5.421-1.284-11.722-2.298-15.612-5.617-11.98-10.171-24.001-13.181-37.087 6.511 3.437 29.766 68.171 31.171 48.802-8.209-19.709-25.165-39.82-19.475-50.35a.412.412 0 0 1 .636-.097c19.366 18.102 15.668 58.688 46.915 64.898-.188-1.493.771-2.17 1.869-1.878 13.575 2.414 21.605-10.518 31.036-17.834 13.34 4.373-31.432 33.566-32.853 37.867-5.801 5.302-7.548 12.483-11.269 19.553-28.261-15.865-36.8-9.453-34.539-15.5 6.712-29.663-26.758-65.601-21.923-76.986.016-.039.068-.044.093-.013z"/><path d="m201.976 106.505-1.344-.754c-15.498-8.7-24.89-10.593-29.936-11.609-2.961-.597-4.592-.925-5.369-2.324-.603-1.084-.298-2.321.058-3.3 3.774-16.916-5.975-36.105-13.812-51.529-5.761-11.338-10.311-20.294-8.05-25.618l.333-.785 1.736-.261.586.697c6.396 8.175 10.61 17.212 15.072 26.78 2.652 5.686 5.391 11.561 8.629 17.222 1.178.532 1.823.671 2.139.703-.028-1.645-2.78-6.603-4.145-9.062-1.335-2.406-2.4-4.325-2.767-5.569-6.246-13.337-10.451-25.185-13.232-37.276l-.734-3.192 2.896 1.529c2.936 1.55 7.336 10.671 14.271 25.426 4.649 9.892 11.57 24.614 14.374 26.627.098-.293.219-.809.301-1.683-2.663-6.316-6.212-12.663-9.646-18.804-7.419-13.266-13.826-24.723-9.623-32.501.281-.52.779-.873 1.366-.968a1.928 1.928 0 0 1 1.615.489c7.943 7.425 12.124 18.494 16.167 29.198 5.989 15.856 11.656 30.858 28.497 34.988.167-.362.404-.681.706-.944.716-.626 1.698-.838 2.704-.594 9.375 1.641 15.853-4.59 22.71-11.186 2.287-2.2 4.653-4.475 7.091-6.366l.629-.489.757.249c2.469.81 3.234 2.328 3.441 3.459 1.052 5.755-10.117 15.287-24.829 27.149-4.68 3.774-9.985 8.052-10.522 9.191l-.123.372-.275.228c-3.87 3.537-5.874 8.066-7.996 12.862-.906 2.048-1.844 4.167-2.957 6.282zm-33.992-16.148c.442.267 1.896.56 3.304.844 5.057 1.019 14.344 2.89 29.446 11.176.78-1.583 1.485-3.177 2.173-4.731 2.213-5.002 4.306-9.732 8.489-13.653.868-1.631 3.897-4.162 11.288-10.122 8.589-6.925 24.576-19.816 23.761-24.274-.025-.139-.091-.497-.719-.849-2.067 1.673-4.066 3.595-6.169 5.619-7.109 6.837-14.463 13.904-25.368 11.968l-.123-.027-.006-.001c-.004.059-.003.14.01.243l.26 2.064-2.041-.406c-19.657-3.908-26.051-20.837-32.235-37.208-3.718-9.844-7.557-20.005-14.279-26.955-1.956 6.514 3.951 17.076 10.18 28.213 3.537 6.324 7.194 12.862 9.938 19.45l.137.329-.026.356c-.09 1.24-.329 4.535-2.625 4.961-3.677.682-8.018-7.714-17.787-28.496-2.869-6.104-6.159-13.103-8.809-17.986 2.65 9.32 6.249 18.732 11.093 29.062l.094.259c.227.87 1.396 2.977 2.527 5.015 3.63 6.541 5.695 10.659 3.771 12.701-1.467 1.558-4.031.619-6.1-.373l-.419-.201-.232-.402c-3.406-5.901-6.242-11.982-8.984-17.864-3.854-8.263-7.519-16.124-12.544-23.271.555 4.666 4.19 11.82 8.261 19.831 8.07 15.883 18.114 35.649 14.042 53.645l-.058.194c-.189.499-.238.764-.25.889zm314.706-64.917c-6.567 17.312-21.201 31.666-30.757 47.425 4.966 9.002 31.385-38.39 37.898-37.498-9.104 24.846-37.742 41.905-38.57 70.655-19.919-4.308-35.241 5.024-37.906 1.201-3.743-23.944-37.094-44.734-31.978-57.818 3.396-2.644 4.989 3.55 6.894 6.362 41.012 56.769 66.564-32.083 82.826-34.549 2.812 6.438-2.468 11.944-6.499 17.181-15.668 20.862-26.712 29.808-22.055 31.564 6.674 3.631 38.67-50.611 40.147-44.523z"/><path d="m415.901 109.661c-1.708 0-2.971-.424-3.776-1.579l-.198-.284-.053-.342c-1.812-11.594-10.968-22.611-19.046-32.331-8.436-10.149-15.721-18.916-12.847-26.265l.15-.384.326-.253c1.061-.826 2.146-1.122 3.226-.878 2.157.486 3.38 2.917 4.563 5.268.442.879.859 1.709 1.269 2.313 8.852 12.252 17.708 18.418 26.146 18.257 14.593-.257 26.927-18.665 36.837-33.455 7.169-10.701 12.833-19.152 18.375-19.993l1.139-.173.461 1.055c2.877 6.585-1.518 12.145-5.395 17.05-.437.552-.87 1.101-1.29 1.646-5.682 7.565-10.685 13.482-14.705 18.236-3.977 4.703-8.085 9.562-8.119 10.962.027.013.062.029.108.046l.188.086c.168.032 1.989.138 8.828-8.038 4.446-5.315 9.682-12.522 14.303-18.882 10.858-14.946 13.863-18.693 16.203-18.224.77.152 1.351.745 1.555 1.585l.11.452-.165.434c-4.19 11.047-11.625 20.937-18.815 30.5-3.917 5.211-7.959 10.588-11.352 16.017 3.352-.478 12.202-12.262 18.117-20.137 9.913-13.198 14.606-18.93 17.992-18.472l1.846.253-.641 1.75c-3.81 10.398-11.018 19.526-17.989 28.354-9.84 12.461-20.016 25.347-20.49 41.828l-.052 1.805-1.764-.381c-11.282-2.441-20.884-.418-27.895 1.059-2.903.612-5.29 1.115-7.15 1.115zm-1.143-3.15c.956.514 4.656-.264 7.673-.9 6.531-1.375 16.237-3.419 27.416-1.399 1.13-16.609 11.251-29.427 21.049-41.835 5.883-7.45 11.939-15.119 15.833-23.465-3.379 3.383-8.53 10.241-12.287 15.243-10.128 13.484-16.605 21.646-21.012 21.34-.835-.059-2-.437-2.811-1.905l-.419-.76.45-.742c3.607-5.949 7.991-11.779 12.229-17.417 6.026-8.016 12.228-16.265 16.428-25.126-2.854 3.433-6.96 9.084-10.491 13.945-14.924 20.54-22.486 30.04-26.893 27.84-1.239-.498-1.696-1.349-1.861-1.983-.678-2.609 2.27-6.095 8.729-13.734 3.995-4.725 8.967-10.605 14.607-18.115.438-.57.88-1.128 1.324-1.691 3.369-4.262 6.566-8.307 5.429-12.747-4.115 1.849-9.496 9.879-15.163 18.337-10.299 15.37-23.116 34.499-39.276 34.784-9.649.182-19.037-6.22-28.657-19.537-.544-.802-1.004-1.717-1.492-2.685-.661-1.315-1.769-3.516-2.542-3.69-.111-.024-.258.028-.395.101-1.753 5.677 4.868 13.645 12.506 22.835 8.221 9.89 17.521 21.081 19.626 33.306z"/></g><path d="m168.574.062c8.371 3.003 10.178 12.411 13.918 19.574 7.952 15.423 13.175 35.757 27.503 40.576 9.272 1.866 26.455-13.847 29.668-15.895 7.483-2.705 12.683 3.13 12.543 9.838-4.964 22.252-36.427 25.208-42.314 47.794-7.227 10.87 5.776 12.368 5.016 21.739-22.009 44.612-40.178 116.683-39.671 144.52-4.787 60.022 32.958 111.388 72.596 114.018 11.59 2.059 14.791-7.482 18.27-15.526 1.17-3.719 4.799-16.736.982-16.23-22.3-11.818-40.846-35.605-36.659-61.715.315-1.733-.108-1.887-2.119-1.674-16.655.561-31.193-10.479-36.616-25.824-14.267-49.605 53.285-76.507 75.562-32.966 1.948 3.382 1.871 6.931 3.387 10.507 7.989-3.182 15.879-7.6 24.556-9.281 27.407-4.375 56.803 8.141 64.457 24.015 3.394 10.97 9.1 18.223 8.132 29.528.215 5.674.049 10.745 4.715 14.806 4.865 4.229 11.047 10.204 7.417 17.417-2.398 3.234-8.439 3.874-10.523 6.072-1.672 8.38-1.451 17.526-2.807 25.39-2.61 25.646-31.003 5.662-33.313 31.995-.688 13.433 2.58 21.47 13.868 25.343 15.53 5.23 35.022-11.846 41.96-19.803 18.68-20.016 26.634-46.869 32.295-73.102 4.75-22.83 5.819-45.26 7.456-68.384-1.451-23.482-4.056-46.912-10.079-69.553-6.038-21.398-19.866-47.174-14.424-54.887 1.137-2.651 4.051-4.332 2.803-7.629-3.313-24.893-27.277-32.696-31.666-52.557-2.249-7.771 6.396-15.926 13.639-11.104 8.249 7.195 18.314 22.917 26.22 21.924 22.356.722 46.091-69.765 60.613-44.888 8.258-4.647 15.448.009 10.111 8.768 15.976.895 7.469 9.929 2.779 17.619-12.681 19.919-31.09 40.575-32.277 56.14 5.01 3.526 11.597 5.891 15.066 11.779 18.264 26.585 23.738 59.022 27.06 90.509 8.06 46.611.315 103.362-4.491 131.734-5.29 26.256-18.947 49.666-33.133 72.134-68.412 103.68-68.417 56.346-68.831 159.934-.054 6.875.371 13.014-2.952 19.351-.913 3.645 1.27 8.348 1.709 12.333 7.208 42.21 17.086 83.296 25.367 124.993 12.936 71.566 24.201 143.061 36.097 214.678 25.333 145.902 30.638 151.344 21.408 164.149 20.541 5.119 105.052 47.587 71.084 66.591-26.732 5.011-54.07 1.609-81.125 2.467-109.996-1.164-94.316 1.789-100.631-16.82-4.942-15.717-1.016-23.904-3.389-33.49-10-7.733-9.956-33.143-12.621-41.442-3.874-20.538-9.552-40.374-11.697-61.282-3.561-25.672-3.022-50.773-5.98-76.434-5.599-39.817-10.243-79.118-13.225-119.173-1.618-14.617-8.969-54.959-29.159-44.063-10.046 13.317-17.775 42.046-20.868 49.969-9.742 27.572-12.552 56.834-18.159 85.543a5562.51 5562.51 0 0 0 -24.075 160.378c-11.644 69.012-29.294 42.453-30.064 60.703-4.092 24.563-5.613 33.799-26.157 33.176-16.467.675-32.672.789-49.26 1.765-64.859 1.701-107.665 4.569-109.128 2.459-18.329-7.311-6.232-30.653 5.319-38.667 8.729-7.726 18.35-11.219 28.852-15.659 16.598-7.192 32.702-13.839 48.881-21.964 2.615-.941-.975-5.706-1.17-7.708-3.782-9.863-1.599-19.998-.663-30.268 1.214-13.193 2.661-26.179 3.978-39.45 8.869-75.404 26.907-149.401 45.023-223.103 13.683-56.014 26.55-112.068 46.193-166.417 5.715-17.052 10.683-34.084 14.403-51.684.194-1.495.414-2.16-.903-3.587-6.587-12.279-8.295-26.373-9.115-40.212-.725-13.76.552-27.706-2.017-41.425-9.088-36.609-25.81-42.013-38.478-61.953-10.755-16.113-18.943-33.434-28.375-50.252-10.05-20.014-13.081-40.439-16.34-61.373-9.546-64.281.14-121.714 20.594-176.983 26.526-73.439 30.701-51.278 36.459-57.295 4.215-30.687-43.663-87.993-13.558-80.069-3.18-11.912 4.24-11.213 11.968-7.186 1.215-2.689 4.94-3.569 8.105-3.251zm168.197 605.728.09.635c15.222-2.799 44.306-6.328 46.232-18.994.946-34.436-5.418-81.71 12.2-103.196 36.921-42.846 68.288-92.468 75.857-111.847 17.623-35.514 17.123-76.005 19.503-114.815.826-23.486-2.891-45.571-6.266-68.481-2.435-23.922-18.044-80.53-36.297-81.669-27.849-.151-44.561 5.341-30.031 34.142 31.222 76.357 26.363 212.286-26.407 251.767-14.482 12.39-40.341 19.12-54.82 11.747-11.073-7.394-11.388-14.464-11.783-24.01-.19-2.046.397-5.017-1.569-5.229-12.909-1.826-24.547-2.312-36.964-4.719-13.871-2.568-9.398-2.941-15.045 6.817-3.205 5.667-9.457 7.943-14.832 11.475-5.783 1.774-11.788 2.013-17.93 2.349-24.734-3.585-42.953-23.343-55.382-43.867-24.501-38.815-22.299-88.318-10.668-131.116 6.775-32.719 18.623-63.274 31.178-93.938 1.022-4.076 4.824-10.018-.787-12.138-15.449-8.84-40.597-15.719-50.67-7.042-19.139 14.777-37.242 104.955-37.675 111.732-10.456 55.877-2.501 120.427 14.669 162.996 40.937 75.964 39.509 63.007 56.903 86.58 22.87 35.45 6.785 72.479 18.723 104.122 6.045 13.022 31.694 22.459 38.165 24.629 29.971 11.066 61.831 15.177 93.606 12.07zm-146.514 529.666c-86.226 8.288-89.795-38.471-98.431-28.944-18.686 11.566-37.791 20.368-57.92 28.938-13.958 7.296-32.014 21.027-28.585 36.296 12.489 3.124 26.746-1.469 39.93-.969 159.027-8.048 132.582 7.691 145.006-35.321zm175.134-3.012c-5.761 47.675 12.376 33.629 20.13 35.326 24.321.922 47.523.801 71.61 1.338 30.509-.634 100.568 3.356 91.72-3.314-6.691-12.382-14.118-17.099-24.472-23.132-12.657-8.101-24.86-15.016-38.26-21.634-21.981-10.043-13.782-8.985-24.512-.865-27.738 18.727-66.9 23.84-96.216 12.281zm-6.311-854.974c-23.059 42.793-71.839 41.449-83.876 26.539-2.371-1.529-4.205.264-6.022 1.974-3.845 3.199-4.511 9.544-2.596 13.613 2.525 3.396 7.296 3.908 9.49 7.798 2.092 11.04 2.8 22.731 2.055 34.164 21.179 3.935 47.637 2.1 49.378 8.119 2.866-3.881 6.478-7.968 11.759-8.225 27.923-1.084 16.83-24.811 22.255-41.78 1.791-3.226 6.437-3.455 9.203-6.11 6.224-11.064-10.09-16.078-11.453-23.557-.713-3.961.207-9.202-.193-12.535zm-214.14-265.597c-3.183 4.066 6.248 19.434 6.919 22.126 7.621 17.522 19.294 36.485 15.042 54.586.172 1.11-1.445 2.694.122 2.991 4.06 1.061 8.223 1.952 12.53 3.195 7.804 2.119 14.733 6.196 21.813 9.672 3.279-5.95 5.126-13.487 10.253-18.467 5.349-7.951 46.471-34.324 33.962-38.951-1.384.128-1.567.368-2.644 1.659-22.078 25.908-30.792 11.757-30.354 18.052-31.55-6.267-27.28-46.986-47.293-65.246-7.137 11.76 18.378 43.535 19.526 51.65-.096.586 1.128 1.018-.053 1.582-5.748 4.614-8.451-9.838-10.855-12.668-12.983-23.236-15.638-35.832-20.572-38.571 4.196 18.475 12.051 35.87 20.93 52.485-3.031 1.687-4.682 1.684-5.906-.454-10.134-19.191-16.258-35.626-23.42-43.641zm337.75 13.567c-7.255 2.659-11.15 14.168-17.144 20.12-18.416 21.364-19.744 28-24.146 23.467 1.408-8.002 40.865-45.026 28.485-47.382-20.693 14.575-26.392 49.939-54.601 53.084-1.758-.1-4.322 1.054-3.883-1.761-10.901-.575-19-10.188-24.174-18.995-2.037-5.654-7.091-7.837-6.58-.295.592 3.804 3.622 6.369 5.371 9.885 9.344 15.139 24.79 26.391 27.62 44.759 12.557-1.577 25.112-5.224 37.624-2.3 1.07-29.794 34.936-53.246 38.57-70.655-12.227 8.289-19.256 22.539-29.225 33.442-5.76 8.967-9.942 4.927-8.201 2.263 11.318-14.873 23.048-28.564 30.284-45.632z"/></svg><svg height="825.697" transform="matrix(1.49946234 0 0 1.50055044 804 186)" viewBox="0 0 1202.431 825.697" width="1202.431"><path d="m1165.002 12.089c-.73 828.433 174.538 616.478-227.275 694.291 7.135-4.304 15.441-26.879-11.558-9.786-95.266 47.599-800.189 98.887-826.416 129.103-43.84-162.536-59.373-333.339-86.536-504.004-23.161-191.214-51.947-102.716 258.281-172.312 130.681-24.583 921.101-195.738 893.504-137.292zm15.542 635.257c-13.561-204.224-26.846-407.541-37.54-616.516-122.619 74.082-533.212 457.785-542.365 420.332-253.897-114.858-474.369-181.21-582.331-240.709 89.535 541.443 75.738 614.634 140.952 588.17 342.891-52.306 675.814-100.807 1021.285-151.277zm-1143.356-444.635c189.204 79.581 392.917 150.584 584.436 226.074 156.436-137.238 322.788-269.03 487.2-404.717-354.866 46.159-710.722 128.295-1071.636 178.643z"/><g fill="#fff"><path d="m1180.544 647.346a193716.906 193716.906 0 0 0 -1058.696 156.77c-52.252-191.327-68.235-394.106-103.54-593.663 193.928 85.857 406.307 171.746 606.428 243.06 164.039-147.424 339.622-285.16 518.269-422.682 10.111 201.614 23.94 409.748 37.54 616.516z"/><path d="m37.188 202.711c355.635-49.191 710.824-131.745 1071.636-178.643-167.109 124.177-332.436 295.145-501.952 403.25-188.836-87.734-523.426-193.874-569.684-224.607z"/></g></svg><svg height="1012.786" transform="matrix(-1.54869272 0 0 1.55067309 1212 1312.5)" viewBox="0 0 625.689 1012.786" width="625.689"><g fill="#fff"><path d="m310.749 245.468c56.187-30.55 163.286-28.732 170.012 51.923-4.353 55.639-37.756 180.756-74.138 183.572-39.72 12.889-119.333 7.286-107.853-48.992 37.586-123.903-26.349-11.527-109.512-62.739-75.034-38.264-82.679-132.057-101.278-205.951 6.237-22.812 30.166-58.869 53.542-30.598 36.453 55.074 10.728 166.155 104.807 161.268 12.176-3.825 22.314-20.454 34.837-30.485 14.669-11.749 30.769-16.859 29.583-17.999zm215.152 649.094c21.685 10.946 48.47 9.009 70.538-3.116 19.752 85.35 26.268 83.041 3.075 84.66-10.295 2.982-6.477-11.202-15.585-17.367-19.843-20.885-28.727 1.261-35.036 18.597-24.773 8.715-52.981 4.039-80.414 6.825-19.093.24-34.695 3.078-54.18 3.018-15.316-17.028 108.211-84.259 111.602-92.615zm-359.497-.881c14.783 14.641 34.967 37.829 59.685 27.619-.201 83.191 7.62 72.897-37.694 75.766 10.328-17.776-.896-35.836-22.861-34.494-14.957 3.752-15.448 18.116-22.758 31.82-17.97 9.533-42.577 4.947-63.947 8.611-36.115 6.308-57.353.857-24.794-29.008 38.929-25.31 78.152-46.991 112.37-80.315z"/><path d="m345.734 222.529c-23.491 3.381-57.279 45.035-66.568 32.939-133.87-137.744-72.171-223.387-34.419-152.376 29.712 41.445 56.085 93.226 100.987 119.437zm40.716-141.474c27.191 91.291 80.318 65.57 72.636 91.147-2.557 7.498-11.453 6.829-20.075 7.023-9.104 8.363-9.436 28.268-16.905 41.153-1.174 3.712-1.92 2.818-7.665 1.242-52.516-11.371-55.995 15.861-43.159-33.397-1.802-9.335-17.479-11.114-17.981-21.541-.957-9.506 11.536-23.375 4.606-30.579-3.533-3.831-9.948-6.365-9.239-11.76 1.54-3.725 1.746-4.674 7.232-6.608 28.414-4.319 15.158-22.076 30.552-36.679zm-380.834-25.608c10.512-3.766 20.931 1.949 31.91 7.176 13.466 4.431 52.065 32.753 48.277 14.797-18.301-16.228-54.025-16.873-67.022-41.855 24.616-6.537 72.484 47.202 76.937 30.984-2.425-14.196-38.419-19.896-46.357-32.352-9.749-31.095 66.861 32.169 70.839 38.157 11.094 14.528 22.324 30.698 22.569 49.335-40.912-13.589-33.873 2.31-57.918 13.377-16.504-11.547-35.35-14.13-50.688-25.98 9.532-11.287 25.933.77 38.966 2.216 7.974 1.962 17.113 6.865 18.088-5.506-1.703-23.641-76.385-38.094-85.601-50.349z"/><path d="m112.296 48.468c16.962 7.464 53.933 34.551 58.253 19.49-19.736-11.486-47.625-14.487-62.382-35.873 22.182 9.557 45.125 19.423 68.112 29.89 5.394-1.646 6.61-7.553-1.39-11.23-23.472-12.481-48.805-16.849-70.691-33.592 60.762-18.976 85.044 46.264 98.043 40.39 7.543-2.681-6.923-10.048-13.069-19.661s-7.671-21.472-6.8-27.432c18.621 19.178 30.165 41.316 45.891 63.979-16.648.807-32.638 6.184-41.531 22.647-22.35-18.391-55.391-23.947-74.436-48.609z"/></g><path d="m294.725 379.131c-175.205 46.082-209.736-113.417-212.833-235.438-17.132-10.124-34.124-13.284-50.797-24.24-18.269-34.852 29.514-25.218 47.628-15.926-19.91-18.617-52.547-20.643-74.953-39.457-8.6-13.746.812-21.808 15.989-17.387-17.231-37.432 21.318-4.523 24.033-22.471 17.486-23.027 43.984 17.587 57.654 15.182.798-2.887-.785-6.281-2.709-9.713-3.309-5.903-1.328-13.534 4.688-16.634 23.081-11.891 52.472 2.666 73.747 18.436-.034-7.369-9.301-24.651 1.81-29.784 21.541-11.12 50.253 58.523 53.349 70.333 49.888 34.013 67.923 103.792 121.081 136.932 22.455-36.361-5.564-24.216-8.671-47.524-1.086-9.771 11.568-20.262 5.664-28.466-4.475-3.255-8.231-5.773-8.098-11.788.339-3.337 2.377-7.316 7.583-9.008 21.747-3.606 15.324-28.855 32.564-39.623 4.59-16.855-4.699-38.964 9.467-55.852 41.794-32.012 82.922 22.805 83.814 63.981 8.182 44.217 58.221 58.777 33.72 105.366-8.689 17.087-24.052 26.609-42.526 30.667-12.252 4.86-39.664-6.44-32.941 12.239 38.288 19.231 71.74 57.091 59.574 102.516-8.881 50.307-22.971 95.94-44.34 142.214 34.243 70.248 73.431 138.824 103.313 212.033 79.792 197.829 36.685 164.996 54.848 217.115 20.643 98.366 30.48 79.547-10.936 85.288-29.183-4.236-1.393-31.767-21.591-25.51-22.341 13.774 1.16 28.615-34.533 29.495-38.325-.876-76.809 3.118-116.536 3.887-75.236-13.873 63.399-82.88 79.199-95.936 4.631-2.926 7.831-5.316 12.49-9.28.37-1.026 3.515-1.886-.297-4.346-9.65-9.182-17.358-20.113-23.059-33.161-31.34-71.895-43.922-151.424-87.69-216.614-34.074-47.302-46.711-42.844-65.734 5.813-38.428 88.09-47.436 184.187-99.827 265.086-9.132 50.496 14.663 99.826-22.417 95.19-72.211 6.061-17.828-32.88-42.607-32.868-4.579 2.035-9.093 6.052-11.277 12.5-7.177 32.761-30.917 20.138-52.782 25.311-26.788-.603-70.415 17.351-82.92-13.857-10.975-26.557 112.915-80.809 120.692-95.267 8.144-7.763 18.299-9.392 14.016-23.28 3.631-148.966 78.715-280.978 120.233-421.429-1.75-26.477 8.807-49.037 12.918-74.724zm-38.351-89.419c-14.8 9.438-30.169 4.069-46.416-2.323-62.758-31.339-31.6-123.113-75.72-161.16-20.026-16.248-41.147 18.037-45.236 34.434.649 26.012 11.717 50.632 16.264 77.827 19.217 83.867 61.353 142.715 141.789 145.49 27.217 1.07 61.038-27.865 63.813-2.09-2.249 25.955-20.219 50.848-9.324 78.551 20.532 34.695 91.165 29.908 116.637 15.366 34.242-26.389 36.087-76.961 51.06-115.031 47.358-128.69-65.893-158.343-158.493-115.307.554.496-32.908 29.447-54.375 44.244zm269.527 604.85c-163.888 114.068-129.147 91.451-36.024 88.703 19.768-2.294 42.029 2.552 60.162-7.325 7.772-30.957 26.864-34.693 42.066-4.974.718 7.214 5.509 5.817 12.487 4.359 15.407.602 8.724-7.969 6.757-18.88-4.823-22.243-7.363-43.189-14.912-65-20.177 11.157-48.272 14.785-70.537 3.117zm-359.497-.881c-33.301 33.263-76.879 56.251-116.684 83.778-29.027 31.421.684 29.522 25.538 25.812 29.681-5.11 66.725 2.536 70.627-15.754 9.739-43.485 59.815-24.1 42.51 9.549 11.157-2.394 26.938 2.114 35.322-5.049 4.612-22.747 2.467-47.088 2.371-70.717-23.365 10.068-43.666-11.377-59.685-27.619zm179.33-671.152c-48.816-28.251-72.907-81.794-106.591-125.936-35.111-45.424-50.535 18.727-36.38 46.922 12.545 43.019 49.09 75.191 76.796 109.901 23.514-6.359 41.346-24.801 66.174-30.887zm-69.592 34.014c-134.014-121.537-59.578-135.814-115.99-161.32-31.387-17.972-14.194-4.763-11.724 13.182-.67 23.136 17.578 32.266 22.841 54.522 14.583 62.887 27.82 181.763 104.873 93.616zm110.308-175.488c-8.886 7.432-8.166 19.255-13.196 29.67-14.502 10.428-38.404 5.421-13.606 27.987 2.136 7.685-3.322 12.667-5.915 23.593-5.271 15.007 19.97 15.712 17.325 30.45-7.859 24.464-13.77 27.847 14.19 25.974 16.691-3.035 35.051 10.723 38.068-1.085 5.126-11.905 7.255-22.076 13.072-36.236 4.245-5.998 24.025 1.967 23.278-13.583.477-4.968-1.923-7.513-6.699-8.864-35.241-10.217-57.141-43.203-66.516-77.905zm-380.834-25.608c25.642 18.017 61.876 22.346 84.253 43.832 4.653 15.107-3.375 17.158-16.739 12.024-13.805-1.216-27.069-13.679-38.967-2.217 14.618 11.131 34.901 15.201 52.142 26.469 22.715-17.604 26.462-24.708 56.464-13.866-2.409-41.39-44.293-69.98-76.915-91.974-13.142-6.885-29.445-2.14-9.394 10.175 13.483 12.505 45.191 16.456 37.572 29.772-25.551-4.326-47.176-37.404-75.251-34.096 4.441 10.198 15.758 17.357 26.95 21.731 12.436 8.62 48.839 14.709 37.948 27.742-29.512-10.986-56.015-34.832-78.064-29.591zm106.68-6.979c18.476 24.102 51.338 29.983 74.436 48.609 8.123-15.145 23.857-22.099 41.531-22.647-15.082-21.553-26.755-44.022-45.891-63.979 2.974 13.967 13.066 26.299 19.32 38.333 4.32 5.953 4.037 6.37-2.083 10.491-8.654-7.078-18.519-10.656-28.488-18.843-16.869-14.282-35.942-28.426-56.589-25.938-4.368.526-5.558 6.274-1.803 8.567 19.659 12.007 43.775 17.357 64.436 29.299 8.334 3.29.732 11.574-3.668 8.945-20.457-10.829-43.825-19.529-65.331-29.22 13.193 18.886 37.569 24.41 58.97 33.528 12.904 21.83-48.778-13.734-54.84-17.145z"/><path d="m60.163 1012.763c-14.766 0-27.797-3.861-33.762-18.747-7.252-17.548 41.177-45.823 80.089-68.542 20.357-11.886 37.938-22.15 40.627-27.147l.096-.125c2.067-1.971 4.219-3.52 6.3-5.018 5.97-4.297 10.686-7.691 7.583-17.752l-.024-.078.002-.082c2.47-101.279 38.544-196.323 73.431-288.237 16.467-43.384 33.492-88.241 46.798-133.236-1.119-17.185 2.829-32.385 7.008-48.477 2.139-8.237 4.348-16.746 5.798-25.513-56.162 14.616-102.042 8.956-136.375-16.828-26.71-20.058-46.742-52.517-59.54-96.474-9.928-34.098-15.577-75.32-16.794-122.525-7.868-4.62-15.824-7.828-23.521-10.931-8.902-3.589-18.108-7.301-27.058-13.182l-.108-.071-.06-.115c-5.067-9.666-5.5-16.721-1.287-20.972 8.373-8.445 32.803-3.056 46.356 2.848-9.667-7.952-21.736-12.604-34.45-17.504-13.155-5.071-26.759-10.314-37.822-19.604l-.103-.118c-3.839-6.135-4.411-11.551-1.612-15.252 2.99-3.952 9.494-5.134 17.128-3.165-4.05-9.019-5.002-14.415-3-16.939 2.123-2.679 7.015-1.682 12.193-.625 4.938 1.006 10.044 2.048 12.939.026 1.249-.873 2.003-2.261 2.303-4.243l.019-.126.077-.102c11.301-14.882 26-4.079 38.97 5.453 7.112 5.229 13.831 10.175 18.678 9.586.524-2.481-.717-5.414-2.739-9.022-1.709-3.05-2.116-6.708-1.115-10.036.962-3.198 3.097-5.786 6.012-7.287 24.905-12.833 56.337 5.35 73.416 17.847-.19-1.891-.814-4.312-1.469-6.851-2.121-8.233-4.761-18.479 3.627-22.354 3.231-1.668 6.809-1.659 10.616.037 19.039 8.479 40.194 58.61 43.378 70.442 24.11 16.496 41.112 41.783 57.556 66.238 17.597 26.171 35.789 53.229 62.928 70.311 13.243-21.596 8.333-25.331 1.553-30.487-4.375-3.328-9.334-7.099-10.558-16.279-.488-4.396 1.671-8.858 3.759-13.173 2.642-5.459 5.138-10.617 2.041-15.002l-.372-.27c-4.293-3.115-8-5.806-7.865-11.886.455-4.48 3.418-8.006 7.929-9.473 11.869-1.974 15.204-10.513 18.734-19.553 2.886-7.391 5.87-15.033 13.553-19.913 1.627-6.126 1.427-12.887 1.216-20.04-.362-12.311-.738-25.04 8.3-35.815l.079-.076c13.897-10.645 28.924-12.581 43.454-5.603 22.092 10.61 40.558 41.998 41.164 69.97 3.196 17.241 12.739 29.812 21.969 41.968 13.721 18.073 26.681 35.144 11.693 63.641-8.169 16.064-22.591 26.47-42.861 30.922-4.344 1.729-10.565 1.434-16.581 1.147-7.093-.337-13.789-.655-16.118 2.497-1.217 1.646-1.199 4.183.055 7.75 35.499 17.896 72.358 55.564 59.652 103.002-8.991 50.942-23.064 96.112-44.27 142.08 11.33 23.236 23.41 46.697 35.093 69.388 23.675 45.98 48.155 93.526 68.129 142.462 53.854 133.523 51.784 161.862 50.272 182.554-.724 9.896-1.295 17.713 4.586 34.586 5.296 25.218 9.782 42.375 13.057 54.902 4.307 16.471 6.089 23.288 3.713 26.556-1.78 2.45-5.567 2.668-12.441 3.066-4.132.239-9.272.537-15.669 1.423l-.07.01-.07-.01c-16.65-2.417-15.245-12.599-14.315-19.336.409-2.964.763-5.524-.426-6.532-.99-.84-3.141-.733-6.568.323-9.292 5.748-10.431 11.554-11.436 16.676-1.353 6.897-2.422 12.345-23.293 12.86-22.869-.523-45.251.66-68.952 1.911-15.508.819-31.544 1.666-47.588 1.976h-.051l-.05-.008c-13.715-2.529-21.272-7.129-22.462-13.673-3.501-19.26 49.081-50.925 80.498-69.844 9.979-6.008 17.859-10.754 20.937-13.297 4.597-2.909 7.724-5.229 12.396-9.201.156-.312.437-.569.731-.838.383-.352.779-.714.748-1.086-.025-.308-.331-.853-1.637-1.695-9.992-9.497-17.572-20.396-23.245-33.381-11.67-26.771-20.876-55.015-29.779-82.329-14.957-45.883-30.422-93.328-57.868-134.207-17.429-24.195-28.785-34.018-37.979-32.868-8.81 1.114-16.596 12.292-26.874 38.584-15.331 35.143-26.125 72.066-36.563 107.772-15.619 53.425-31.767 108.663-63.255 157.319-3.287 18.253-2.278 36.086-1.389 51.825 1.055 18.662 1.888 33.401-5.302 40.118-3.541 3.31-8.844 4.475-16.212 3.562-20.985 1.757-33.352-.125-37.81-5.751-3.592-4.533-1.626-10.575.107-15.906 1.244-3.824 2.419-7.435 1.007-9.379-.888-1.221-2.784-1.821-5.796-1.834-3.04 1.372-8.399 4.75-10.909 12.161-5.229 23.883-19.577 23.99-34.767 24.103-6.036.045-12.279.092-18.374 1.534l-.063.015h-.063c-7.077-.158-15.264.973-23.934 2.172-8.47 1.172-17.351 2.401-25.678 2.401zm87.796-113.891c-2.937 5.263-19.729 15.068-40.964 27.466-36.542 21.335-86.589 50.554-79.668 67.302 9.04 22.56 34.12 19.088 58.376 15.732 8.683-1.202 16.865-2.35 24.029-2.185 6.185-1.454 12.463-1.501 18.534-1.546 15.421-.115 28.739-.214 33.813-23.37 2.673-7.904 8.391-11.441 11.562-12.851l.203-.043h.012c3.41 0 5.602.735 6.699 2.247 1.712 2.355.518 6.026-.864 10.276-1.656 5.091-3.533 10.862-.274 14.975 4.237 5.348 16.342 7.104 36.993 5.372l.052-.004.053.006c7.08.885 12.138-.193 15.457-3.293 6.847-6.397 6.025-20.931 4.985-39.331-.894-15.822-1.907-33.755 1.421-52.158l.072-.183c31.444-48.553 47.582-103.755 63.189-157.14 10.447-35.737 21.251-72.69 36.6-107.874 10.562-27.018 18.322-38.012 27.672-39.194 9.722-1.233 21.007 8.414 38.925 33.288 27.533 41.008 43.021 88.521 57.998 134.469 8.896 27.292 18.095 55.512 29.745 82.238 5.619 12.86 13.124 23.654 22.945 32.999 1.286.82 1.95 1.599 2.017 2.394.073.861-.561 1.441-1.068 1.907-.223.203-.474.434-.525.578l-.046.125-.101.086c-4.762 4.051-7.928 6.403-12.547 9.322-3.082 2.553-10.991 7.315-21.005 13.345-31.196 18.786-83.408 50.228-80.031 68.808 1.106 6.085 8.378 10.412 21.61 12.859 16.011-.311 32.021-1.156 47.504-1.974 23.723-1.253 46.126-2.433 69.004-1.913 20.046-.495 20.996-5.342 22.313-12.052.994-5.07 2.231-11.379 11.945-17.369l.115-.052c3.872-1.199 6.278-1.247 7.572-.149 1.606 1.364 1.218 4.176.769 7.432-.978 7.089-2.196 15.91 13.399 18.2 6.402-.885 11.544-1.182 15.678-1.421 6.353-.367 10.188-.589 11.69-2.656 2.098-2.885.227-10.04-3.871-25.715-3.278-12.537-7.768-29.708-13.052-54.888-5.931-17.006-5.354-24.915-4.622-34.926 1.505-20.595 3.566-48.799-50.201-182.105-19.956-48.894-44.427-96.419-68.091-142.381-11.722-22.765-23.842-46.305-35.207-69.62l-.104-.213.1-.215c21.225-45.962 35.302-91.113 44.302-142.092 12.581-46.98-24.086-84.292-59.306-101.982l-.179-.089-.067-.188c-1.441-4.004-1.436-6.906.016-8.87 2.646-3.583 9.604-3.251 16.97-2.901 5.912.281 12.023.571 16.242-1.102 20.041-4.408 34.235-14.638 42.266-30.429 14.693-27.94 2.508-43.991-11.603-62.577-9.299-12.25-18.915-24.917-22.163-42.471-.607-27.713-18.819-58.707-40.605-69.17-14.152-6.796-28.803-4.908-42.37 5.462-8.757 10.475-8.388 22.993-8.03 35.1.215 7.303.419 14.201-1.302 20.52l-.052.189-.166.104c-7.525 4.7-10.47 12.241-13.317 19.534-3.637 9.313-7.071 18.109-19.43 20.158-5.87 1.914-6.971 6.628-7.168 8.566-.121 5.516 3.223 7.942 7.456 11.014l.551.431c3.515 4.883.758 10.579-1.907 16.086-2.026 4.187-4.122 8.517-3.666 12.616 1.167 8.757 5.95 12.395 10.17 15.604 6.972 5.302 12.478 9.49-1.57 32.237l-.265.427-.426-.266c-27.556-17.179-45.908-44.473-63.655-70.869-16.426-24.429-33.41-49.689-57.442-66.074l-.155-.105-.047-.181c-2.987-11.398-24.025-61.573-42.865-69.963-3.517-1.566-6.803-1.583-9.771-.052-7.65 3.535-5.126 13.334-3.098 21.207.831 3.226 1.549 6.011 1.559 8.13l.005.999-.803-.595c-16.68-12.364-48.372-31.195-73.219-18.393-2.672 1.376-4.629 3.751-5.512 6.687a11.98 11.98 0 0 0 1.03 9.259c1.796 3.205 3.638 6.893 2.755 10.09l-.085.305-.311.055c-5.285.925-11.992-4.006-19.764-9.718-12.564-9.235-26.804-19.703-37.504-5.754-.354 2.171-1.262 3.781-2.699 4.785-3.244 2.268-8.564 1.183-13.712.134-4.868-.993-9.466-1.931-11.21.267-1.787 2.255-.62 7.774 3.568 16.874l.458.996-1.052-.307c-7.672-2.233-14.22-1.268-17.088 2.524-2.521 3.333-1.945 8.321 1.62 14.051 10.926 9.152 24.424 14.354 37.479 19.386 14.002 5.397 27.227 10.494 37.434 20.038l2.611 2.442-3.182-1.632c-11.909-6.109-39.795-13.255-48.418-4.555-3.855 3.889-3.384 10.513 1.401 19.689 8.833 5.785 17.953 9.462 26.774 13.019 7.809 3.148 15.883 6.404 23.894 11.138l.239.141.007.277c2.772 109.229 28.323 182.743 75.94 218.502 34.231 25.706 80.076 31.245 136.266 16.466l.742-.195-.121.758c-1.454 9.082-3.735 17.867-5.941 26.363-4.165 16.039-8.1 31.189-6.972 48.249l.006.089-.025.085c-13.319 45.059-30.364 89.965-46.848 133.393-34.849 91.813-70.883 186.745-73.363 287.825 3.266 10.688-1.946 14.438-7.979 18.78-2.034 1.464-4.138 2.978-6.138 4.876zm-94.065 106.917c-7.752 0-13.83-1.33-15.91-5.262-2.513-4.75 1.206-12.406 11.369-23.407l.083-.072c11.634-8.045 23.771-15.819 35.51-23.338 28.303-18.128 57.569-36.873 81.105-60.382l.356-.355 1.52 1.542c15.806 16.047 35.479 36.018 57.964 26.327l.695-.299.003.757c.022 5.485.157 11.108.287 16.546.435 18.07.883 36.755-2.669 54.272l-.034.169-.131.112c-5.413 4.625-13.809 4.516-21.921 4.407-4.689-.062-9.532-.126-13.622.751l-1.032.222.483-.939c4.93-9.585 4.702-19.042-.623-25.945-4.868-6.31-13.094-9.26-20.957-7.514-9.741 2.162-17.03 11-19.997 24.248-2.714 12.721-20.55 13.256-41.201 13.875-9.938.298-20.212.606-29.829 2.262-7.415 1.107-15.01 2.025-21.449 2.025zm-3.844-27.95c-9.676 10.481-13.438 17.958-11.183 22.22 3.538 6.687 21.268 4.963 36.316 2.718 9.676-1.666 19.986-1.975 29.958-2.274 20.231-.606 37.703-1.13 40.254-13.089 3.057-13.647 10.622-22.761 20.758-25.01 8.242-1.831 16.862 1.264 21.966 7.879 5.401 7.002 5.813 16.469 1.175 26.101 3.967-.695 8.472-.635 12.84-.579 7.868.104 15.994.211 21.127-4.057 3.493-17.358 3.047-35.922 2.616-53.879-.125-5.196-.254-10.562-.284-15.818-4.012 1.628-7.929 2.353-11.743 2.353-17.888.002-33.563-15.917-46.636-29.187l-.813-.825c-23.551 23.419-52.711 42.096-80.917 60.162-11.716 7.504-23.829 15.263-35.435 23.287zm374.28 9.542c-7.665 0-12.211-.894-13.144-3.532-2.716-7.677 27.283-29.043 114.428-89.698l.25-.173.269.141c20.096 10.532 47.599 9.31 70.063-3.111l.521-.288.194.562c5.327 15.392 8.111 30.069 11.06 45.608 1.2 6.329 2.442 12.874 3.867 19.449.426 2.358 1.084 4.647 1.664 6.667 1.304 4.534 2.333 8.114.501 10.451-1.414 1.804-4.4 2.558-9.367 2.37l-.953.201c-4.278.905-7.655 1.621-9.827.03-1.25-.914-1.982-2.533-2.236-4.948-7.054-13.752-15.216-20.833-22.95-19.956-7.779.887-14.393 9.965-18.144 24.907l-.054.213-.192.104c-12.323 6.713-26.62 6.691-40.47 6.662-6.615-.011-13.448-.024-19.874.721-15.338.455-29.337 1.462-40.585 2.272-10.271.74-18.704 1.347-25.02 1.347zm101.608-92.236c-82.804 57.634-116.306 81.311-113.809 88.371 1.448 4.091 16.421 3.014 37.149 1.521 11.257-.811 25.268-1.819 40.584-2.271 6.441-.749 13.303-.735 19.948-.725 13.64.021 27.74.05 39.798-6.436 3.868-15.242 10.768-24.512 18.946-25.443 8.177-.938 16.729 6.371 23.996 20.577l.052.178c.216 2.168.818 3.586 1.842 4.335 1.814 1.327 4.999.653 9.029-.202l1.076-.227.062.002c4.61.183 7.415-.47 8.604-1.985 1.517-1.935.55-5.299-.675-9.558-.587-2.042-1.252-4.357-1.684-6.749-1.425-6.571-2.668-13.123-3.869-19.458-2.905-15.313-5.651-29.789-10.829-44.908-22.554 12.257-50.014 13.429-70.221 2.976zm-160.072-407.839c-2.639 0-5.271-.072-7.883-.22-15.938-.9-44.521-5.526-56.868-26.392-7.173-18.224-1.983-35.332 3.035-51.876 2.673-8.812 5.438-17.924 6.222-26.972-.479-4.362-1.904-7.279-4.356-8.821-5.362-3.37-15.09.082-26.356 4.078-10.3 3.654-21.979 7.799-32.622 7.375-38.313-1.322-70.009-15.621-94.203-42.5-21.689-24.097-37.857-58.878-48.053-103.377-1.824-10.904-4.718-21.474-7.516-31.695-4.305-15.729-8.371-30.584-8.762-46.231l-.002-.068.017-.066c3.158-12.665 15.344-33.531 29.115-38.132 5.967-1.993 11.659-.837 16.921 3.431 19.893 17.154 24.485 44.493 29.347 73.437 5.819 34.642 11.837 70.464 46.281 87.664 17.363 6.83 31.798 11.351 45.915 2.354 20.341-14.021 51.093-40.542 53.998-43.742l-.245-.219.688-.32c26.672-12.395 55.773-18.961 81.986-18.499 27.39.488 50.1 8.327 65.677 22.67 17.936 16.515 34.492 49.311 11.51 111.763-4.448 11.312-7.812 24.014-11.064 36.297-7.853 29.654-15.972 60.317-40.158 78.957-12.072 6.897-32.467 11.104-52.623 11.104zm-65.402-116.639c2.343 0 4.392.448 6.083 1.512 2.728 1.716 4.305 4.875 4.819 9.657-.792 9.249-3.571 18.412-6.26 27.273-4.969 16.381-10.107 33.319-3.097 51.148 20.764 35.075 92.076 28.729 115.925 15.115 23.86-18.394 31.936-48.891 39.745-78.383 3.26-12.311 6.631-25.041 11.098-36.397 22.786-61.922 6.458-94.363-11.253-110.671-30.633-28.204-90.859-29.86-146.483-4.037-2.951 3.746-35.674 31.344-54.383 44.24l-.016.01c-14.52 9.259-29.192 4.674-46.867-2.279-34.939-17.445-41-53.521-46.86-88.411-4.832-28.761-9.396-55.927-29.003-72.836-4.967-4.03-10.344-5.125-15.962-3.249-13.413 4.48-25.316 24.906-28.445 37.36.397 15.5 4.442 30.279 8.725 45.924 2.805 10.245 5.704 20.839 7.531 31.765 21.483 93.76 69.029 142.579 141.313 145.072 10.469.419 22.036-3.695 32.251-7.318 8.137-2.886 15.49-5.494 21.14-5.494zm-71.628-82.199c-2.175 0-4.292-.271-6.355-.811-26.937-7.05-38.012-59.961-46.911-102.476-1.647-7.874-3.204-15.311-4.788-22.14-2.266-9.584-6.976-16.732-11.53-23.645-6.021-9.137-11.706-17.766-11.323-31.005-.791-5.701-3.152-11.025-4.877-14.913-1.657-3.738-2.657-5.994-1.597-6.951 1.215-1.093 4.233-.162 18.945 8.262 22.989 10.392 24.469 19.117 26.92 33.574 3.519 20.752 9.408 55.485 89.158 127.811l.363.33-.322.37c-18.52 21.185-34.199 31.595-47.683 31.595zm-86.245-201.327c-.212 0-.37.041-.467.128-.522.472.679 3.182 1.842 5.803 1.748 3.942 4.142 9.341 4.957 15.265-.369 13.006 5.232 21.508 11.163 30.509 4.603 6.985 9.361 14.208 11.669 23.967 1.587 6.842 3.145 14.284 4.794 22.163 8.843 42.245 19.847 94.82 46.186 101.714 14.171 3.709 31.908-6.416 52.707-30.106-79.658-72.332-85.573-107.206-89.108-128.053-2.478-14.61-3.842-22.658-26.388-32.852-5.365-3.07-14.916-8.538-17.354-8.538zm136.782 166.844-.204-.256c-6.871-8.608-14.435-17.23-21.75-25.568-22.454-25.594-45.673-52.059-55.136-84.505-9.656-19.216-5.422-53.098 7.713-61.363 5.748-3.618 15.537-4.124 29.543 13.995 9.313 12.203 18.024 25.324 26.45 38.013 22.005 33.138 44.758 67.404 79.994 87.796l1.076.623-1.207.295c-12.75 3.126-23.795 9.617-34.477 15.894-9.955 5.85-20.249 11.898-31.686 14.992l-.317.085zm-62.557-172.703c-2.215 0-4.316.616-6.287 1.856-12.789 8.048-16.824 41.216-7.317 60.152 9.434 32.317 32.577 58.698 54.959 84.209 7.25 8.264 14.745 16.807 21.575 25.347 11.173-3.079 20.867-8.775 31.124-14.802 10.412-6.119 21.17-12.439 33.559-15.701-34.839-20.576-57.423-54.588-79.271-87.491-8.417-12.675-17.12-25.782-26.41-37.957-7.991-10.337-15.447-15.614-21.931-15.614zm199.749 141.723c-2.965 0-6.57-.861-10.416-1.778-6.455-1.541-13.778-3.287-20.812-2.006-12.164.819-18.299.711-20.426-2.096-1.979-2.61-.411-7.03 2.433-15.053.977-2.754 2.083-5.875 3.237-9.469 1.211-6.77-3.736-10.383-8.974-14.208-5.5-4.017-11.187-8.17-8.347-16.255.984-4.161 2.4-7.487 3.65-10.422 1.951-4.584 3.497-8.213 2.292-12.733-8.119-7.404-11.424-12.224-10.714-15.618.712-3.401 5.125-4.892 10.712-6.779 4.423-1.494 9.431-3.186 13.657-6.194 1.77-3.697 2.825-7.611 3.846-11.396 1.871-6.935 3.638-13.484 9.426-18.325l.599-.501.204.754c10.873 40.248 34.992 68.516 66.173 77.555 5.286 1.495 7.529 4.479 7.058 9.392.49 10.111-7.69 10.713-14.265 11.197-3.901.287-7.587.558-9.07 2.583-2.86 6.969-4.813 12.933-6.703 18.701-1.93 5.892-3.753 11.456-6.351 17.489-.996 3.911-3.637 5.163-7.21 5.163zm-26.049-5.232c5.47 0 10.916 1.3 15.865 2.481 8.619 2.057 14.846 3.543 16.45-2.734 2.604-6.065 4.421-11.609 6.344-17.479 1.899-5.8 3.864-11.797 6.75-18.823l.055-.099c1.734-2.451 5.674-2.741 9.846-3.047 6.776-.498 13.783-1.014 13.341-10.223.431-4.537-1.465-7.029-6.336-8.407-31.327-9.082-55.587-37.304-66.652-77.486-5.078 4.591-6.746 10.772-8.508 17.302-1.044 3.869-2.123 7.87-3.966 11.685l-.056.115-.103.074c-4.37 3.143-9.499 4.875-14.024 6.403-5.285 1.785-9.459 3.195-10.054 6.036-.624 2.981 2.718 7.675 10.517 14.772l.106.097.038.139c1.368 4.921-.25 8.72-2.298 13.53-1.234 2.898-2.633 6.184-3.612 10.312-2.608 7.435 2.534 11.19 7.979 15.167 5.255 3.838 10.689 7.806 9.353 15.256-1.176 3.673-2.285 6.802-3.264 9.562-2.638 7.442-4.23 11.935-2.578 14.115 1.838 2.426 8.01 2.479 19.506 1.709a29.574 29.574 0 0 1 5.302-.457zm-304.187-81.605-.298-.195c-8.117-5.305-16.957-9.026-25.506-12.625-9.726-4.094-18.911-7.96-26.665-13.865l-.464-.354.42-.404c8.218-7.917 16.902-4.791 26.098-1.48 4.323 1.557 8.794 3.166 13.26 3.559l.136.031c7.706 2.961 13.106 3.285 15.618.938 2.184-2.04 2.352-6.151.501-12.224-12.425-11.881-29.476-18.618-45.967-25.133-13.161-5.2-26.771-10.577-38.134-18.561l-.909-.639 1.081-.257c14.464-3.441 30.954 5.553 48.409 15.072 9.522 5.193 19.365 10.561 29.609 14.411 1.453-1.84 1.95-3.554 1.519-5.231-1.394-5.419-12.176-9.616-22.602-13.674-6.647-2.587-12.927-5.031-16.941-7.798-7.952-3.114-21.998-10.094-27.172-21.976l-.27-.617.669-.079c16.057-1.882 30.069 8.005 43.626 17.577 10.565 7.459 20.55 14.509 31.418 16.462.959-1.804 1.176-3.456.662-5.039-1.53-4.723-9.5-8.322-17.938-12.132-7.452-3.365-15.157-6.845-20.371-11.681-10.169-6.234-10.104-9.98-9.154-11.653 2.105-3.704 11.396-3.378 19.121.668 31.567 21.28 74.736 50.385 77.181 92.388l.044.757-.713-.258c-26.558-9.598-32.3-5.025-49.343 8.551a607.39 607.39 0 0 1 -6.644 5.24l-.282.218zm-51.39-27.124c7.555 5.629 16.508 9.398 25.975 13.383 8.485 3.572 17.256 7.264 25.366 12.515 2.297-1.784 4.398-3.458 6.353-5.015 17.215-13.711 23.117-18.412 49.588-8.966-2.891-41.103-45.49-69.826-76.646-90.832-7.585-3.97-16.112-3.897-17.739-1.032-1.295 2.278 2.027 6.154 8.886 10.367 5.173 4.784 12.803 8.229 20.181 11.562 9.021 4.074 16.811 7.592 18.478 12.735.625 1.928.317 3.997-.914 6.149l-.173.303-.344-.058c-11.229-1.901-21.878-9.42-32.178-16.692-13.207-9.325-26.853-18.961-42.25-17.474 5.258 11.2 18.735 17.85 26.392 20.842l.104.055c3.915 2.713 10.165 5.146 16.782 7.722 10.661 4.149 21.687 8.44 23.208 14.356.531 2.065-.122 4.217-1.942 6.396l-.227.271-.332-.123c-10.431-3.883-20.417-9.329-30.074-14.596-16.826-9.176-32.741-17.859-46.581-15.217 11.074 7.558 24.238 12.759 36.979 17.793 16.623 6.567 33.812 13.358 46.386 25.432l.093.09.038.124c2.014 6.537 1.767 11.036-.735 13.373-2.843 2.656-8.425 2.418-16.595-.71-4.57-.415-9.079-2.038-13.44-3.608-8.732-3.145-16.986-6.115-24.637.857zm151.949-11.2-.469-.378c-9.418-7.594-20.665-13.158-31.542-18.54-15.731-7.783-31.998-15.831-42.978-30.154l-1.484-1.937 3.112 1.754c44.633 25.298 52.959 24.457 54.467 22.921.822-.837.404-2.738-1.206-5.502-4.472-1.9-9.148-3.675-13.674-5.392-17.142-6.503-34.867-13.228-45.358-28.246l-1.039-1.487 1.654.745c7.436 3.351 15.237 6.643 22.782 9.827 14.345 6.054 29.179 12.314 42.578 19.407 1.176.701 2.727.567 4.172-.346 1.624-1.024 2.621-2.713 2.481-4.202-.137-1.458-1.313-2.665-3.403-3.49-10.075-5.818-21.051-10.111-31.665-14.263-11.163-4.366-22.706-8.881-32.848-15.075-1.911-1.167-2.839-3.333-2.364-5.517.468-2.15 2.183-3.71 4.369-3.974 21.174-2.549 40.504 12.111 56.972 26.053 5.142 4.224 10.269 7.219 15.226 10.115 4.556 2.662 8.865 5.179 12.967 8.489 2.782-1.877 4.247-2.946 4.453-4.107.195-1.106-.706-2.581-2.802-5.469-1.972-3.781-4.232-7.463-6.625-11.36-5.267-8.577-10.711-17.445-12.78-27.162l-.365-1.718 1.216 1.268c13.317 13.89 23.201 29.26 32.76 44.124 4.215 6.554 8.573 13.332 13.179 19.914l.53.758-.924.028c-19.085.593-33.683 8.542-41.106 22.384l-.285.531zm-72.579-47.663c10.791 12.897 26.143 20.492 41.012 27.849 10.747 5.317 21.854 10.813 31.259 18.284 7.561-13.624 21.984-21.532 40.75-22.35-4.424-6.361-8.616-12.881-12.676-19.195-9.226-14.345-18.755-29.164-31.368-42.629 2.289 8.86 7.338 17.084 12.23 25.054 2.403 3.914 4.672 7.61 6.621 11.36 2.191 3.01 3.212 4.626 2.938 6.167-.283 1.603-1.974 2.806-5.186 4.969l-.309.208-.287-.235c-4.128-3.376-8.499-5.93-13.127-8.634-4.991-2.916-10.152-5.932-15.362-10.21-16.313-13.811-35.454-28.329-56.212-25.828-2.132.257-3.212 1.818-3.511 3.193-.305 1.402.036 3.308 1.908 4.451 10.066 6.148 21.567 10.647 32.69 14.998 10.648 4.165 21.66 8.472 31.734 14.295 3.046 1.197 3.844 3 3.965 4.295.174 1.855-1.009 3.921-2.942 5.141-1.774 1.118-3.715 1.256-5.197.371-13.337-7.06-28.15-13.312-42.477-19.357-6.971-2.942-14.161-5.977-21.085-9.066 10.435 13.717 27.382 20.146 43.79 26.371 4.586 1.74 9.327 3.539 13.863 5.471l.15.064.084.141c1.99 3.367 2.363 5.608 1.142 6.853-4.51 4.587-31.772-9.263-54.399-22.031z"/></svg></svg>