<svg clip-rule="evenodd" fill-rule="evenodd" stroke-linejoin="round" stroke-miterlimit="2" viewBox="0 0 2069 2834" xmlns="http://www.w3.org/2000/svg"><g transform="matrix(1.0007 0 0 1.00084 .000393 .000029)"><path d="m887.32 1764.32c-30.61 26.13-100.125 23.02-137.66 17.97-185.729-27.76-328.916-143.53-441.406-289.59-101.114-130.19-153.212-394.78-45.981-526.413 10.058-.976 18.505 10.107 27.111 14.625 13.422 9.187 27.3 18.686 39.827 29.508 80 67.29 126.794 160.66 155.758 261.58 11.472 33.61 20.115 73.13 44.705 98.78 36.854 41.58 78.007 84.23 129.137 114.46 59.435 30.88 125.029 49.13 187.184 73.82 33.646 12.88 72.519 44.19 68.125 82.91-1.147 12.15-2.089 24.55-2.999 36.53-2.933 28.5-.201 66.4-23.801 85.82zm-12.966-686.13c42.47 69.77 69.651 165.45 32.511 249.24-37.766 52.29-89.143 81.55-163.147 105.91-35.212 11.77-60.513 12.17-91.551 13.04-13.995 1.78-33.312 1.06-43.531-8.11-30.765-29.13-61.898-57.44-66.155-99.23-31.664-181.12-79.677-335.23-229.821-433.065-4.799-4.14 2.424-10.265 4.188-14.408 6.276-10.562 12.204-20.537 18.422-30.437 2.115-3.362 8.144-4.008 11.025-2.785 50.791 23.628 110.308 7.045 156.23-36.172 36.362-34.088 7.164-46.154 39.283-45.213 14.047.644 38.891-6.026 50.329 1.363 121.944 75.005 206.544 182.207 282.217 299.867zm-183.439-298.524c-1.509-1.566-3.365-3.668-2.315-5.985.716-2.389 2.205-5.471 5.168-5.038 55.579 4.265 112.542 12.719 164.074 33.546 97.824 29.201 213.928 93.521 279.238-16.753 16.65-28.7 31.08-64.43 56.64-85.532 33.75-28.41 119.38 14.186 130.47 53.837 23.52 54.336-2.75 129.848-39.87 172.19-93.69 130.799-242.46 218.019-396.473 142.829-6.518-1.97-10.492-10.21-14.741-14.63-24.584-34.58-59.987-68.008-79.625-105.581-13.98-76.877-58.479-116.999-102.566-168.883zm-499.963 888.774h.002c-35.095-30.84-99.554-113.61-86.955-155.76 2.909-4.28 8.017-7.01 15.615-8.33 49.732-8.81 100.749-16.76 150.337-28.25 3.942-.74 10.171 1.22 12.597 4.96 39.06 60.18 89.342 115.66 158.241 174.58 9.862 5.89 6.593 22.15 7.013 32.69-.388 3.36-.92 6.3-1.356 10.48-1.187 11.38 4.513 28.16-7.129 35.51-25.938 9.79-51.646 18.39-78.546 18.39-64.291-4.44-117.353-38.32-169.819-84.27zm89.9-1000.259c67.418-46.079 107.824-106.149 108.879-182.372.749-5.675-2.312-11.677 4.69-14.343 4.216-3.464 19.103 14.076 22.156 18.413 5.963 9.411 11.115 20.016 15.311 31.52 3.668 10.056 9.055 15.822 17.464 18.697 23.902 7.334 49.238 13.439 31.559 43.602-13.494 17.96 23.815 63.485 23.831 88.827 3.957 22.14-17.147 28.533-30.777 39.827-26.094 19.624-7.255 52.284 18.101 64.272 45.889 17.715-31.912 65.482-57.971 74.562-21.581 8.693-45.043 8.97-68.577 7.386-6.883-.446-14.692-7.112-17.98-13.031-20.218-36.404-39.516-72.877-57.358-106.868-4.784-9.354-4.224-9.658-13.638-6.073-36.615 17.097-49.77-29.486-20.667-48.582 8.123-5.818 16.759-10.309 24.977-15.837zm376.31 2130.289c9.151 13.3-25.98 11.55-33.887 12.81-12.245.87-24.795 1.77-37.311 1.77-110.396-5.55-218.914-15.81-328.578-22.93-28.413-2.29-56.064-2.06-84.27-10.43-53.226-15.34-53.759-77.36-48.405-124.73.188-3.97 4.953-3.95 7.521-2.88 57.123 23.28 117.023 29.46 185.955 15.27 13.798-2.77 25.989.05 37.784 2.77 120.744 32.18 212.398 49.35 301.191 128.35zm417.588-3.73c23.75 42.79-350.083-4.81-386.383-4.07-32.789.99-27.522-13.6-54.072-26.15-30.566-17.06-58.303-32.13-84.795-46.07-5.674-2.98-11.459-7.37-11.351-17.29.117-10.84.095-21.74.072-33.27.718-10.32-4.26-25.01 11.811-16.37 55.727 23 113.433 27.7 179.998 14.25 10.214-2.06 22.213-1.53 37.765 1.68 116.386 25.79 219.019 57.36 306.955 127.29zm-931.156-1587.37c-27.904-.87-54.497-2.92-82.466-14.86-16.692-7.63-19.832-10.74-18.326-29.33 6.838-84.42 42.748-153.53 106.73-205.402 43.813-35.447 94.199-59.405 144.411-84.082 5.282-1.369 11.464-8.605 16.759-5.218 5.39 3.489 1.282 8.099-.806 12.195-4.725 7.523-8.128 20.523-18.704 21.013-22.465.919-70.112 46.052-46.327 66.754 1.578 1.116 2.134 3.223 1.314 4.973-38.74 73.207-53.952 131.937-56.823 221.457-2.206 14.29-34.023 11.34-45.762 12.5zm1144.616 90.27c.18-.15 119.62-37.68 229.69-71.14-9.87-6.93-18.46-13.23-20.42-14.59-19.04-12.83-36.34-25.11-55.15-34.39-1.59-2.27-9.69-4.68-7.31-20.11.09-2.98 1.21-6.43 1.17-9.35 2.52-27.92 0-41.47 21.65-60.5 127.44-136.913 225.27-244.529 342.01-365.935 29.95-31.525 61.85-63.48 90.4-96.642 5.02-4.224 17.33-24.102 23.94-21.434 4.53 3.489.77 10.998 1.23 15.755-3.15 37.936-8.92 76.968-13.25 110.707-4.31 31.525-9.19 65.292-15.35 106.267-.57 3.774 4.32 16.312 20.38 35.22 9.06 8.993 20.75 22.941 29.52 33.691 37.11 49.582 90.21 95.091 109.13 155.691.88 2.93 1.11 5.48.69 8.63-.97 7.22-21.18 20.61-28.94 26.15-106.66 60.41-214.15 119.45-320.35 180.63-6.51 3.28-20.59 15.81-14.52 24.42.47.69 5.09 8.94 7.75 13.29 28.67 46.97 57.5 166.42 59.72 186.18 14.92 69.63-3.18 85.55-5.34 87.52l-263.07 250.37c-1.69 1.7-15.8 9.81-24.24 12.92-4.87 2.63-10.21 5.2-15.21 7.45-106.05 41.41-198.33 110.29-284.53 183.59-4.35 2.55-10.89 13.02-15.27 5.89l-92.81-232.42c-1.69-11.08 16.64-1.45 22.19-2.7 14.36.6 29.1 2.15 43.32.64 26.17-1.54 34.96-38.63 7.43-48.09-20.63-8.8-41.12-16.98-61.65-26.4-71.048-23.76-92.758-102.56-112.552-166.19-2.801-8.35 2.946-12.9 6.38-15.62 52.302-43.37 117.992-93.96 169.542-132.44 10.78-8.04 23.11-14.48 34.86-21.75 1.8-1.12 5.33-3.17 7.22-3.97 3.15-1.33 9.42.05 16.79 2.43 40.18 10.66 80.43 23.9 120.76 38.04-1.85-9.93-15.16-90.74-20.59-125.54-2-9.32-.71-14.21 4.78-16.27zm-1137.121-628.168c-6.466-1.566-9.389-9.405-11.211-16.06-25.028-84.878 15.827-183.073 97.33-216.405 39.205-16.498 79.984-14.044 121.204 7.296 2.606 1.994 9.318 6.502 5.308 10.499-69.584 63.943-129.774 136.791-194.531 204.653-4.811 5.249-11.036 11.622-18.1 10.017zm104.506 281.984c-15.605-3.024 21.748-39.674 24.62-39.801 25.978-4.295 71.248 31.385 91.861 52.231 95.425 94.494 142.083 230.664 160.47 354.084 1.651 11.99 11.809 52.88-10.302 24.68-19.649-23.93-26.575-52.51-36.841-80.16-20.669-55.64-40.581-112.91-72.418-164.29-40.794-61.98-96.404-141.052-157.39-146.744zm675.092 701.194c1.157-14.41 14.008-15.93 23.501-21.32 7.094-2.61 8.733 12.75 11.922 17.08 11.982 26.52 18.944 54.98 44.88 71.73 26.88 19 59.55 40.12 98.04 52.68 3.48 1.14 7 3.5 9.66 6.47 30.78 50.06-144.353 5.17-165.408-11.15-26.612-13.51-27.573-15.2-25.709-45.33 1.289-20.83 2.667-45.46 3.114-70.16zm278.543-973.087v.002c-2.11-.287-8.35-2.079-9.38-6.409-7.43-37.09-22.54-91.492 12.34-118.129 27.61-16.102 59.33-21.402 90.68-28.834 4.31.179 8.83 3.072 11.53 6.947 4.75 12.532-10.59 19.987-17.47 27.762-7.59 7.196-16.28 13.732-23.33 21.205-7.46 7.992-9.62 17.126-6.98 29.615 3.81 18.053 5.61 36.729 7.35 54.79.08 5.774 3.11 15.028-.99 19.029-3.19 2.853-7.29 1.373-11.41.829-17.48-2.882-34.82-4.426-52.34-6.807zm-791.775-205.823-.002-.001c-7.844-6.439-15.873-13.649-24.545-22.044-2.767-3.17-1.833-8.614 1.427-12.288 49.244-40.968 90.121-94.593 152.956-116.591 3.717-.675 8.055-3.689 11.516-1.396 2.044 1.547 5.061 3.849 3.622 6.769-2.924 6.775-4.504 14.592-9.435 20.428-15.8 19.284-38.176 43.112-58.615 61.655-20.011 18.855-40.704 38.353-57.675 60.614-4.996 6.754-12.886 8.181-19.249 2.854zm159.925 291.045c-6.43-5.72-5.655-11.72 2.311-14.862 73.94-27.096 172.282 107.336 196.2 160.818 1.127 2.578 2.228 5.388 3.372 8.178 1.78 3.97-3.771 7.464-6.615 4.262-55.073-64.264-124.958-119.969-195.268-158.396zm1314.34-178.285c7.97.262 13.23 3.127 7.04 9.979-78.04 87.645-156.73 173.862-236.29 261.498-73.21 80.553-146.69 157.843-219.27 238.303-2.75 2.8-8.61 4.99-12.91 3.56-10.48-3.57-21.05-7.4-31.28-11.09-11.39-4.12-23.16-8.37-34.81-12.28-10.32-3.9-13.84-10.57-13.84-10.57-14.01-14.96 21.57-182.985 25.79-229.351-4.47 10.337-7.2 13.39-15.77 13.39-3.89-.062-11.77-.492-16.33-2.304-6.18-2.722-.46-13.333-.79-18.804 10.08-46.74 7.16-87.991-37.97-121.445-9.03-7.109-13.01-13.761-14.69-24.542-2.97-19.046-7.79-39.587-15.17-64.644-2.91-9.903-4.48-22.598 9.39-32.946 15.76-13.123 48.53-34.211 43.01-54.119-8.84-17.998-46.91-12.562-63.81-7.302-4.64.438-14.47 6.764-15.92-.866-.34-100.78-10.71-201.483-12.78-302.173-.91-65.583-8.44-133.045 4.44-197.956.54-3.163 3.21-5.882 6.38-4.397 115.24 59.195 238.99 118.022 389.46 185.129 1.12-.251 1.85.783 2.27 2.804.01.073.03.146.04.22 3.07 16.313-13.08 92.741-13.61 97.445-1.77 8.492-3.59 17.273-5.1 25.926-9.28 53.145-27.6 155.537-39.99 225.001l44.66 4.331c23.92 2.276 48.06 4.512 71.51 6.684 64.84 5.877 131.56 12.127 196.34 20.519z" fill="#fff"/><path d="m1066.39 1929.12c-30.67 260.92-147.921 505.01-291.945 721.9 33.703 11.61 67.959 17.17 102.11 26.8 68.663 18.64 131.285 52.85 190.675 91.19 9.93 6.34 16.28 15.02 14.39 27.27-1.99 12.84-7.81 24.48-21.42 27.3-46.84 11.21-95.016 6.43-142.511 3.21-81.944-6.45-163.827-13.69-245.753-20.38-3.282-.26-8.531.87-9.86 3.12-13.866 26.59-73.535 19.59-100.25 20.9-134.253-8.58-270.44-11.69-401.966-41.99-9.082-2.19-17.891-6.88-25.894-11.91-40.07-27.08-23.995-81.41-25.353-122.28.335-7.64-.751-12.99-6.92-17.72-23.723-18-46.425-51.34-29.923-81.08 133.789-262.82 336.619-504.04 367.843-806.82-236.714 108.66-466.613-55.51-437.036-314.59 9.792-71.35 33.682-139.3 49.061-209.41.782-3.31-.49-9.16-2.907-10.87-26.225-18.55-26.647-44.38-21.221-72 19.721-100.43 73.15-177.008 161.987-228.248 39.321-22.68 79.874-42.731 123.96-54.706 7.312-1.986 14.904-17.06 11.859-24.526-5.183-9.384-11.448-35.512-23.384-34.507-71.547 22.526-139.644-44.738-155.402-110.349-36.677-70.636-33.092-159.018 27.312-214.736 51.571-51.859 121.177-63.412 190.572-39.875 7.574 1.904 13.375-.174 19.075-5.893 18.66-23.809 199.649-180.193 184.986-86.378-6.517 41.696-77.029 87.594-106.83 121.796-27.215 23.764-24.277 39.541-2.787 68.662 6.023 7.128 18.163 9.068 27.201 11.512 13.212 4.204 16.68 16.213 11.41 28.216-10.037 14.462-4.765 27.612 2.451 41.314 24.95 55.448 39.924 55.561-13.432 95.25-16.081 11.588-14.534 41.278 9.618 49.961 16.922 6.173 35.094 2.322 52.615 1.979 6.929-.194 12.761-.184 15.325-9.061 1.063-3.679 6.917-7.267 11.267-8.491 28.682-8.067 57.274-12.533 84.017 6.5 84.86 5.829 167.821 21.229 248.024 51.127 58.182 15.128 120.676 61.67 179.206 25.753 27.75-15.246 42.61-77.954 59.71-107.379 7.26-15.604 16.95-29.299 33.14-37.25 1.48-.73 2.2-4.825 1.88-7.163-8.49-51.785-28.74-122.75 39.3-140.2 7.16-2.497 9.37-5.683 9.41-13.246 3.75-129.525-2.18-259.029-3.99-388.562.41-40.848-2.34-82.106 1.8-122.74 1.19-10.175 6.48-13.003 15.86-8.336 135.58 67.792 271.13 136.853 412.91 190.87 5.96 2.612 7.48 7.547 5.48 13.532-7.8 23.219-17.13 46.037-23.23 69.689-20.87 86.292-33.28 175.782-24.83 264.519.27 4.668 2.65 5.815 6.79 6.155 95.86 7.178 191.55 16.228 286.94 28.135 12.15 1.439 22.08 7.053 19.98 23.283-2.84 21.925-4.8 43.966-7.01 65.97-5.68 56.529-11.21 113.073-17.02 169.588-.74 7.139 2.81 10.979 7.17 16.013 20.73 23.886 42.34 47.29 60.45 73.105 31.98 45.586 61.72 92.747 92.22 139.367 6.67 10.2 5.18 16.99-5.24 23.13-114.46 66.65-227.28 136.21-343.64 199.51-16.96 9.38-16.63 9.21-8.1 26.49 37.92 75.2 52.05 158.55 66.83 240.62 1.93 12.64 5.12 27.88-4.99 37.78-92.31 86.88-183.48 175.08-277.31 260.26-55.9 41.96-125.76 61.65-186.14 96.65-59.52 30.96-102.12 85.06-156.27 123.89-13.27 10.36-20.68 8.54-27.27-6.96-18.64-44.64-35.57-90.02-53.15-135.1zm-623.957-233.38c.796-4.77 5.978-29.59-4.243-37.06-60.456-51.7-115.457-108.35-158.999-175.44-1.367-2.11-5.888-3.7-8.503-3.2-49.696 11.5-100.155 19.35-150.39 28.25-23.243 2.31-13.623 26.5-8.423 41.02 47.897 115.93 196.502 243.56 326.024 181.27 8.339-6.31 2.927-25.2 4.534-34.84zm861.357-1165.656c-2.86-.924-92.33 12.907-105.1 49.317-8.4 31.213-2.24 62.195 5.05 92.828.37 1.551 3.84 3.072 6.03 3.369 17.47 2.372 35.06 3.952 52.45 6.825 8.35 1.38 9.49 1.96 8.62-6.865-2.1-21.082-3.78-42.35-8.14-63.012-2.81-13.307-.74-23.837 7.98-33.172 12.4-12.548 26.91-23.17 38.84-36.225 4.57-6.424.5-11.052-5.73-13.065zm-988.89 372.577c161.985 98.089 205.394 293.329 239.312 465.439 16.078 24.58 47.779 72.32 78.518 74.87 100.437 2.19 208.265-35.02 270.498-117.2 47.69-107.87-10.222-224.17-76.948-310.1-63.431-96.058-144.36-180.481-244.514-236.802-17.551.706-35.081 1.841-52.85 2.848-2.863 26.428-20.911 42.348-39.862 57.038-44.137 32.16-91.294 45.816-144.324 23.272-1.63-.693-5.288-.019-6.073 1.231-7.95 12.656-15.499 25.566-23.757 39.404zm1129.49 269.799c-.94.91-3.76 2.28.79 2.91 19.81 2.73 57.58 44.15 73.21 37.99 118.06-34.63 234.43-74.75 352.71-108.74 54.86-15.77 109.75-30.22 166.7-35.59 17.48.08-22.97-63.7-29.13-69.509-34.58-41.881-67.55-85.276-104.35-125.25-8.36-8.691-9.42-8.657-18.98-1.89-20.75 14.674-41.39 29.488-62.3 43.924-4.89 3.379-6.42 6.856-5.87 12.862 1.11 11.777 3.11 32.838-9.76 38.5-1.91.839-4.1.822-5.94-.166-10.12-5.453-5.19-20.323-6.24-30.568-123.46 70.457-249.87 137.037-350.84 235.527zm185.64-40.04c2.16 1.28 5.29 2.87 6.7 5.31.87 1.54-.51 5.05-1.83 7.04-5.09 7.72-10.17 15.51-16.11 22.55-.98 1.17-2.48 1.89-4.14 2.48-3.28 1.14-6.91-.34-8.42-3.46-1.17-2.41-2.07-4.64-1.32-5.83 5.91-9.3 13.21-17.73 20.16-26.35.71-.88 2.75-3.06 4.96-1.74zm159.98-145.634c16.71-5.249 34.87-4.335 50.82 2.911 1.72.777 3.4 1.639 5.04 2.583 25.17 14.59 29.32 46.64 10 68.4-26.27 29.57-76.97 28.12-101.23-2.91-8.31-10.62-7.83-31.79 1.44-45.73 8.49-12.76 19.54-20.735 33.93-25.254zm13.52 76.344c12.58-.1 23.54-4.23 32.03-13.69 10.13-11.28 8.29-25.1-4.18-33.71-15.02-10.37-39.97-8.42-53.19 4.15-7.17 6.83-9.6 14.88-6.51 24.49 3.91 12.18 15.51 19.07 31.85 18.76zm-151.16 54c-.92-2.58.95-7.49 3.22-9.62 13.98-13.06 30.34-22.09 49.34-25.22 3.45-.57 8.5 1.58 10.88 4.22 1.32 1.47-.2 8.18-2.4 9.73-15.49 10.89-31.03 22.05-50.22 25.78-4.12.8-9.87-2.2-10.82-4.89zm-300.89 321.71c5.24-14.65 9.96-20.23 20.79-25.02 5.61-2.47 11.61-3.62 15.45 2.3 3.53 5.45-.21 9.24-4.47 13.08-8.57 7.72-6.17 17.15 4.84 20.5 86.36 26.34 172.67 52.82 259.11 78.86 30.28 9.13 60.85 17.3 91.36 25.63 12 3.27 13.27 2.45 12.5-10.29-5.63-82.68-32.89-161.65-67.74-236.18-1.82-3.85-7.45-8.07-11.54-8.33-29.96-1.87-59.98-2.87-89.98-3.92-7.66-.26-8.93 2.37-8.63 10.12.42 10.79-.01 21.64-.51 32.44-.35 7.58-5.28 11.43-12.43 11.37-7.25-.06-8.23-6.16-8.92-11.66-1.47-11.64-3.02-23.3-3.81-35-.44-6.68-3.01-8.68-9.61-8.64-80.03-1.61-159.88 2-239.78 6.32-11.94.53-12.62.78-10.73 12.87 5.55 35.56 11.29 71.09 17.2 106.59-.53 8.24 38.29 14.93 46.9 18.96zm102.21-48.36c3.89.34 8.89 3.21 10.88 6.47 2.98 4.9-1.53 8.55-5.52 11.14-12.28 7.98-25.7 10.37-39.92 7.11-5.83-1.34-11-4.4-10.91-11.43.09-7.1 5.63-9.59 11.32-11.06 3.91-1.01 26.92-2.88 34.15-2.23zm52.35 10.53-2.33-1.39c-4.12-2.48-5.56-7.84-3.1-11.97.92-1.56 1.98-2.88 3.35-3.67 9.58-5.48 19.76-10.21 30.23-13.68 3.48-1.16 11.45 1.56 12.19 4.05 1.16 3.9-.64 11.48-3.71 13.35-8.84 5.39-18.56 9.34-28.5 13.8-2.62 1.17-5.66.99-8.13-.49zm-1377.346 1254.33c-7.697 66.54.702 123.12 79.2 127.08 121.423 8.81 242.853 18.18 364.338 26.21 27.39.14 55.938 1.11 82.715-6.01-78.344-76.34-193.923-100.8-296.838-127.9-12.884-2.93-25.073-6.27-39.131-3.44-64.966 13.78-128.167 8.89-190.284-15.94zm232.286-2203.45c-120.848-76.698-259.271 63.804-217.242 200.463 4.443 16.229 10.612 17.357 21.751 5.224 65.399-68.583 125.595-141.431 195.491-205.687zm1000.63 548.17c-.16 1.15.45 1.74 1.18.37 46.22-86.202 82.91-177.288 124.09-266.035 5.68-15.091-3.4-31.206-4.7-46.435-.06-.585-.04-1.178.07-1.756 1.1-5.87 8.38-8.092 12.91-4.19 3.85 3.323 6.33 7.591 8.68 14.113 23.67-51.837 46.93-101.079 70.39-152.613 24.53-81.762 29.1-169.031 48.62-252.312-42.89 88.273-78.73 181.69-119.96 271.375-10.9 23.948-17.5 47.646-13.25 74.19 1.1 6.912.89 11.266-6.02 12.854-9.08 1.956-8.22-5.964-12.4-10.129-28.76 67.253-58.57 134.784-84.47 203.163-8.75 52.409-17.83 104.779-25.14 157.405zm-117.29-978.06c-14.12 65.072-5.62 132.594-5.01 198.686 2.08 100.858 12.45 201.153 12.79 302.106 22.39-6.414 43.89-11.597 66.21-4.667 27.43 9.41 9.49 37.178-5.8 49.544-13.98 15.629-43 23.562-33.24 49.403 6.3 21.389 11.85 43.164 15.28 65.158 1.59 10.235 5.4 15.862 13.21 22.015 50.69 37.139 48.69 82.482 37.39 139.545 17.43 4 23.33 4.985 29.23-13.368 31.08-74.282 61.53-149.197 93.81-222.915-7.13-5.238-13.91-8.867-16.92-16.017-1.58-3.75.79-7.961 4.81-8.617 6.84-1.117 13.04 2.401 20.34 5.344 54.7-126.324 105.95-253.265 157.55-380.992-131.46-58.633-261.32-119.302-389.65-185.224zm145.55 450.377c-.22 6.605-3.62 11.297-9.06 12.684-6.71 1.713-10.35-3.94-10.96-9.414-1.54-13.975-2.46-28.069-2.55-42.121 0-.919.34-1.839.88-2.761 2.84-4.856 9.93-5.299 12.95-.547.3.479.53.976.66 1.497 3.27 13.412 5.48 27.084 8.08 40.662zm48.08 90.391c.26 7.855-5.19 11.599-10.8 9.548-2.94-1.075-5.85-3.098-7.97-5.425-7.51-8.245-14.87-16.64-21.89-25.302-4.98-6.135-4.43-13.283.54-16.622 4.91-3.294 10.08-1.021 14.93 5.389 6.39 8.441 13.45 16.371 20.06 24.654 2.27 2.85 5.03 4.563 5.13 7.758zm-64.39-299.874c-6.26-12.794-12.31-24.371-17.57-36.302-2.48-5.641-4.46-11.897-4.84-17.987-.59-9.677 8.17-14.644 16.07-8.998 5.15 3.682 9.58 9.034 12.89 14.511 7.02 11.622 13.09 23.815 19.9 36.401 11.55-5.444 22.79-10.961 34.22-16.043 6.97-3.095 14.06-6.125 21.39-8.092 9.06-2.431 16.65 1.087 19.53 7.796 2.93 6.833.23 14.203-8.59 18.94-14.66 7.876-29.77 14.906-44.7 22.283-2.67 1.318-5.36 2.593-8.83 4.27.96 2.722 1.78 5.196 2.69 7.638 6.19 16.625 12.5 33.209 18.53 49.893.93 2.588 1.06 5.471 1.39 8.278.1.83-.35 1.635-1.11 1.99l-.02.012c-.72.334-1.58.197-2.16-.346-3.56-3.297-7.48-6.321-10.31-10.157-10.03-13.615-19.87-27.399-29.16-41.521-3.05-4.631-5.43-5.319-10.51-3.53-12.09 4.251-24.34 8.013-36.74 11.278-4.88 1.29-10.7 2.108-15.28.62-4.21-1.369-8.95-5.487-10.53-9.537-2.21-5.658 2.63-9.487 7.76-11.657 11.31-4.787 22.7-9.384 34.02-14.149 3.74-1.572 7.35-3.425 11.95-5.589zm9.56 101.963c-.39 5.893-2.54 11.088-9.5 11.098-6.49.01-9.18-4.696-9.16-10.421.04-11.179.39-22.376 1.17-33.526.4-5.614 3.28-10.12 9.84-9.825 6.86.308 7.13 5.694 7.29 10.717.17 5.456.7 26.786.36 31.957zm-840.918 2287.893c0 17.53.115 32.99-.053 48.45-.075 6.89 3.1 10.5 9.214 13.71 35.424 20.68 78.707 32.89 107.469 62.08 9.43 9.58 19.453 8.93 31.022 9.79 126.389 5.16 254.902 35.4 380.616 15.46 3.47-.55 4.6-2.31 2.15-4.12-90.19-66.68-197.548-103.1-305.633-126.76-11.728-2.42-24.658-4-36.163-1.67-64.513 13.41-127.576 9.5-188.622-16.94zm-286.775-1705.289c66.934 5.765 126.525 96.729 160.957 148.629 31.976 51.54 51.811 108.56 72.769 165 11.087 30.63 19.544 63.42 43.519 87.3-16.897-138.9-62.652-281.03-163.464-381.716-23.657-22.669-53.153-47.688-86.535-51.862-10.964 8.541-20.786 18.2-27.246 32.649zm141.083-472.583c-1.792-1.295-2.882.027-2.754 1.688 7.125 92.468-58.707 167.394-135.554 210.702-8.804 6.308-14.377 14.894-14.388 26.246.04 17.609 17.762 22.675 31.39 15.314 12.204-4.326 12.332-3.796 18.517 7.985 14.043 20.764 53.868 117.552 72.052 117.77 50.574 6.047 104.06-14.766 134.631-56.461 12.778-16.493-26.178-17.192-38.412-44.477-14.842-25.903 6.962-45.726 28.322-57.629 9.021-5.384 11.623-13.312 10.457-23.013-3.058-22.435-15.621-42.375-23.619-63.343-6.64-12.462-2.86-23.142 3.473-34.766 10.32-22.376-17.73-25.279-32.566-31.014-26.706-9.303-18.548-45.162-51.549-69.002zm379.053 445.562c-22.614-57.943-124.184-193.183-194.618-166.718-4.497 1.487-5.035 4.789-1.077 7.931 74.579 41.211 139.708 94.168 195.695 158.787zm-466.038-47.521c3.108-3.484.807-2.507-1.618-1.58-54.694 20.91-108.847 51.618-155.856 89.546-64.377 52.195-98.601 120.385-105.262 202.615-1.353 16.7.512 18.3 16.001 25.38 36.76 14.89 78.397 17.65 117.28 11.11 9.269-2.61 5.804-25.12 7.333-33.35.954-69.34 23.229-133.88 55.153-194.933-27.637-23.172 21.238-72.288 48.39-74.013 10.084-1.475 12.406-17.858 18.577-24.775zm994.325 706.371 175.18 255.88 263.07-250.36-212.84-63.67c.94 6.47 2.4 11.81 2.18 17.07-.67 4.86-4.62 7.6-8.87 7.25-2.67-.22-5.03-1.82-6.47-4.08-9.3-14.57-19.22-30.38-36.47-35.81-97.68-34.16-195.43-68.16-293.41-101.46 29.49 48.04 62.96 93.1 93.68 140.37 3.27 4.88 6.53 6.98 13.05 7.04 39.68-1.16 80.99 41.24 10.9 27.77zm95.91 25.93c-3.73-1.04-7.42-3.75-10.04-6.67-1.82-2.04-2.94-6.09-2.19-8.58.55-1.85 4.77-3.97 7.09-3.69 18.34 2.19 36.66 4.68 54.9 7.66 5.82.94 11.41 4 9.55 11.54-1.6 6.48-6.92 8.5-13.12 8.53-1.36.01-32.4-4.93-46.19-8.79zm128.07-29.39c-1.83 12.51-5.47 24.39-14.43 33.86-3.45 3.65-7.47 6.45-12.82 2.4-5.3-4-4.6-8.32-2.2-13.63 4.01-8.9 7.29-18.11 11.16-27.08 1.94-4.5 4.15-9.56 10.51-8.05 6.34 1.5 8.57 6.14 7.78 12.5zm369.72-984.407c-94.47-12.819-189.34-19.783-284.17-29.109-6.41-.615-9.91 1.506-12.96 7.087-36.51 66.831-73.1 133.614-109.92 200.274-51.33 93.466-93.38 191.326-131.43 290.735-2.88 6.76-.64 9.9 6.4 12.27 22.15 7.43 43.98 15.83 66.1 23.37 2.42.83 6.86-.61 8.76-2.56 152.73-167.026 307.49-332.326 457.22-502.067zm-361.01 315.689c-3.16 2.138-7.44 1.492-9.8-1.503-1.51-1.909-2.74-3.708-3.27-5.695-.79-2.948.87-6.941 2.35-10.037 6.69-14.005 17.73-24.09 31.09-31.293 1.88-1.012 4.54-.56 7.29.049 2.93.648 4.89 3.378 4.62 6.362-.22 2.34-.58 4.574-1.77 6.201-8.02 10.961-16.73 21.429-25.51 31.805-1.29 1.518-2.94 2.72-5 4.111zm60.41-66.543c-1.23.689-2.67.96-4.05.678-6.58-1.343-9.3-7.065-5.98-12.365 8.62-13.763 19.92-25.176 34.51-32.579 2.39-1.213 7.72.369 9.79 2.506 1.54 1.596 1.13 6.907-.4 9.256-3.07 4.7-7.41 8.606-11.42 12.651-5.32 5.38-10.68 10.756-16.33 15.782-1.98 1.758-4.34 3.08-6.12 4.071zm12.39-124.744c-3.75 1.566-8.14.941-11.11-1.826-.68-.63-1.2-1.299-1.46-2.057-.87-2.555-.23-7.211 1.61-8.828 10.58-9.294 22.69-16.369 36.89-17.812 3.38-.344 8.87 3.38 10.35 6.622 1.04 2.274-2.17 8.705-5.05 10.167-9.95 5.039-20.34 9.188-31.23 13.734zm-68.88 37.689c-3.79.995-7.89.189-10.86-2.372-.82-.713-1.45-1.494-1.61-2.363-.62-3.163 1.18-8.845 3.69-10.221 12.14-6.642 24.75-12.465 37.48-17.9 2.23-.953 7.02.44 8.49 2.375 1.41 1.853 1.29 7.04-.3 8.664-10.06 10.276-21.79 17.849-36.89 21.816zm137.75-73.22c15.9.393 26.98 8.256 28.83 20.7.68 4.568-1.16 11.965-4.43 14.102-5.13 3.347-9.37-2.25-11.73-6.918-3.58-7.095-8.28-11.672-16.8-12.064-2.16-.1-5.59-3.188-5.9-5.282-.39-2.616 1.11-6.46 3.14-8.236 2.17-1.901 5.9-2.012 6.89-2.302zm10.98 57.318c1.72 2.826 1.82 6.352.31 9.298-2 3.915-3.9 7.748-6.69 10.757-6.27 6.766-13.39 12.84-20.74 18.429-2.09 1.588-7.51 1.797-9.07.262-1.71-1.674-2.02-6.937-.62-9.177 3.88-6.197 8.73-11.856 13.67-17.305 4.2-4.635 8.83-8.941 13.71-12.854 1.8-1.449 5.22-2.403 7.2-1.678.87.317 1.54 1.153 2.23 2.268zm-182.37 210.916c-.31-1.672-.25-3.392.19-5.035 1.11-4.121 2.33-9.322 4.77-13.868 1.24-2.325 6.81-4.239 9.41-3.361 2.33.786 4.14 5.528 4.65 8.765 1.11 7.087 1.22 14.329 1.8 21.503.18 2.168 1.47 4.796.65 6.382-1.82 3.51-4.26 8.572-7.18 9.118-3.06.574-8.72-2.555-10.13-5.54-2.33-4.914-2.82-10.697-4.16-17.965zm-1299.222 222.202c.455 295.41 258.589 559.18 542.717 607.62 53.093 4.01 144.116 16.64 153.15-56.77 2.713-26.61 4.158-53.35 6.674-79.98 3.3-38.9-33.395-65.72-65.556-78.8-136.069-49.04-222.356-71.35-317.899-189.38-15.326-17.28-25.239-36.48-31.9-58.17-33.037-112.91-74.689-224.79-168.188-301.81-17.664-15.25-37.782-27.664-56.839-41.29-4.876-3.486-8.851-2.67-11.926 2.859-37.326 58.701-50.95 126.891-50.233 195.721zm1231.392-11.71c-.39 2.7 1.31 2.67 2.8 1.31 134.18-122.59 302.75-209.818 441.08-324.64 11.04-76.545 23.08-151.209 29.51-228.571-148.24 159.508-299.35 316.517-446.16 477.521-30.28 26.86-21.84 37.31-27.23 74.38zm335.64-276.627c1.67-.307 3.38-.364 5.07-.17 6.1.73 12.73.579 13.87 8.016 1.26 8.165-6.57 10.567-12.88 12-9.69 2.205-19.55 3.946-29.43 4.931-5.32.529-11.58-1.955-11.25-7.95.22-4.02 4.4-9.966 8.11-11.228 8.49-2.89 17.58-4.005 26.51-5.599zm-88.9 53.279c-2.45 1.246-5.38 1.173-7.76-.194-3.77-2.154-7.06-3.78-8.09-6.325-1.03-2.51 2.1-8.122 4.92-10.551 9.43-8.108 20.92-11.322 33.27-10.477 2.58.177 6.82 2.227 7.11 3.95.5 2.985-.48 8.055-2.6 9.332-8.57 5.165-17.6 9.565-26.85 14.265zm-49.31 12.773c3.85.434 5.69 5.011 3.25 8.026-.86 1.058-1.77 1.953-2.84 2.533-11.21 6.029-22.71 11.547-34.29 16.85-1.73.789-5.72.139-6.41-1.105-1.28-2.289-1.82-5.797-1.05-8.3 3.12-10.147 26.57-19.67 41.34-18.004zm-146.71 272.915c-16.04-19.75-39.84-30.22-60.76-43.89-5.41-3.23-7.91-6.55-7.19-12.98 1.66-14.93 2.71-29.92 4.16-44.86.51-5.28-.68-8.03-6.62-9.87-22.93-7.06-45.53-15.17-68.35-22.62-23.68-7.72-23.59-6.59-19.02-33.45 10.34-60.73 21.67-121.286 32.75-181.883.97-5.343-.97-7.005-5.86-6.919-9.49 1.601-23.17-4.638-27.14 7.348-58.1 149.144-270.58 277.214-428.054 221.234 29.024 69.35 50.455 149.93 26.669 223.9-1.971 5.32-1.087 9.04 1.965 13.48 34.205 49.7 63.999 101.57 86.87 157.61 46.09-36.63 90.78-74.88 143-102.84 3.61-1.95 9.03-2.79 12.89-1.67 36.13 10.58 71.02 21.77 107.18 32.84-1.2-34.95-10.85-68.6-13.15-103.43.19-15.16 6.59-22.25 26.19-28.66 64.24-21 128.52-41.87 194.47-63.34zm-796.371-448.742c-3.404-.137-2.386 1.206-1.028 2.557 48.14 47.897 94.585 102.544 105.123 172.777.678 4.48 3.847 8.928 6.782 12.666 25.797 32.852 51.793 65.552 77.774 98.252 7.872 9.32 21.243 12.02 31.92 17.21 142.46 56.23 286.95-37.19 367.24-152.588 42.33-50.795 69.69-132.846 26.14-190.635-24.76-23.286-79.35-53.213-110.92-29.958-10.84 9.601-20.23 21.44-28.02 33.715-37.16 76.532-78.35 132.825-172.987 111.311-101.439-23.674-196.276-71.065-302.024-75.307zm262.574 862.322c-8.069 4.62-20.456 6.47-21.229 17.78-.423 23.46-1.67 46.92-3.12 70.34-1.809 29.23-1.757 28.67 25.03 42.28 43.011 20.15 110.266 38.56 156.426 30.05 12.26-4.42 2.99-16.05-5.24-18.77-46.55-18.51-110.628-45.98-131.606-94.14-6.225-15.66-13.189-31.03-20.261-47.54zm658.277-357.01c20.22 1.37 41.69 2.88 63.17 4.15 1.95.12 4.17-1.04 5.97-2.09 112.78-66.42 228.51-127.83 341.66-193.59-98.2 10.49-193.95 53.36-289.93 79.58-14.61 9.29-14.73 32.7-35.3 39.16-19.72 5.25-8.36-17.1-3.47-27l-318.9 98.7c55.26 4.86 113.3-.85 169.49.38 18.28-3.38 35.75-11.25 53.63-16.51 16.86-6.03 19.54 1.17 13.68 17.22zm28.99-28.89c-5.28 2.96-11.99 2.25-16.27-2.02-.71-.71-1.29-1.46-1.73-2.28-1.06-2.04.89-6.9 2.97-9.1 9.82-10.41 22.31-16.4 36.2-19.14 2.61-.51 6.7 1.04 8.4 3.06 1.28 1.55.68 5.83-.57 8.06-1.94 3.47-4.64 7.04-7.93 9.14-6.73 4.29-13.71 8.17-21.07 12.28zm-1122.493 1449.14c1.061-13.43.579-27.88 2.373-41.32 1.227-9.11-.078-15.7-8.51-20.78-26.008-22.25-32.941-58.43-26.223-90.77 37.222-119.33 125.281-216.2 183.799-325.74 77.366-128.95 130.952-268.98 156.146-417.6-8.531 2.26-20.373-2.33-21.683 8.05-48.162 323.18-276.971 573.71-442.026 843.22zm640.663-1291.83c-72.77 44.62-136.29 100.31-202.966 153.07-3.406 2.81-8.246 5.75-6.127 12.07 7.803 23.25 14.065 47.14 23.547 69.68 32.776 82.98 73.456 88.09 148.436 120.5 30.76 11.02 22.45 53.21-8.58 55.75-21.05 1.37-41 .48-62.22-3.4l92.81 232.42c93.37-81.22 193.97-152.77 309.49-199.02-84.6-155.99-196.96-292.92-294.39-441.07zm57.06 231.14c-11.91.01-17.99-9.58-13.14-18 8.51-14.76 20.11-27.04 34.23-36.63 4.77-3.24 10.36-3.82 14.74 1.3 4.05 4.72 7.22 9.75 2.09 15.81-9.09 10.75-17.84 21.82-27.45 32.09-3.05 3.27-6.54 5.43-10.47 5.43zm5.88 81.81c-1.47 10.46-8.73 12.97-16.79 6.38-11.02-9.01-13.7-36.43-4.65-47.49 3.8-4.66 8.5-6.56 14.42-4.86 6.42 1.85 7.96 6.57 7.7 12.6-.21 4.88.18 27.25-.68 33.37zm-12.69 90.79c-7.32-4.05-13.76-7.53-20.1-11.17-5.04-2.9-8.94-6.79-7.45-13.2 1.59-6.83 7.4-9.14 13.23-8.63 8.62.76 17.07 3.41 25.68 4.52 2.85.37 6.65-.73 8.9-2.54 9.77-7.84 18.99-16.37 28.7-24.29 3.8-3.1 9.28-6.42 12.79-1.03 1.72 2.65.22 8.71-1.72 12.17-4.89 8.75-10.85 16.9-17 26.23 8.23 3.51 15.52 6.33 22.54 9.7 6.12 2.95 12.82 5.59 17.58 10.14 3.35 3.2 6.18 10.06 4.99 14.01-1.18 3.9-7.64 8.58-11.88 8.67-8.5.19-17.11-2.31-25.58-4.14-3.97-.85-7.73-2.67-11.57-4.12-9.45-3.57-16.8-.86-22.03 8.14-4.52 7.8-8.79 15.75-13.39 23.49-3.78 6.36-8.38 11.99-16.98 9.63-6.41-1.76-10.35-9.21-7.44-18.56 3.1-9.98 8.66-19.22 13.48-28.62 1.81-3.53 4.54-6.58 7.25-10.4zm-652.836-1483.501c.822-2.988-.681-2.628-2.514-2.093-65.413 19.059-108.576 76.028-159.226 117.875-1.376 1.253-3.518 4.212-1.332 6.452 7.604 7.788 15.888 14.921 24.3 21.827 4.811 3.949 9.774 2.74 13.53-2.188 21.781-28.57 48.863-51.927 74.55-76.711 18.51-20.249 43.184-37.855 50.692-65.162z"/></g></svg>