<svg clip-rule="evenodd" fill-rule="evenodd" stroke-linejoin="round" stroke-miterlimit="2" viewBox="0 0 2888 2804" xmlns="http://www.w3.org/2000/svg"><g transform="matrix(1.49993 0 0 1.5003 -.053042 -.039399)"><path d="m843.606 1868.63c-69.03-1.1-124.162-13.98-168.582-39.36-31.667-2.7-104.871-36.02-106.885-61.57-8.042.86-16.321-1.08-24.341-2.95-13.803-3.23-26.841-6.27-35.582 6.27l-.094.13-.132.1c-38.51 28.41-85.712 42.89-138.637 42.89-18.982 0-38.689-1.86-59.011-5.61-57.784-5.29-111.942-30.58-160.879-75.14-42.297-38.52-78.24-89.55-103.943-147.57-55.31-118.17-47.731-247.89-40.404-373.34 1.107-18.95 2.251-38.54 3.153-57.72 3.647-30.68 12.231-56.82 27.832-84.8 2.315-39.01 10.578-76.963 26.782-123.016 18.775-55.843 46.069-110.261 81.119-161.729 32.313-47.449 72.185-93.801 118.507-137.767 13.536-11.486 25.92-23.817 37.896-35.741 28.949-28.824 56.296-56.052 96.847-70.015 3.194-1.534 3.83-3.713 4.708-6.724.635-2.175 1.399-4.796 3.386-7.573-91.281-2.19-126.032-67.903-128.01-123.857-.967-27.342 5.406-53.686 17.944-74.179 13.107-21.423 32.074-34.357 53.497-36.519-4.347-37.998 11.206-86.633 49.64-106.937 27.042-15.866 39.542-11.659 54.016-6.788 5.118 1.722 10.402 3.5 16.717 4.534 12.499-27.697 34.521-49.708 62.087-62.031 28.12-12.57 59.513-13.842 88.396-3.582 67.917 25.21 76.12 58.244 81.548 80.102 3.513 14.145 5.633 22.675 21.882 21.844l.195-.01.184.064c19.235 6.651 32.076 18.931 37.136 35.51 5.964 19.544.363 43.455-14.979 64.059 9.553 25.982 5.817 56.722-9.802 80.361-23.547 32.104-21.666 60.391-20.292 81.045.929 13.97 1.664 25.004-5.258 32.448-6.304 6.779-18.315 9.881-38.921 10.044-6.339 5.43-9.334 13.901-12.502 22.863-2.237 6.328-4.543 12.849-8.167 18.8 27.589-4.671 51.325 3.551 69.223 11.596 10.132-64.37 38.431-114.673 81.888-145.521 41.635-29.553 94.373-39.447 152.505-28.614 45.425 6.465 77.347 23.989 97.537 53.568 17.02 24.925 25.49 58.478 25.87 102.534 14.08-9.422 28.83-14.28 40.77-18.21 10.84-3.565 19.39-6.381 20.21-10.81.64-3.498-3.24-8.524-12.19-15.807-45.71-9.799-42.64-33.31-39.1-60.527 2.12-16.212 4.3-32.977-2.93-49.535-20.17-29.684-30.91-61.522-31.92-94.635-.92-30.257 6.63-60.64 21.85-87.863 16.19-28.975 40.14-53.143 69.27-69.891 30.03-17.27 64.16-25.672 98.81-24.341-6.17-25.796-1.24-52.698 13.96-75.902 17.07-26.074 45.65-44.653 76.44-49.698 32.73-6.147 65.13 6.987 88.85 36.033 27.03 33.087 36.54 79.197 23.14 112.131-7.26 17.833-24.4 40.009-64.83 45.136 24.22 34.788 34.95 80.798 30.24 129.779-3.64 42.985-19.85 63.152-30.57 76.498-5.89 7.323-10.14 12.613-9.49 18.354.63 5.522 5.91 11.924 17.13 20.758 4.93 4.627 9.4 9.642 13.73 14.491 6.3 7.052 12.8 14.342 20.94 20.85 26.4 3.303 52.61 6.923 82.68 14.683 71.54 22.261 125.12 48.093 168.68 81.309 42.2 32.19 73.99 70.155 108.23 112.855 78.48 90.968 103.44 212.054 118.72 329.353.33 3.05.46 5.77.59 8.4.37 7.3.68 13.6 5.08 22.27 25.02 52.49 25.4 115.87 1.13 188.42 5.17 47.25 4.78 93.75-1.16 138.23-5.73 42.86-16.63 84.12-32.41 122.63-30.41 74.22-79.24 138.36-141.19 185.49-60.3 45.86-132.49 75.16-208.78 84.71-39.32 4.93-79.79 4.68-120.28-.74-41.89-5.61-84.06-16.8-125.33-33.25-6.7-1.42-13.2-5.29-19.49-9.04-12.48-7.45-23.26-13.88-31.99.7l-.1.14c-53.36 61.73-119.59 100.17-191.52 111.18l-.14.02-.14-.02c-10.97-1.45-16.82-8.06-23.01-15.06-3.54-4.01-7.2-8.15-12.087-11.73l-.154-.14c-.879-.98-1.537-1.95-2.117-2.8-1.905-2.8-2.616-3.85-7.887-.87-18.751 8.56-27.563 1.82-36.084-4.69-7.552-5.77-15.359-11.74-30.615-7.88-3.538 9.84-12.432 17.12-23.449 19.21-.597 8.25-2.732 19.74-13.104 27.6l-.173.13-.211.05c-13.193 2.99-16.507 10-19.711 16.79-3.548 7.51-6.899 14.6-22.357 15.14zm-273.503-103.2-.005 1.15c-.109 24.3 74.687 58.23 105.313 60.72l.222.01.193.11c44.153 25.28 99.028 38.11 167.762 39.21 14.189-.5 17.145-6.75 20.568-14 3.234-6.84 6.898-14.6 20.865-17.83 9.9-7.62 11.706-18.93 12.199-26.79l.05-.79.784-.13c10.839-1.81 19.592-8.91 22.843-18.53l.172-.51.52-.14c16.54-4.37 24.834 1.96 32.853 8.09 8.422 6.44 16.377 12.52 33.963 4.5 6.463-3.65 8.183-1.81 10.447 1.52.529.78 1.126 1.66 1.888 2.52 5.01 3.69 8.73 7.89 12.32 11.95 6.16 6.97 11.49 13 21.62 14.39 71.38-10.96 137.11-49.14 190.11-110.42 9.75-16.2 22.43-8.63 34.7-1.32 6.17 3.68 12.55 7.49 18.95 8.82l.17.05c161.02 64.22 325.96 45.84 452.51-50.42 130.66-99.38 194.06-261.49 173.97-444.77l-.02-.21.07-.21c24.16-72.12 23.84-135.08-.97-187.11-4.57-9.02-4.9-15.52-5.27-23.05-.13-2.61-.27-5.3-.59-8.27-15.23-116.962-40.11-237.707-118.27-328.303-71.34-88.958-122.83-145.881-275.91-193.521-30.02-7.744-56.24-11.352-82.67-14.656l-.28-.035-.22-.175c-8.37-6.659-15-14.081-21.4-21.258-4.5-5.039-8.75-9.798-13.55-14.308-11.76-9.259-17.1-15.87-17.8-22.047-.75-6.57 3.72-12.133 9.91-19.833 10.57-13.155 26.55-33.036 30.14-75.425 4.73-49.16-6.23-95.258-30.84-129.812l-.99-1.382 1.69-.191c40.66-4.609 57.72-26.527 64.87-44.103 13.14-32.287 3.75-77.566-22.84-110.112-23.25-28.461-54.94-41.339-86.96-35.329-30.27 4.96-58.34 23.211-75.11 48.824-15.14 23.12-19.89 49.974-13.38 75.615l.34 1.307-1.35-.062c-68.43-3.132-134.21 33.436-167.58 93.153-32.31 57.817-28.65 123.598 10.03 180.475l.09.161c7.5 17.096 5.18 34.938 3.12 50.68-3.56 27.364-6.38 48.978 37.77 58.363l.23.05.19.151c9.85 7.982 13.88 13.494 13.08 17.873-1.02 5.596-9.63 8.428-21.54 12.349-12.26 4.035-27.52 9.058-41.81 19.017l-1.57 1.091v-1.908c-.34-94.667-39.02-144.243-121.751-156.018-57.631-10.739-109.841-.961-151.023 28.271-43.298 30.734-71.401 81.045-81.271 145.494l-.2 1.307-1.203-.548c-18.243-8.308-42.854-17.133-71.487-11.583l-2.372.459 1.354-2.001c4.223-6.247 6.75-13.391 9.192-20.301 3.308-9.356 6.432-18.193 13.381-23.963l.275-.229.357-.002c19.956-.124 31.977-3.114 37.831-9.409 6.333-6.811 5.625-17.464 4.727-30.953-1.395-20.961-3.304-49.668 20.647-82.32 15.347-23.23 18.951-53.529 9.378-79.03l-.193-.514.331-.439c15.208-20.193 20.813-43.636 14.992-62.71-4.85-15.892-17.189-27.693-35.694-34.141-17.713.849-20.242-9.324-23.729-23.369-5.327-21.451-13.377-53.867-80.291-78.705-57.787-20.531-122.93 8.127-148.286 65.246l-.31.698-.755-.115c-6.821-1.039-12.404-2.917-17.804-4.735-14.011-4.715-26.11-8.788-52.405 6.639-38.017 20.084-53.168 68.506-48.506 105.968l.128 1.032-1.037.088c-21.195 1.789-40.014 14.455-52.99 35.665-12.335 20.162-18.604 46.11-17.651 73.064 1.961 55.489 36.679 120.728 128.07 121.966l2.18.03-1.445 1.633c-2.686 3.036-3.522 5.903-4.26 8.432-.911 3.124-1.771 6.074-5.818 7.994l-.104.042c-40.148 13.808-67.347 40.889-96.142 69.56-12.004 11.952-24.417 24.312-37.972 35.812-96.131 91.244-163.122 191.739-199.07 298.658-16.175 45.973-24.405 83.808-26.69 122.708l-.013.23-.112.2c-15.539 27.82-24.081 53.79-27.698 84.19-.896 19.12-2.041 38.72-3.148 57.67-7.314 125.21-14.876 254.67 40.227 372.4 57.078 128.86 155.496 211.68 263.275 221.56 76.446 14.11 144.208 1.37 196.056-36.81 9.513-13.5 23.148-10.31 37.582-6.94 8.207 1.92 16.693 3.9 24.706 2.79l1.143-.16zm105.079-837.603-.285-1.325c-6.652-30.886-1.117-62.254 15.583-88.327 16.252-25.373 41.988-44.149 72.599-53.011-13.956-14.634-21.926-32.467-23.718-51.794-.465-3.778-.557-7.38-.36-10.843.388-15.562 4.606-31.85 12.745-48.039l.057-.099c1.709-2.606 3.2-4.991 4.422-7.232 1.506-6.503 2.121-13.359 1.096-20.9-1.263-2.239-3.012-4.604-5.304-7.182l-.163-.249c-10.395-22.729-15.303-46.391-14.723-69.736-.719-38.008 13.698-69.749 36.406-94.78 24.19-29.12 58.666-50.52 98.878-60.642 24.566-7.042 54.123-9.341 79.035-6.142 5.673.729 11.108 1.731 16.289 2.999 10.964 2.488 20.824 6.279 29.101 11.405 10.92 6.321 19.8 14.453 26.38 24.251l.06.098c.93 1.814.79 4.417-.44 7.955-5.25 15.11-30.881 47.176-65.293 81.691-36.475 36.583-71.085 64.217-92.582 73.919-5.417 2.101-9.822 4.431-14.082 6.684-6.434 3.404-12.511 6.619-20.324 7.897l-.167.027-.167-.029c-26.146-4.564-32.953-1.148-48.571 24.365-5.72 8.532-6.926 20.129-3.096 29.58 3.211 7.922 9.618 13.273 18.042 15.068l.122.034c4.57 1.598 8.768 1.911 12.472 2.186 4.581.341 8.198.611 10.311 3.256 1.765 2.21 2.172 5.731 1.32 11.419-1.591 16.905-2.546 31.826-3.051 44.997-.127 24.323.336 42.97.674 57.419.575 8.161 1.266 14.742 1.825 20.059 2.176 20.716 2.49 25.358-11.396 31.813-4.625 2.968-11.308 5.197-20.898 8.438-21.69 8.522-56.012 22.769-111.616 54.104zm0 0 .001.002-.003-.001zm143.337-214.212c.009-.106.019-.212.028-.318-.007.024-.014.048-.021.072zm202.801-261.156c.67-2.325.75-4.112.21-5.213-2.08-3.091-4.36-5.966-6.82-8.634 2.85 4.189 5.08 8.803 6.61 13.847zm-202.223 250.63c-.197-1.249-.58-2.212-1.152-2.928-.672-.842-1.651-1.368-2.873-1.717 1.881 1.092 3.293 2.561 4.025 4.645zm-66.248 65.409c.746 1.245 1.527 2.474 2.342 3.688-.816-1.246-1.597-2.475-2.342-3.688zm75.647-146.394c.626.103 1.262.21 1.91.323 3.248-.545 6.154-1.423 8.942-2.529-3.556.966-7.172 1.716-10.852 2.206zm-74.329 52.325c-.215.332-.434.668-.656 1.007h-.002c-3.968 7.901-6.986 15.824-9.063 23.67 3.133-8.352 6.963-16.316 9.721-24.677zm128.884-261.391c-3.529.785-6.91 1.644-10.113 2.562-22.548 5.676-43.268 14.926-61.344 27.11 21.968-13.892 46.765-23.847 71.457-29.672zm-137.703 202.7c2.184 7.442 4.94 14.83 8.267 22.121 1.039 1.174 1.972 2.309 2.804 3.412-1.731-7.682-5.187-16.088-11.071-25.533zm69.206 243.382c1.155-.884 2.062-1.802 2.758-2.807 2.615-3.779 2.412-9.151 1.42-19.008-.209 10.713-1.24 17.238-4.178 21.815zm964.196 496.61c-9.91 14.38-22.38 30.04-36.9 46.47-19.63 23.14-41.26 44.68-64.16 65.17-24.76 22.95-51.93 46.05-80.32 68.11-55.77 43.32-160.83 116.88-262.72 144.61-16.57 4.82-32.56 8.14-47.46 9.41-8.17 1.45-16.29 2.67-23.73 2.67-8.42 0-15.95-1.57-21.68-6.16-.55-.45-1.08-.92-1.59-1.41-.29-.11-.59-.22-.88-.33-.13-.33-.25-.65-.37-.98-4.56-5.19-6.96-12.65-7.32-22.68-8.88-37.36-8.47-68.36 1.31-97.55 7.21-17.48 16.33-30.8 27.32-42 2.64-3.03 5.45-6 8.42-8.89 1.85-1.19 3.7-2.38 5.55-3.56 14.39-11.34 31.27-20.94 50.57-31.92 35.28-20.06 79.18-45.03 131.68-93.95 38.98-35.11 72.27-73.72 99.69-115.53 16.5-26.61 32.1-55.66 45.7-84.86 7.51-17.41 14.16-35.25 19.93-53.52 15.31-37.63 30.49-82.86 27.65-134.1-.85-3.941-2.02-7.516-3.52-10.685-6.18 68.575-30.39 139.675-71.98 211.355-38.07 65.62-90.08 129.68-150.38 185.27l-1.66 1.52-.02-2.25c-.88-80.51-17.65-164.44-52.67-263.28-6.68-15.44-14.11-30.52-22.34-45.14-34.73-58.22-83.36-109.989-138.49-147.787-122.75-77.737-228.054-6.693-209.651-83.212-1.984-17.272 64.381-22.666-88.184-27.79-17.736-.207-38.546-.518-62.958-.882l-8.901-.133-.095-.879c-1.684-15.635-.339-32.904.96-49.604 1.887-24.241 3.67-47.146-2.923-65.647-3.742-1.52-7.193-2.296-10.472-2.69-3.898.168-7.434.024-10.624-.394-4.013.008-8.16-.027-12.615-.907l-.18-.036-.156-.097c-7.406-4.627-11.323-11.805-11.328-20.756-.008-15.822 11.792-32.67 23.206-39.818l.292-.183.343.036c1.192.124 2.386.228 3.583.312 1.111-.579 2.251-1.127 3.418-1.639 3.961.9 7.978 1.442 12.04 1.653 33.32-2.249 68.534-19.082 104.959-50.232 45.535-38.94 78.606-88.085 94.266-113.914l.82-1.352.87 1.32c11.9 18.056 13.81 37.269 15.65 55.85 1.37 13.859 2.79 28.189 8.47 41.559 5.34 8.354 11.5 13.477 17.47 18.432.17.147.35.293.53.44 5.44-2.347 9.55-4.702 11.44-7.126.02-.138.05-.277.08-.416 1.38-6.798 11.96-12.92 34.18-19.709 7.16-3.616 12.47-5.867 16.69-6.852 4.04-2.077 7.36-3.493 10.54-2.322 2.72 1 4.94 3.821 6.99 8.875 11.4 18.164 26.47 29.615 42.45 32.25 8.68 1.43 17.36.303 25.98-3.352 4.17-2.15 8.24-4.636 12.35-7.006 1.43-1.024 2.87-2.12 4.3-3.287 8.07-5.907 14.61-7.884 23.35-7.092 14.09.774 20.78 10.256 27.25 19.425 3.13 4.445 6.37 9.042 10.44 12.593 11.92 7.798 27.47 3.809 38.44-.917 18.7-8.064 37.94-23.942 52.39-41.591 8.46-12.025 15.58-25.074 21.46-37.542.65-2.175 1.17-4.311 1.54-6.396l.09-.285c1.2-2.326 1.47-5.716 1.73-8.996.43-5.368.92-11.439 6.52-11.044 82.17 9.437 147.32 33.066 205.08 74.369 22.46 16.056 44.22 35.021 66.18 57.892 18.4 18.582 35.52 38.658 51.3 59.925 13.64 17.601 27.6 36.871 42.08 58.021l.07.112c30.97 61.045 55.18 125.896 70.02 187.541 3.57 14.872 6.62 29.537 9.14 43.978 14.22 25.465 25.04 57.282 31.11 92.952 2.44 1.34 3.7 10.79 4.28 34.82.79 10.29 1.2 20.8 1.2 31.49 0 122.81-54.31 222.51-121.22 222.51-1.97 0-3.93-.09-5.87-.26zm-963.177-722.931c-.114-.011-.227-.023-.341-.034-1.268.813-2.54 1.748-3.797 2.791 1.323-.969 2.703-1.89 4.138-2.757zm-16.917 52.82c1.362 1.517 2.974 2.871 4.829 4.048.831.16 1.648.29 2.454.395-2.886-1.18-5.305-2.684-7.283-4.443zm313.144-123.874c-9.65 3.594-15.96 7.068-19.04 10.48 7.28-4.028 13.57-7.514 19.04-10.48zm92.3 28.65c-1.62-.097-3.25-.279-4.88-.548-1.38-.227-2.75-.517-4.12-.869 3.13.917 6.12 1.357 9 1.417zm598.19 182c-4.46-9.605-9.12-19.187-13.96-28.731-4.05-5.924-8.1-11.752-12.14-17.482 9.31 14.996 18.02 30.429 26.1 46.213zm-260 801.045c21.15-14.64 41.81-30.04 61.65-45.76-20.35 15.52-41.04 30.67-61.65 45.76zm-116.31-1078.976c-.26-.03-.52-.061-.79-.091-3.23-.252-3.83 2.773-4.34 9.211-.12 1.566-.25 3.156-.47 4.676 2.06-4.802 3.93-9.435 5.6-13.796zm92.59 826.786c-9.6 11.5-19.7 22.72-30.3 33.64 9.99-9.49 20.16-20.86 30.3-33.64zm112.22-209.98c-2.33 6.26-4.72 12.35-7.12 18.24-.92 2.9-1.85 5.78-2.81 8.66 3.57-9.09 6.89-18.08 9.93-26.9zm-244.86 49.23c6.54 20.96 12.2 41.27 17.01 61.07-4.7-20.65-10.32-41.07-17.01-61.07zm-232.65-608.121c-1.22-2.011-2.5-3.249-3.87-3.753-1.09-.401-2.29-.364-3.6-.032 2.82.363 5.14 1.646 7.47 3.785zm223.48 25.055c-10.77 9.562-22.58 17.558-34.19 22.584 12.81-4.532 24.18-12.574 34.19-22.584zm-130.6 1109.096c6.19 3.41 14.18 4.06 22.92 3.43-8.12-.32-15.8-1.43-22.92-3.43zm-9.47-127.15c-.64 1.43-1.27 2.89-1.89 4.38-.81 2.42-1.55 4.86-2.24 7.32 1.2-3.95 2.57-7.85 4.13-11.7zm-1130.944-184.09-1.743-1.26c-40.533-29.18-65.937-72.62-75.507-129.11-7.758-45.8-4.263-98.97 9.845-149.72l1.284-4.62.669 4.75c3.056 21.68 7.738 33.26 13.917 34.39.357.07.723.1 1.091.1 11.139.01 27.445-29.52 44.679-60.73 24.101-43.64 51.419-93.104 77.641-89.154l1.315.198-.556 1.209c-11.694 25.427-27.039 47.237-41.879 68.327-2.566 3.65-5.144 7.31-7.715 11.01-11.721 18.6-23.609 37.93-33.199 55.07-3.417 7.16-6.581 14.63-9.412 22.48-1.063 3.75-3.094 7.72-5.058 11.55-5.041 9.85-7.637 16.07-1.194 19.46l.112.07c.424.3.842.53 1.256.71 1.596-.16 3.53-.7 5.83-1.64 1.921-1.85 3.771-4.85 5.537-8.46 1.1-2.57 2.262-5.26 3.481-8.04 1.753-4.48 3.398-9.23 4.921-13.64 2.98-8.61 5.796-16.75 8.559-20.7 4.138-5.48 9.43-15.49 15.558-27.08 17.872-33.8 44.88-84.88 77.489-86.63l1.826-.1-.903 1.59c-9.32 16.42-19.062 32.63-28.484 48.31-26.765 44.54-52.049 86.62-70.346 135.8-.372 3-2.802 8.03-5.609 13.85-.398.82-.806 1.66-1.215 2.52-3.482 10.65-5.023 18.04-4.842 21.89.422.21.931.34 1.533.4l.188.02.169.08c1.006.51 1.888.86 2.682 1.04 3.318-2.97 8.357-10.21 14.853-22.05.175-.43.352-.86.532-1.3 9.105-22.32 26.055-63.85 65.586-128.98l.168-.2c2.029-1.92 3.9-3.66 5.627-5.24 1.84-2.55 3.754-5.09 5.752-7.63 2.999-1.75 5.658-3.03 7.922-3.81 4.155-2.88 6.06-3.12 7.235-2.24.731.54 1.051 1.49.942 2.97 1.716 3-.582 10.06-8.155 21.32-.994 1.82-1.988 3.65-2.981 5.48-2.286 4.61-4.936 9.87-7.964 15.87-31.006 61.4-88.722 175.68-81.6 269.73zm0 0h.001zm-10.197-144.65c-.422-.17-.857-.36-1.307-.59-.233-.02-.458-.06-.675-.11.41.79 1.075 1.03 1.982.7zm-17.02-80.18c.269-.53.541-1.06.812-1.59 1.92-3.75 3.905-7.63 4.935-11.25.163-.46.327-.91.492-1.36-2.532 5.2-4.648 9.98-6.239 14.2zm92.822-94.46c.68-1.14 1.36-2.27 2.042-3.4 3.73-6.21 7.51-12.5 11.294-18.85-4.641 7.6-9.085 15.02-13.336 22.25zm-59.715 62.18c-.133.18-.266.36-.397.53-1.561 2.23-3.191 6.04-4.884 10.58 1.701-3.64 3.464-7.35 5.281-11.11zm751.907 726.25c.964 3.5.223 6.26-2.221 8.24-2.734 2.21-7.745 3.22-14.542 3.22h.001c-57.469 0-242.918-71.72-265.209-90.7l-1.346-1.15 1.676-.56c43.341-14.56 74.729-58.27 79.965-111.35l.131-1.34 1.241.51c33.069 13.48 67.675 22.4 101.142 31.03 20.066 5.17 40.816 10.52 60.651 16.73l.487.15.163.49c.555 1.65.78 3.14.677 4.46.773.95.604 1.77-.657 2.44-.193.38-.426.74-.7 1.08-4.559 5.66-19.595 3.99-37.005 2.06-20.351-2.25-43.417-4.81-51.659 4.5-3.179 3.59-3.967 8.69-2.406 15.59 26.028 18.96 59.529 25.95 91.928 32.72 22.497 4.7 45.578 9.52 66.12 18.38 7.704 2.68 13.44 5.43 16.324 8.33.713.43 1.422.86 2.126 1.31l2.246 1.42-2.625.41c-32.978 5.21-65.146-2.64-96.251-10.23-11.721-2.86-23.838-5.82-35.92-8.07-3.816.34-9.979-1.29-16.503-3.01-5.425-1.43-11.252-2.96-16.033-3.45-4.53.08-7.855.88-9.654 2.64-.616 1.19-.753 2.81-.419 4.88l.023.15-.019.14c-.076.58.146 1.18.675 1.85 10.208 12.82 110.347 26.1 145.669 29.49l.27.07c8.477 3.32 11.332 8.68 10.402 12.53-.951 3.93-6.004 7.72-17.321 6.57-39.255-4.04-75.667-13.46-114.218-23.43-11.029-2.85-22.433-5.8-33.857-8.6l-.128-.04c-4.435-1.75-6.011-2.35-7.482-2.9-4.016 4.39-5.316 8.36-3.976 12.12 6.801 19.09 77.628 27.96 119.946 33.26 10.823 1.36 20.17 2.53 25.923 3.57l.474.09.229.42c.7 1.29 1.222 2.51 1.567 3.66.04.04.077.09.111.14-.005.06-.01.12-.016.18zm25.414-30.44c-1.427-1.87-3.914-3.73-7.668-5.22-4.298-.42-10.731-1.11-18.547-2.04 11.973 2.41 21.429 4.83 26.215 7.26zm-143.53-29.12c-4.243-1.6-7.532-3.24-9.587-4.9 1.191 1.65 4.577 3.28 9.587 4.9zm78.89-82.35c-.072-.53-.198-1.1-.379-1.7-3.706-1.16-7.445-2.29-11.206-3.39 5.212 1.89 9.203 3.6 11.585 5.09zm29.293 150.99c2.878-.46 5.043-1.25 6.454-2.39.618-.5 1.083-1.08 1.396-1.72-1.691 1.93-4.353 3.28-7.85 4.11zm6.999-11.16c-.084-.17-.172-.35-.264-.53-.738-.13-1.532-.26-2.377-.39.997.3 1.88.61 2.641.92zm16.432-18.23c7.351.4 11.28-1.59 12.739-3.89-2.407 1.29-6.554 2.58-12.739 3.89zm-82.161-115.64c11.932 1.25 22.5 1.92 27.086-.81-4.871.85-13.604 1.15-27.086.81zm-31.657 61.03c5.101 1.34 9.872 2.54 13.138 2.63-4.653-1.02-9.057-1.91-13.138-2.63zm-581.7-787.149c-6.38-6.916-13.219-10.419-20.438-10.448h-.089c-29.214 0-60.994 56.177-82.032 93.367-5.271 9.31-9.822 17.36-13.823 23.74l-1.946 3.1.1-3.66c2.609-96.129 38.452-195.304 106.533-294.774 70.848-103.512 160.847-183.868 223.871-233.051 2.443-1.595 4.552-2.066 6.516-1.492 4.319 1.265 7.09 7.405 10.927 15.903 1.231 2.726 2.579 5.713 4.126 8.853 8.98 13.386 16.982 25.104 27.091 34.093 10.173 7.536 23.577 13.647 41.619 16.533 58.226 8.568 65.272-10.426 71.492-27.183 4.204-11.327 8.041-21.664 25.302-22.76.224-.06.45-.118.679-.176 6.952-.808 13.102.258 18.69 1.875 6.886 1.337 14.958 3.466 24.458 6.53 7.457-1.277 12.243-7.904 16.47-13.757l.874-1.207.327-.096c.341-.1.684-.194 1.028-.283.262-.46.524-.933.787-1.418 1.077.214 2.143.429 3.195.646 21.448-2.869 48.467 13.089 68.598 24.978 2.41 1.423 4.733 2.795 6.951 4.08l.371.215.1.417c.574 2.397 1.269 4.822 2.045 7.287 4.566 6.63 6.747 13.742 7.357 21.264 2.234 6.74 4.096 13.485 4.688 19.925l.031.336-.18.287c-4.408 7.024-8.108 14.121-11.1 21.243-3.856 14.13-8.182 29.015-9.504 44.349-.184 23.413 7.46 46.034 22.903 66.137l.795 1.034-1.206.499c-57.162 23.646-105.833 80.215-85.708 153.292l.169.617-.489.413c-.748.632-1.496 1.263-2.244 1.896.028.161.057.322.085.483-5.242 4.23-10.474 8.486-15.693 12.769-115.385 98.433-229.626 207.443-285.181 351.813l-.819 2.13-1.011-2.05c-25.329-51.31-39.431-109.89-43.11-179.1.22-7.39.336-14.58.45-21.52.371-22.86.724-44.57 4.661-67.23.247-5.15.239-8.85-.237-10.88-.685-.51-1.305-.41-1.602-.36-1.279.22-2.752 1.28-4.252 2.88-1.935 2.76-4.412 6.89-7.555 12.5-1.508 3.74-2.43 7.44-2.262 10.19l.007.12-.02.12c-.828 4.73-1.575 9.45-2.243 14.16-4.933 45.89-4.371 88.25.515 127.37 22.663 152.34 120.765 281.23 221.426 360.87l1.199 1.03c3.668 3.16 7.271 6.27 10.832 9.32 23.013 18.69 44.436 35.04 62.407 49.58 3.665 2.57 7.408 5.12 11.247 7.66 22.106 16.06 38.077 28.99 40.484 48.79 1.287 4.67 1.235 9.13-.338 13.42-1.071 6.89-3.485 14.58-7.439 23.34-10.746 21.4-27.605 27.99-46.497 27.99-15.952 0-33.353-4.7-49.754-9.12-7.178-1.93-13.958-3.76-20.514-5.2-49.01-9.05-116.57-44.83-185.326-98.15-55.655-43.16-105.721-92.86-142.005-140.51-17.77-22.18-32.927-44.11-44.416-64.91-11.95-15.91-23.764-32.48-24.64-52.74.056-5.49.352-11.11.865-16.84-.554-9.9.646-19 3.822-27.12 10.909-58.31 38.81-123.87 62.191-178.79 2.476-9.36 8.762-20.17 15.417-31.6 10.664-18.32 21.691-37.27 16.064-49.79-2.929-6.52-10.106-10.84-21.943-13.23l-1.517-.31 1.984-2.76c9.384-13.05 23.566-32.78 18.198-43.65-.379-.76-.854-1.48-1.425-2.15-.603-.66-1.294-1.3-2.079-1.91-3.845-2.819-10.069-4.37-18.596-4.624l-.568-.017-.276-.497c-.342-.616-.687-1.221-1.032-1.815-1.048-.151-2.133-.291-3.255-.42-1.715-4.674-3.583-8.601-5.583-11.846zm453.397 682.069c-.291-.64-.601-1.28-.929-1.91-5.231-10.1-14.798-18.61-26.954-27.8 12.445 10.9 22.085 20.71 27.883 29.71zm87.09-1055.025c-.194-.717-.379-1.429-.552-2.137-1.244-.725-2.487-1.452-3.728-2.182 1.567 1.413 2.99 2.853 4.28 4.319zm-522.809 514.035c-4.301 7.54-8.089 14.69-10.257 21.15 3.654-7.7 7.093-14.73 10.257-21.15zm-39.804-153.478c.534-.033 1.068-.05 1.601-.05h.099c4.241.017 8.343 1.125 12.292 3.313-4.329-3.069-9.037-4.014-13.992-3.263zm248.837-396.5c-2.985-6.545-5.506-11.502-8.577-12.401-.07-.021-.141-.039-.212-.055 3.121 4.25 6.026 8.41 8.789 12.456zm242.237 369.211c.285-.241.569-.482.854-.722-.901-3.33-1.666-6.654-2.296-9.967.375 3.527.857 7.091 1.442 10.689zm-249.714 504.857c-26.671-34.68-49.337-71.69-67.361-110.24-11.556-24.71-21.066-49.83-28.46-75.13 19.624 73.97 55.076 134.79 95.821 185.37zm327.068-674.583c-4.01-7.326-7.108-14.895-9.293-22.64 1.804 7.499 4.777 15.057 9.293 22.64zm-175.326-153.566c-2.442 4.484-5.718 8.666-10.769 11.982 5.596-3.135 8.656-7.34 10.769-11.982zm-431.097 744.569c-.076 1.93-.125 3.85-.144 5.74.661 15.29 7.561 28.15 16.355 40.78-8.16-16.54-13.753-32.21-16.211-46.52zm276.076-802.901c-.805.196-1.672.599-2.614 1.211-10.896 8.504-23.43 18.618-37.104 30.225 13.156-10.876 26.421-21.362 39.718-31.436zm331.496 104.889c1.936-3.759 4.067-7.504 6.394-11.23-.401-4.068-1.326-8.288-2.53-12.563-.289 7.585-1.829 15.538-3.864 23.793zm-45.548-79.518c-9.536-4.264-19.199-7.43-28.135-7.983 10.708 2.453 20.034 5.119 28.135 7.983zm-257.884-48.189c1.476-1.776 2.945-3.58 4.409-5.408 6.688-14.032 18.292-27.531 29.581-40.666 7.219-8.399 14.038-16.332 19.346-24.116l.162-.184c3.267-2.905 4.899-5.661 4.99-8.426.162-4.903-4.446-9.579-9.782-14.993-11.416-11.582-25.62-25.996-1.722-52.253 3.735-5.481 8.487-8.16 14.23-9.045 3.156-1.165 6.535-1.185 11.566.151 6.455.861 13.754 2.746 21.878 4.843 19.473 5.028 44.953 11.607 76.773 8.512 8.948-1.01 17.841-2.589 26.625-4.703 32.367-8.28 70.169-27.249 113.667-65.631l1.401-1.236.251 1.852c3.525 26.006-9.238 45.722-21.582 64.79-3.548 5.481-7.043 10.879-10.145 16.356-3.018 5.62-5.758 11.336-7.928 17.229-3.171 9.462-4.382 19.572-2.169 31.032l.017.145c.071 1.577.151 3.156.231 4.734.597 11.749 1.215 23.897-2.115 34.805-2.919 7.583-4.578 9.921-8.089 11.437l-.172.075-.188.007c-2.463.088-4.77.307-6.935.649-2.818.911-5.297 1.431-7.549 1.86-16.855 5.85-23.255 21.043-30.443 38.103-5.181 12.296-10.538 25.012-20.39 35.558l-.124.133-.163.081c-5.011 2.476-10.436 2.147-16.147.716-6.879-.873-13.74-4.241-20.634-6.712-7.364-2.021-14.795-2.744-22.068.798-10.518 5.123-19.286 18.565-26.807 41.098l-.116.346-.311.19c-8.038 4.917-16.435 7.378-25.107 7.378-6.297 0-12.739-1.297-19.298-3.896-31.088-12.315-55.938-50.079-64.417-81.018l-.076-.275.082-.274c.076-.257.155-.514.235-.77-.342-1.102-.664-2.193-.967-3.272zm269.919-74.56c-.038-.786-.078-1.572-.118-2.355-.081-1.557-.158-3.114-.229-4.672-.361-1.88-.63-3.727-.815-5.545-.014 4.073.35 8.257 1.162 12.572zm-79.827 119.88c1.548-.221 3.047-.653 4.49-1.344.84-.905 1.648-1.827 2.424-2.765-2.31 1.922-4.614 3.25-6.914 4.109zm40.056-64.666c2.095-2.331 4.429-4.433 7.077-6.242-2.364 1.188-4.64 3.044-7.077 6.242zm65.532-176.491c-9.293 7.398-18.488 14.059-27.605 19.995 9.635-6.01 18.871-12.697 27.605-19.995zm-34.832 163.157c.041-.002.081-.003.122-.005.457-.205.876-.426 1.272-.69-.472.243-.937.475-1.394.695zm-236.69 1.355c-3.872 4.759-7.553 9.566-10.804 14.423 3.588-4.72 7.177-9.545 10.804-14.423zm93.792-111.232c-8.777-1.725-16.719-3.775-23.794-5.602-2.335-.603-4.586-1.184-6.756-1.727 10.061 3.317 20.271 5.743 30.55 7.329zm-81.843 25.006c.678 6.541 4.38 11.936 8.755 16.833-3.887-5.173-7.411-10.764-8.755-16.833zm662.581 1309.76c.07-.25.13-.48.15-.72.12-.97-.25-1.77-1.16-2.53l-.26-.22-.07-.33c-.3-1.35-.92-2.19-1.95-2.62-6.18-2.65-25.25 8.92-47.33 22.32-32.78 19.88-77.658 47.1-114.146 49.08l-1.758.1.819-1.56c12.828-24.43 38.097-35.23 67.555-47.17 7.13-3.03 14.4-5.94 21.66-8.92 25.9-11.09 53.59-25.34 79.65-51.22 2.73-3.36 7.04-7.49 12.02-12.27 12.81-12.28 30.37-29.1 29.59-42.64-.24-4.06-2.05-7.58-5.52-10.69-.58-.3-1.2-.59-1.86-.86-11.66 3.27-23.19 9.22-34.36 14.98-20.48 10.56-41.65 21.47-64.87 16.8l-1.97-.4 1.51-1.33c18.43-16.25 39.61-26.52 62.02-37.39 30.79-14.93 62.63-30.37 92.57-63.2l2.81-3.09-1.11 4.03c-12.76 46.22-14.15 85.5-4.2 119.72 2.23 5.43 4.5 9.71 6.2 13.43 7.88 11.69 5.24 14.97-4.67 24.49-1.81 1.74-3.86 3.71-6.12 6.01-6.62 10.57-37.58 36.26-70.63 58.59-24.39 16.49-69.86 44.66-100.24 48.1-1.87.22-3.75.33-5.63.34-7.46 0-13.18-1.97-17.04-5.88l-2.07-2.1 2.92.41c3.1.46 28.66-7.94 56.31-19.93 19.57-8.48 53.46-24.59 60.64-37.09 1.61-2.8 1.67-5.12.18-7.09-5.88-4.27-16.51 2.83-31.2 12.64-12.09 8.07-27.14 18.11-45.29 25.74-2.13 1.02-4.26 2.06-6.37 3.12-16.56 8.2-41.58 20.59-51.58 10.42l-.599-.61.508-.69c.246-.33.499-.65.761-.97-.293-.38-.563-.79-.813-1.22.662-.35 1.863-.9 3.533-1.64 6.64-6.01 16.23-8.97 26.29-12.07 1.79-.55 3.58-1.1 5.37-1.68 6.06-2.67 12.53-5.57 19.12-8.62.55-.39 1.1-.8 1.62-1.22 2.78-2.92 12.31-7.69 24.35-13.72 15.75-7.89 36.44-18.25 42.85-25.69.8-1.02 1.41-2 1.81-2.94zm-71.6 26.15c6.99-4.1 13.69-8.17 19.94-11.96 2.76-1.67 5.43-3.29 8.01-4.85-9.24 5.21-18.53 11-27.95 16.81zm101.89-136.22c1.25-.44 2.49-.86 3.74-1.26-.21-.05-.43-.11-.66-.16-1.02.46-2.05.93-3.08 1.42zm67.9 76.69c.29-.77.45-1.55.46-2.37-.08.78-.23 1.57-.46 2.37zm-134.58 60.09c-2.47 1.25-4.94 2.49-7.37 3.71-4.51 2.26-8.92 4.46-12.72 6.47 6.9-3.34 13.71-6.77 20.09-10.18zm-111.884 18.37c-1.509 1.29-2.961 2.63-4.351 4.03 1.41-1.39 2.861-2.73 4.351-4.03zm93.274-1444.665c-4.94-12.896-7.49-26.389-4.93-40.892l.61-3.505 1.3 3.314c15.79 40.292 40.27 66.343 72.75 77.428 39.54 13.496 88.31 3.989 141.05-27.48 1.71-16.454 10.13-26.755 22.59-27.594 12.81-.857 28.37 9.381 33.33 30.625 3.65 15.292 3 26.127 2.43 35.687-.99 16.651-1.78 29.803 21.95 57.354 7.35 8.388 15 16.889 22.39 25.109 8.75 9.72 17.01 18.9 24.76 27.868l.32.362-.09.471c-5.2 28.688-13.06 51.668-23.34 68.301-13.64 22.072-31.63 33.235-53.52 33.236v-.001c-1.43 0-2.88-.047-4.33-.142l-.14-.019c-7.32-1.51-9.83-5.712-12.49-10.161-.82-1.376-1.67-2.798-2.69-4.195l-.08-.13c-17.03-32.804-36.06-23.061-58.09-11.781-17.63 9.024-37.61 19.252-57.95 5.48-14.24-8.783-21.27-22.272-28.06-35.316-3.03-5.821-6.16-11.84-9.9-17.348-1.76-2.638-3.65-4.833-5.62-6.67-2.27-1.928-4.58-3.552-6.91-4.935-6.39-3.423-13.24-4.479-19.59-5.458-7.2-1.109-13.58-2.093-17.92-6.189-7.05-2.613-12.19-7.071-13.87-17.389 20.77-95.214-11.96-103.084-23.96-146.03zm336.07 160.683c.11-.605.22-1.213.34-1.823-.83-.953-1.66-1.909-2.5-2.868.79 1.515 1.51 3.077 2.16 4.691zm-289.19 5.192c1.89.524 3.93.914 6.08 1.268-2.09-.442-4.12-.847-6.08-1.268zm207.21 91.217c.98.432 2.09.787 3.38 1.057l-.01.001c.35.022.7.042 1.05.058-1.45-.297-2.93-.668-4.42-1.116z" fill="#fff"/><path d="m407.39 526.432c-168.858-2.289-154.598-224.494-57.499-232.692-4.833-38.831 11.435-87.114 48.993-106.954 36.543-21.439 45.895-5.832 70.865-2.03 25.319-57.036 89.884-86.974 149.549-65.778 111.642 41.44 60.727 104.226 103.817 102.002 46.754 16.167 47.867 63.258 21.356 98.461 9.412 25.072 6.695 55.448-9.508 79.973-52.547 71.637 20.412 122.566-64.005 123.091-11.825 9.82-12.4 29.29-22.383 44.055 26.127-5.063 49.317 1.284 72.091 11.655 20.286-132.475 116.086-196.473 233.424-174.605 95.2 13.55 122.32 75.844 122.61 157.005 38.84-27.069 86.23-18.455 50.21-47.641-71.7-15.242-21.72-64.309-41.59-109.619-87.575-128.751 18.47-281.59 158.41-275.19-15.02-59.129 30.55-116.045 89.28-125.668 109.39-20.535 175 176.806 45.22 191.52 26.43 37.103 35.41 84.861 31.02 130.477-7.57 89.465-69.83 79.242-22.56 116.492 11.87 11.148 20.88 24.369 34.89 35.512 28.37 3.546 53.43 7.105 82.84 14.694 152.01 47.306 204.7 104.448 276.38 193.822 78.8 91.342 103.34 212.428 118.5 328.856 1.25 11.54-.3 19.03 5.77 30.99 28.51 59.79 21.71 126.08 1.01 187.86 41.96 382.72-287.02 632.15-627.85 496.22-19.81-4.12-38.81-30.98-52.63-7.89-49.79 57.6-115.15 99.25-190.91 110.84-16.66-2.2-20.97-16.6-34.63-26.61-3.742-4.18-3.426-8.29-11.242-3.87-34.584 15.77-33.199-21.47-66.976-12.53-3.151 9.33-11.782 17.22-23.626 19.2-.562 8.95-2.802 20.09-12.763 27.65-28.178 6.37-13.046 30.89-41.883 31.9-55.983-.89-116.63-9.79-168.242-39.34-32.001-2.6-106.343-37-106.231-61.71-22.195 3.09-47.228-16.9-61.701 3.87-57.327 42.29-127.614 49.88-196.872 37.1-123.313-11.31-216.357-114.38-264.09-222.14-63.615-135.91-43.991-285.4-37.166-430.6 3.661-30.78 12.43-57.01 27.818-84.57 2.507-42.67 12.221-81.698 26.74-122.965 39.082-116.24 110.466-214.72 199.371-299.102 45.494-38.597 76.992-85.8 134.435-105.555 6.721-3.189 3.573-9.195 9.758-16.185zm1466.63 599.168c14.95-125.633-26.37-267.215-84.82-382.446-105.6-154.266-197.95-230.715-363.89-249.774-7.48-.543-3.9 12.941-7.29 19.502-7.98 45.181-81.33 109.497-115.42 87.069-12.58-10.952-16.75-30.697-37.17-31.819-8.83-.803-15.06 1.337-22.63 6.871-34.05 27.79-67.08 12.254-86.61-18.923-6.95-17.268-14.33-4.366-29.78-.177-102.46 30.107 49.06 39.848-24.76 94.24-6.7 6.257-11.49 11.823-14.02 22.319 8.82 117.65-65.81 41.311-58.83 138.287 1.71 12.533-9.14 34.661 5.59 37.647 40.75 14.2 78.77 25.312 119.23 42.439 95.87 45.837 171.6 129.375 212.63 214.625 32.01 88 55.59 179.71 56.63 274.47 116.67-107.54 209.78-253.35 222.19-397.583 4.87 2.874 5.27 2.761 5.27 10.588 3.05 48.265-9.36 91.365-27.59 136.195-31.48 99.59-87.6 184.07-165.6 254.34-116.21 108.3-190 99.2-223.27 179.91-10.73 32.02-9.25 63.55-1.27 97.09 1.63 47.02 49.4 26.73 79.68 23.94 179.08-36.59 420.17-246.39 477.96-348.79-1.24-133.59-102.18-279.57-34.14-273.39-7.75-21.41-12.29-86.703 26.17-60.2 37.95-92.322 72.84 106.09 91.74 123.57zm-1678.149-74.22c55.48 11.18-.38 63.91-8.788 95.92-30.906 72.61-66.154 156.45-66.827 222.38 1.417 32.78 31.495 55.24 45.706 84.02 75.943 119.54 247.338 252.42 349.894 271.37 39.984 8.74 92.375 33.23 115.64-13.12 19.915-44.08-.116-60.87-32.346-84.3-31.554-20.85-56.436-42.37-85.754-67.63-150.09-118.75-254.141-308.52-220.063-503.37-.674-11.03 15.298-36.99 19.435-22.24-6.857 32.5-5.612 62.53-6.639 96.55 3.318 62.41 15.096 122.17 43.009 178.71 58.117-151.03 182.339-265.19 303.321-367.361-19.746-71.702 25.876-129.49 86.291-154.482-31.976-41.626-28.816-90.699-2.353-132.87-1.428-15.563-10.372-32.902-14.067-48.335-22.453-13.005-55.703-34.977-79.775-27.908-4.483 6.179-9.61 13.819-18.029 15.127-112.237-36.293-22.404 59.083-140.701 41.675-79.69-12.747-69.565-87.067-89.506-74.088-162.058 126.466-324.365 318.719-330.02 527.062 27.017-43.08 84.244-171.256 127.972-92.53 43.611 1.3 17.928 35.45 3.602 55.42zm480.002-125.086c208.942-117.745 123.303 3.346 143.964-216.108 2.764-18.463-8.684-10.609-23.444-15.768-21.812-4.648-26.008-30.611-15.59-46.148 15.657-25.578 22.805-29.505 49.596-24.828 12.625-2.066 20.392-9.174 34.155-14.506 51.967-23.454 166.796-144.874 157.836-162.195-31.644-47.146-107.958-44.075-149.731-32.101-104.015 26.181-164.125 127.067-119.895 223.771 12.264 13.794 9.589 21.71-.125 36.527-18.896 37.583-18.12 79.931 12.324 110.733-63.87 17.663-102.809 76.915-89.089 140.622zm163.711-115.563c264.446 3.94 126.749 2.547 187.056-60.384 24.72-15.73 44.81-15.622 41.43-50.413.19-58.289 5.93-41.664 32.94-74.649 3.97-11.504-2.08-16.057-9.25-25.746-10.13-14.617-23.15-18.555-33.48-34.77-13.34-31.287-3.33-65.871-24.07-97.326-46.287 76.349-132.554 173.3-219.221 164.295-18.194 11.395-34.1 44.994-11.878 58.878 11.718 2.315 21.026-1.336 34.308 4.216 11.652 31.972-1.888 78.245 2.166 115.899zm441.366-470.408c-89.7 53.708-177.26 47.821-215.67-50.183-9.18 52.115 47.74 89.893 46.55 141.386-30.39 99.015 20.74 47.423 46.09 85.442 12.13 17.87 17.32 39.828 37.7 52.398 44.03 29.808 84.51-54.678 116.36 6.669 4.36 5.956 5.51 12.096 14.58 13.967 52.89 3.44 72.22-56.906 80.14-100.575-14.5-16.762-31.35-34.934-47.15-52.978-37.46-43.481-14.53-51.29-24.6-93.466-8.45-36.177-50.22-42.419-54-2.659zm-746.383 279.185c26.695-79.982 62.403-24.738 86.161-36.48 26.72-28.603 20.595-74.869 66.011-76.487 3.167-1.367 4.668-3.384 7.529-10.811 3.715-12.17 2.447-25.761 1.841-39.203-9.927-51.411 48.87-77.42 41.815-129.462-156.7 138.267-237.751 26.095-264.614 65.744-40.616 44.557 31.137 53.794 6.391 75.798-15.541 22.791-44.668 47.676-52.472 73.953 12.839 46.845 62.094 104.62 107.337 76.947zm-495.263 475.962c-25.312 91.06-22.641 214.45 65.283 277.75-12.222-161.41 165.459-381.241 74.905-295.8-75.885 125.01-67.474 160.57-84.962 151.66-12.742-1.25 8.35-31.36 9.251-39.89 24.999-67.26 64.017-122.85 98.94-184.36-43.008 2.31-75.946 91.64-92.281 113.28-8.173 11.68-17.065 61.85-30.98 52.01-11.217-5.9 2.325-20.08 5.777-32.23 22.747-63.11 66.027-99.97 92.237-156.967-56.06-8.437-120.526 239.727-138.17 114.547zm1710.106-28.4c-7.39 44.63 19.41 91.07 32.52 135.26 14.81 47.51 17.48 91.98 18.56 141.48 73.56-43.36 102.85-122.35 103.63-201.19-.36-14.01.68-90.01-6.46-71.84-6.85 17.31-.94 36.04-9.88 54.23-7.36 10.56-30.05 15.9-36.53-.75-22.98-44.93-20.13-98.11-51.17-140.312-28.75 28.022 36.61 131.372 38.28 153.042 3.02 13.28 18.71 34.26 2.05 41.59-10.37-.03-11.21-17.83-16.34-27.67-20.72-50.43-31.1-99.13-57.85-147.18-29.32 60.26 87 197.8 51.31 211.22-13.76-15.51-13.51-41.28-24.19-60.79-17.8-29.43-24.57-59.51-43.93-87.09zm-1086.548 585.16c-4.692 47.56-32.27 95.94-80.642 112.2 27.873 23.74 306.524 127.82 278.782 76.49-32.621-5.9-176.092-15.34-141.994-51.09 1.679.61 2.935 1.09 8.126 3.13 50.224 12.3 97.215 26.78 147.938 32 19.469 1.98 21.577-11.25 6.453-17.18-36.713-3.52-149.109-18.24-147.24-32.46-3.067-19.1 32.412-1.06 43.641-2.23 44.419 8.26 86.836 25.45 131.971 18.32-51.137-32.3-126.79-24.28-176.855-60.99-11.926-50.54 101.942.09 91.692-30.41-52.567-16.46-108.703-26.12-161.872-47.79zm353.738 162.46c30.82 31.22 177.59-77.68 192.04-101.07 15.61-15.93 21.12-15.77 7.32-34.09-14.88-41.56-10.61-86.04 1.3-129.21-52.14 57.18-111.35 62.49-154.67 100.67 35.92 7.24 66.46-23.2 99.89-32.06 25.84 19.61-21.97 53.1-34.35 68.39-65.55 65.13-142.675 57.52-168.718 107.11 66.568-3.61 159.428-90.72 164.458-68.01 12.98 10.91-60.24 38.82-67.96 47.11-16.09 12.91-44.4 11.91-55.77 27.28 10.86 11.04 41.46-6.47 56.86-13.76 40.99-17.23 66.09-46.86 77.58-38.18 15.76 20.04-109.85 66.95-117.97 65.82z" fill-rule="nonzero"/></g></svg>