<svg clip-rule="evenodd" fill-rule="evenodd" stroke-linejoin="round" stroke-miterlimit="2" viewBox="0 0 93 61" xmlns="http://www.w3.org/2000/svg"><path d="m77.406 65.164c3.762-2.586 6.848-6.633 9.148-11.18 2.586-5.117 4.047-10.652 4.047-14.926 0-3.254-1.191-5.863-4.441-5.863-2.004 0-4.484.961-7.172 3.015l-1.586 1.211v27.742zm-54.824-27.754-1.574-1.199c-2.688-2.059-5.164-3.016-7.172-3.016-3.258 0-4.441 2.61-4.441 5.864 0 8.558 5.543 20.852 13.188 26.097zm-18.598 1.648c0-4.558 1.789-8.562 5.633-10.363 4.558-2.14 10.047-.308 14.664 3.223l1.109.844 15.348-10.289c5.571-3.731 12.266-3.641 17.871-.02l15.965 10.328 1.129-.863c4.629-3.531 10.109-5.363 14.676-3.223 3.84 1.801 5.633 5.805 5.633 10.363 0 5.051-1.664 11.492-4.637 17.359-2.633 5.207-6.328 10.031-10.852 13.141l-4.172 2.864c-1.156.82-4.336 2.449-5.722 3.105-13.742 6.477-27.316 6.145-40.488.277-1.602-.714-5.317-2.535-6.555-3.421l-4.109-2.825c-4.575-3.14-8.254-8-10.859-13.141-2.965-5.867-4.629-12.305-4.629-17.359zm55.484 17.07-18.945-.023c-1.496 0-2.695 1.207-2.695 2.695 0 1.489 1.199 2.696 2.695 2.696l18.945.023c1.484 0 2.695-1.207 2.695-2.695 0-1.489-1.211-2.696-2.695-2.696zm-18.945-8.05 18.945.023c1.484 0 2.695-1.207 2.695-2.695 0-1.489-1.211-2.696-2.695-2.696l-18.945-.023c-1.496 0-2.695 1.207-2.695 2.695 0 1.489 1.199 2.696 2.695 2.696zm15.141-21.102c-3.754-2.426-8.191-2.52-11.926-.02l-15.75 10.559v31.199c14.754 8.125 29.297 8.371 44.023.02v-31.184l-16.348-10.57z" transform="translate(-3.984 -19.7062)"/></svg>