<svg clip-rule="evenodd" fill-rule="evenodd" stroke-linejoin="round" stroke-miterlimit="2" viewBox="0 0 82 77" xmlns="http://www.w3.org/2000/svg"><path d="m90.986 11.635c0 1.376-.753 2.143-1.68 2.592v1.405h-.029c0 .043.029.072.029.116 0 .637-.232 1.202-.565 1.709-.014 20.406-15.902 37.12-35.946 38.568v6.908c1.81.985 3.056 2.897 3.056 5.112 0 2.23-1.246 4.142-3.056 5.127v5.359c9.341-.072 16.496-.029 16.496 9.834h-38.568c0-9.863 7.155-9.906 16.51-9.834v-5.373c-1.825-.985-3.07-2.897-3.07-5.112 0-2.216 1.246-4.113 3.07-5.112v-6.908c-20.043-1.435-35.931-18.148-35.96-38.54-.333-.521-.565-1.086-.565-1.738 0-.043.014-.072.014-.116h-.014v-1.405c-.941-.449-1.695-1.217-1.695-2.592h10.08c0 1.376-.753 2.143-1.68 2.592v1.405h-.029c0 .043.029.072.029.116 0 .652-.246 1.217-.579 1.723.029 17.336 13.426 31.573 30.399 32.992v-6.083c-13.599-1.39-24.243-12.875-24.316-26.807-.377-.536-.637-1.13-.637-1.825 0-.043.029-.072.029-.116h-.029v-1.405c-.927-.449-1.68-1.217-1.68-2.592h10.08c0 1.376-.768 2.143-1.694 2.592v1.405h-.029c0 .043.029.072.029.116 0 .623-.217 1.173-.536 1.665h.014c0 10.935 8.197 19.972 18.77 21.348v-6.141c-7.14-1.303-12.571-7.488-12.687-14.975-.405-.536-.681-1.173-.681-1.897 0-.043.014-.072.014-.116h-.014v-1.405c-.927-.449-1.694-1.217-1.694-2.592h10.08c0 1.376-.753 2.143-1.68 2.592v1.405h-.029c0 .043.029.072.029.116 0 .623-.232 1.173-.536 1.665h.058c0 4.504 3.027 8.27 7.14 9.486v-9.428c-.333-.507-.579-1.072-.579-1.723 0-.043.029-.072.029-.116h-.029v-1.405c-.927-.449-1.68-1.217-1.68-2.592h10.08c0 1.376-.768 2.143-1.694 2.592v1.405h-.014c0 .043.014.072.014.116 0 .652-.232 1.217-.565 1.738v9.414c4.099-1.217 7.111-4.953 7.126-9.428-.319-.507-.565-1.072-.565-1.723 0-.043.029-.072.029-.116h-.029v-1.405c-.927-.449-1.68-1.217-1.68-2.592h10.08c0 1.376-.768 2.143-1.695 2.592v1.405h-.014c0 .043.014.072.014.116 0 .652-.232 1.231-.579 1.738-.029 7.56-5.504 13.817-12.687 15.135v6.141c10.543-1.376 18.726-10.384 18.755-21.29-.333-.507-.565-1.072-.565-1.723 0-.043.014-.072.014-.116h-.014v-1.405c-.941-.449-1.694-1.217-1.694-2.592h10.08c0 1.376-.753 2.143-1.68 2.592v1.405h-.029c0 .043.029.072.029.116 0 .652-.246 1.217-.579 1.738-.03 13.974-10.704 25.502-24.318 26.893v6.083c16.96-1.42 30.342-15.656 30.385-32.964-.333-.521-.579-1.101-.579-1.752 0-.043.014-.072.014-.116h-.014v-1.405c-.927-.449-1.695-1.217-1.695-2.592z" fill-rule="nonzero" transform="translate(-9.013 -11.635)"/></svg>