<svg height="514" viewBox="0 0 578.808 513.523" width="579" xmlns="http://www.w3.org/2000/svg"><path d="m343.639 349.7c285.5-7.3 222.2-33.6 233.2 77.4-1.3 22.6 5.4 51.6-.5 70.2-61.2 4.3-120 5.4-180.6 8.5-243.3 6.6-176.8 31.2-189.8-64.7.5-9.4-5.1-5.7-12.2-1.4-39.6 39.9-128.5-78-138.7-99.5-34.8-64.5-63.4-137.9-52.8-207.6 82.9-20.7 134.5-65 170-132.6 95.3 157 180.3 92.7 181.3 118.5 15.6 62.3-4.6 125.7-32.5 181.1-35.8 68.8-46.9 49.8 22.6 50.1zm-304.6-183.7c15.6 92 62.3 201.4 137.8 233 15.8-9 38.4-20.6 23.1-40-3.2-7.5 30.7 2.2 34.9-11.9 38-51 68.6-104.8 85.8-166.1 16.9-36-37.6 10.4-104-51-74.3-71.9-20.8-83.4-73.6-24.2-64.4 67-96.8 45.2-104 60.2zm270.7 338c237.5-12.1 245.6-7.2 245.7-14.7-7.2-178 13.4-133.8-55.6-137.1-217.1 9.8-287.2 6.3-284.6 13.9 23.2 185.5-12.6 134.7 94.5 137.9z"/><path d="m163.739 274.3c2.2-61.7 5.9-28.9-13.3-58.2-14.1-29.5 29.6-42.2 47-24.1 13.1 15.3-3 31.8-7.6 43-.7 19.1.5 36-1.2 58.6 2 10.2-19.8 5.6-23.7 3.6-2.4-4.2-.7-15.5-1.2-22.9z"/><path d="m271.239 446.2c-22.4 35.5-40.9 20.2-27.5 12.7 47.6-41.6 16.9-26.5.4-59.2 11.7-15.6 24.7 18 29.5 7.2-2.3-32.2 12.4-17.6 14.5 4.1 6.3-3.3 13.4-14 20.8-19.3 26.7-21.6-16.4 26.9-18.4 30.6 3.8 14.1 52 32.2 34.5 41.9-17.9 19.3-18.4-11.9-33.9-15.6.3 13.9 4.3 35.7-17.4 24.6-3.4-8.4 2-17.6-2.5-27z"/><path d="m535.64 453.3c-42.3-16.5-59.5-54.3-45.7 3.3 5.8 8.3-19.2 21-17.5-12.5-10.1 11.8-13.3 25.8-26.2 10 6.8-12.9 16.4-24.3 24.4-38 4.5-10.7-31.3-17.4-23-25.7 44.4 28 9-2.3 29.3-14 17.5 11.9-12.2 43.6 28.6 4.6 25.2-1.4-20.2 32.6-16.6 37 15.5 12.9 35.101 18.4 46.701 35.3z"/><path d="m435.439 466.7c-18.3-3-30-15.2-41.9-29.7-1.4 10.6 1.5 21.5 3.1 31.3-14.2 4.8-16.9-8.7-16.9-20.9-17.3 33.4-36.4 16.8-20.3 3.7 31.5-39.5 21.4-32.8-9.1-57.2 6.5-3 20.3 8.9 29 14.6-4.5-36 5.1-32.5 12.1-4.9 7.3-3.9 10.1-15.3 21.1-19.6 16.9.7-14.9 25.7-15.8 33.9-7.4 13.3 37.1 44.5 38.7 48.8z"/></svg>