<svg clip-rule="evenodd" fill-rule="evenodd" stroke-linejoin="round" stroke-miterlimit="2" viewBox="0 0 90 90" xmlns="http://www.w3.org/2000/svg"><g fill-rule="nonzero" transform="translate(-8 -8)"><path d="m77.5 5h-60c-1.381 0-2.5 1.119-2.5 2.5v70c0 1.381 1.119 2.5 2.5 2.5h2.5v10h-2.5c-1.381 0-2.5 1.119-2.5 2.5s1.119 2.5 2.5 2.5h60c4.136 0 7.5-3.364 7.5-7.5v-75c0-4.136-3.364-7.5-7.5-7.5zm-57.5 5h57.5c1.379 0 2.5 1.122 2.5 2.5v62.928c-.782-.277-1.624-.428-2.5-.428h-57.5zm60 77.5c0 1.378-1.121 2.5-2.5 2.5h-52.5v-10h52.5c1.379 0 2.5 1.122 2.5 2.5z"/><path d="m73.815 28.75c-.446-.773-1.271-1.25-2.165-1.25h-12.99l-6.495-11.25c-.446-.773-1.271-1.25-2.165-1.25s-1.719.477-2.165 1.25l-6.495 11.25h-12.99c-.894 0-1.719.477-2.165 1.25s-.446 1.727 0 2.5l6.495 11.25-6.495 11.25c-.446.773-.446 1.727 0 2.5s1.271 1.25 2.165 1.25h12.99l6.495 11.25c.446.773 1.271 1.25 2.165 1.25s1.719-.477 2.165-1.25l6.495-11.25h12.99c.894 0 1.719-.477 2.165-1.25s.446-1.727 0-2.5l-6.495-11.25 6.495-11.25c.447-.773.447-1.727 0-2.5zm-23.815-6.25 2.887 5h-5.773zm-11.547 10-2.887 5-2.887-5zm-5.773 20 2.887-5 2.887 5zm17.32 10-2.887-5h5.773zm5.773-10h-11.546l-5.773-10 5.773-10h11.547l5.773 10zm5.774 0 2.887-5 2.887 5zm2.887-15-2.887-5h5.773z"/></g></svg>