<svg clip-rule="evenodd" fill-rule="evenodd" stroke-linejoin="round" stroke-miterlimit="2" viewBox="0 0 92 93" xmlns="http://www.w3.org/2000/svg"><path d="m93.23 48.49c.823 0 1.5.677 1.5 1.5s-.677 1.5-1.5 1.5h-2.35v43.51c0 .823-.677 1.5-1.5 1.5h-78.76c-.823 0-1.5-.677-1.5-1.5v-43.51h-2.35c-.823 0-1.5-.677-1.5-1.5s.677-1.5 1.5-1.5h1.54c-2.528-2.218-3.985-5.417-4-8.78 0-3.44 2.86-5.29 5.38-6.93 3.15-2.04 5.06-3.49 4.91-6.42-.001-.025-.002-.05-.002-.075 0-.824.678-1.502 1.502-1.502.796 0 1.46.632 1.5 1.427.13 3.07 2.53 4.72 5 6.41s5.26 3.6 5.26 7.09c-.001 3.355-1.44 6.554-3.95 8.78h1.43c.823 0 1.5.677 1.5 1.5s-.677 1.5-1.5 1.5h-2.34v5.7l19-8.19v-14.48h-3c-.823 0-1.5-.677-1.5-1.5s.677-1.5 1.5-1.5h2.52c-3.225-2.579-5.107-6.491-5.11-10.62 0-3.93 3.07-5.9 6.21-7.93s6.1-3.95 5.91-7.81c-.001-.025-.002-.05-.002-.075 0-.824.678-1.502 1.502-1.502.796 0 1.46.632 1.5 1.427.16 3.75 3.01 5.7 6 7.75s6.09 4.13 6.09 8.13c-.003 4.129-1.885 8.041-5.11 10.62h2.49c.823 0 1.5.677 1.5 1.5s-.677 1.5-1.5 1.5h-3v15l19 7.72v-5.74h-2.38c-.823 0-1.5-.677-1.5-1.5s.677-1.5 1.5-1.5h1.58c-2.529-2.217-3.986-5.417-4-8.78 0-3.44 2.85-5.29 5.37-6.93 3.15-2.04 5.06-3.49 4.91-6.42-.001-.025-.002-.05-.002-.075 0-.824.678-1.502 1.502-1.502.796 0 1.46.632 1.5 1.427.14 3.07 2.53 4.72 5 6.41s5.27 3.6 5.27 7.09c-.015 3.363-1.472 6.562-4 8.78zm-51.35 44.98h16.24v-9.76c.002-.575-.059-1.148-.18-1.71-.817-3.714-4.137-6.383-7.94-6.383s-7.123 2.669-7.94 6.383c-.121.562-.182 1.135-.18 1.71zm-34.59-53.76.03-.04c.159 4.708 4.075 8.494 8.785 8.494s8.626-3.786 8.785-8.494c0-1.81-1.54-2.94-4-4.62-1.762-1.065-3.334-2.417-4.65-4-1.35 1.732-3.033 3.177-4.95 4.25-2.47 1.61-4 2.68-4 4.41zm80.55 53.76.08-42h-7.92v42zm-67.84 0v-42h-7.88v42zm37.94-17.54c2.039 2.075 3.182 4.871 3.18 7.78v9.76h15.88v-33l-27.74-11.25-26.26 11.25v33h15.88v-9.76c-.002-2.909 1.141-5.705 3.18-7.78.874-.883 1.888-1.616 3-2.17 3.106-1.561 6.774-1.561 9.88 0 1.112.554 2.126 1.287 3 2.17zm-27.09 3.13c.823 0 1.5.677 1.5 1.5v4.27c0 .823-.677 1.5-1.5 1.5s-1.5-.677-1.5-1.5v-4.27c0-.823.677-1.5 1.5-1.5zm25.34-20.97c.279.458.29 1.032.03 1.5l-1.22 2.11 1.16 2.11c.132.228.201.487.201.751 0 .804-.647 1.473-1.451 1.499h-2.49l-1.15 2c-.267.464-.764.752-1.3.752s-1.033-.288-1.3-.752l-1.15-2h-2.49c-.804-.026-1.451-.695-1.451-1.499 0-.264.069-.523.201-.751l1.22-2.11-1.19-2.11c-.132-.228-.201-.487-.201-.751 0-.804.647-1.473 1.451-1.499h2.49l1.15-2c.267-.464.764-.752 1.3-.752s1.033.288 1.3.752l1.15 2h2.49c.519.013.994.298 1.25.75zm-5.47 5 .79-1.36-.79-1.36h-1.44l-.79 1.36.79 1.36zm18.28 22.91c-.812 0-1.484-.658-1.5-1.47v-4.27c0-.823.677-1.5 1.5-1.5s1.5.677 1.5 1.5v4.24c0 .823-.677 1.5-1.5 1.5zm-29.62-65.16.02-.02c0 5.826 4.794 10.62 10.62 10.62s10.62-4.794 10.62-10.62c0-2.27-1.78-3.66-4.78-5.66-2.173-1.304-4.085-2.999-5.64-5-1.48 2.34-3.9 3.91-6 5.27-3.01 1.95-4.84 3.29-4.84 5.41zm5.68 13.62v13.33l4.17-1.79 5.71 2.29v-13.83zm30.08 5.25.08-.04c.159 4.708 4.075 8.494 8.785 8.494s8.626-3.786 8.785-8.494c0-1.81-1.55-2.94-4-4.62-1.764-1.063-3.336-2.415-4.65-4-1.368 1.734-3.068 3.179-5 4.25-2.48 1.61-4 2.68-4 4.41z" transform="translate(-4.31 -3.58313)"/></svg>