<svg clip-rule="evenodd" fill-rule="evenodd" stroke-linejoin="round" stroke-miterlimit="2" viewBox="0 0 512 263" xmlns="http://www.w3.org/2000/svg"><path d="m504.561 485.407c9.927 0 9.91 15.003 0 15.003h-497.122c-9.927 0-9.91-15.003 0-15.003h26.926v-55.674c0-1.572.468-2.99 1.271-4.181 126.466-188.437 119.516-178.083 123.25-183.615 1.462-2.296 3.574-3.751 6.482-3.751h197.718c2.497 0 4.859 1.245 6.242 3.32 13.104 19.523 108.758 162.068 122.19 182.085-32.558-13.322-63.675-16.172-95.463-3.24l-.121-.18-112.057-166.982h-18.075l108.537 161.73c-29.677-8.422-57.454-6.701-82.89 5.141l-111.998-166.871h-10.072l-3.991 5.962s115.998 172.847 116.008 172.862v53.394h15.004v-51.093c27.007-13.113 56.354-12.983 89.412.4v50.693h15.004v-50.983c31.913-14.48 63.668-6.526 93.293 6.482v44.501zm-392.607 0h106.847c-19.595-23.846-38.27-65.156-53.413-118.32-15.154 53.164-33.829 94.474-53.434 118.32zm-31.237-23.046 14.713 19.135c18.725-19.055 37.14-57.134 52.543-108.257z" transform="translate(-0 -238.186)"/></svg>