<svg clip-rule="evenodd" fill-rule="evenodd" stroke-linejoin="round" stroke-miterlimit="2" viewBox="0 0 53 91" xmlns="http://www.w3.org/2000/svg"><path d="m28.607 18.18v-9.05c0-2.45 1.973-4.433 4.423-4.433s4.433 1.995 4.433 4.433v7.145c6.331-1.02 13.178-1.663 25.064-.042v-7.103c0-2.45 1.995-4.433 4.433-4.433 2.439 0 4.423 1.994 4.423 4.433v8.951c2.987 1.514 4.971 4.589 4.96 8.079v47.67c0 3.491-1.974 6.565-4.96 8.079v8.951c0 2.45-1.973 4.433-4.423 4.433s-4.433-1.995-4.433-4.433v-7.102c-5.204.71-9.44.985-13.087.985-4.696 0-8.414-.458-11.977-1.028v7.145c0 2.45-1.995 4.433-4.433 4.433-2.439 0-4.423-1.994-4.423-4.433v-9.05c-2.986-1.504-4.96-4.569-4.96-8.08v-47.47c0-3.501 1.974-6.575 4.96-8.08zm.212.603-.208-.209-.004.006c0 .119.011.218.031.299.06-.033.12-.065.181-.096zm.421 63.26-.259-.055c-.101-.045-.2-.092-.299-.141.168.36.558.196.558.196zm39.377.763c-1.152.2-2.253.381-3.324.547v7.517c0 .92.754 1.667 1.667 1.667.912 0 1.657-.747 1.657-1.667zm4.97-8.966v-47.69c0-3.062-2.19-5.67-5.198-6.206-8.053-1.432-14.038-1.941-18.929-1.941-5.906 0-10.224.757-14.681 1.521-1.012.18-2.025.351-3.067.521-3.062.5-5.289 3.107-5.289 6.215v47.48c0 3.108 2.227 5.715 5.289 6.215 1.041.17 2.064.351 3.065.521 8.137 1.401 15.828 2.73 33.612-.43 3.008-.536 5.198-3.144 5.198-6.206zm-10.226-31.702c.238.422.238.952 0 1.374-.001.002-.002.004-.004.007l-3.774 6.481 3.774 6.481c.002.003.003.005.004.007.238.42.238.949.003 1.37-.243.443-.704.705-1.204.705h-7.566l-3.397 5.836c-.002.003-.004.007-.006.01-.256.421-.697.674-1.191.674-.5 0-.96-.265-1.197-.684l-3.397-5.836h-7.566c-.496 0-.955-.273-1.196-.693-.255-.425-.245-.958-.005-1.382.001-.002.002-.004.004-.007l3.774-6.481-3.774-6.481c-.002-.003-.003-.005-.004-.007-.238-.42-.238-.949-.003-1.37.243-.443.704-.705 1.204-.705h7.566l3.397-5.836.001-.002c.25-.426.718-.657 1.196-.657s.946.231 1.196.657l.001.002 3.397 5.836h7.566c.499 0 .961.276 1.201.701zm-13.362-3.09s-1.396 2.389-1.396 2.389h2.786zm3.007 5.155h-6.012l-3.371 5.797s3.371 5.797 3.371 5.797h6.012l3.371-5.797zm-12.754 0s1.777 3.048 1.777 3.048 1.771-3.048 1.771-3.048zm-.002 11.594h3.54l-1.77-3.046zm9.751 5.155s1.396-2.389 1.396-2.389h-2.786zm9.747-5.155s-1.777-3.048-1.777-3.048-1.771 3.048-1.771 3.048zm-1.767-8.546 1.777-3.048h-3.548zm-26.598-29.954c.989-.155 1.96-.328 2.921-.491l.005-.001c.133-.022.265-.045.398-.068v-7.607c0-.92-.754-1.667-1.667-1.667-.912 0-1.657.747-1.657 1.667zm0 65.407v8.166c0 .92.737 1.667 1.657 1.667s1.667-.747 1.667-1.667v-7.607c-.133-.023-.265-.046-.398-.068l-.005-.001c-.962-.163-1.923-.327-2.921-.49zm37.234-65.51v-8.064c0-.92-.737-1.667-1.657-1.667s-1.667.747-1.667 1.667v7.508c1.066.168 2.172.355 3.324.556z" transform="translate(-23.6467 -4.69667)"/></svg>